<svg fill="black" xmlns="http://www.w3.org/2000/svg" width="2084" height="333.333" viewBox="0 0 1563 250"><path d="M615.5 2.1c-1.6.5-11.5 3.2-21.9 5.9s-19.1 5.2-19.3 5.4c-.3.3-.2 2.7.2 5.4l.6 4.9 9.7 1.4 9.7 1.4.7 5.5c.6 5.9 1.1 41 .4 41-.2 0-2.3-.7-4.7-1.6-12.5-4.5-31.5-2.5-46.1 4.8-49.1 24.6-44.4 100.4 6.9 112.4 15.5 3.6 28.3-.4 39.2-12.3l6.1-6.6v8.6c0 8.3.1 8.6 2.9 10.6l2.8 2 17.4-4.5c9.6-2.5 19.1-4.9 21.2-5.5 3.7-1 3.7-1 3.7-6.3v-5.3l-8.7-2-8.8-1.9-.9-7.5c-1-8.9-.8-112.5.3-135.9l.8-16.5-2.6-2.2c-2.8-2.4-4.8-2.7-9.6-1.2m-28.7 84.5c3.2 1.6 6.2 4 7.7 6.2l2.5 3.7V154l-3.6 4c-16.7 18.4-43.8 7.5-49.5-20-1.6-7.8-.6-27.2 1.7-33.3 7.1-18.4 24.6-26.1 41.2-18.1m86.7-79.7c-17.3 8-14.1 31.8 4.8 36.1 15 3.3 27.1-9.3 23.2-24.2-3-11.7-16.3-17.3-28-11.9M965 28.6c-22.8 2.9-46.5 15.7-58.5 31.7-19.6 26-22.5 65-6.8 91.9 20.6 35.3 77.5 48.5 122.4 28.4 10.1-4.5 9.4-2.3 9-28.3l-.3-22.8 6.6-1.9c7.2-2.1 7.5-2.7 6-10.5l-.6-3.1h-61.9l.3 6.2.3 6.3 8 1.5c4.4.8 8.5 1.8 9.2 2.3.8.5 1.2 6.6 1.3 20.6l.1 19.9-4.8 1c-20.1 4.3-36-.2-49.3-13.7-28.7-29.3-24.1-92.3 8-108.6 10.6-5.4 27.5-7.1 40-4.2 10.4 2.5 11 3.1 15.6 16.3 4.5 13.2 4.4 13 13 11.9l5.4-.6V60.6c0-21.5-.5-24.2-5.3-26.1-12.1-4.9-41.7-7.9-57.7-5.9M51.8 29.7 1.1 30l-.7 5.6c-.8 6.7-1.2 6.2 8.2 8.5 4.2 1 7.9 2 8.2 2.3 2.2 2.2 2.9 116.8.8 123.2-.6 1.6-2.5 2.5-8.9 4l-8.2 2 .3 5.9c.1 3.2.4 6 .5 6.1.1.2 28.4.4 62.9.6l62.7.3 2.2-8c1.2-4.4 3.7-13.3 5.6-19.8 1.8-6.5 3.3-12.2 3.3-12.6 0-.8-9.6-3.1-12.6-3.1-1.1 0-7.6 11-12.6 21.3-1.1 2.2-3 4.2-4.6 4.8-3.2 1.2-55.6.8-56.9-.4-.4-.5-1-13.1-1.2-28.1l-.3-27.3 5.3-.6c6.9-.9 21.9-.9 29.7-.1 6.9.8 6.5.2 8.2 11.1l1.2 7.3H107V80H94.1l-.7 4.7c-1.9 13.6-1.5 12.7-6.4 13.5-5.9.9-29.8 1-34 .2l-3.2-.7.4-25.8c.1-14.1.7-26.1 1.1-26.6 1.7-1.6 50.5-1 52 .7.8.8 3.1 5.8 5.2 11s4.2 10 4.7 10.6c.7 1 12.5 0 13.7-1.1.3-.3-4.2-29.3-5.5-35.3-.4-2.1-.8-2.2-9.7-2-5 .2-32 .4-59.9.5M289.5 69c-17.4 3.5-31.1 13.2-37.7 26.9-4.5 9.1-4.8 24.3-.6 33.1 3.2 6.8 9.6 14.2 15.4 17.6 5.3 3.1 5.3 2.9.3 5.5-17.2 8.7-21.7 25.8-8.9 34.3 2.2 1.4 5.4 2.9 7 3.3 4.3.8 3.8 1.6-3.8 5.6-26.1 13.8-27.4 35.6-2.7 46.7 15.2 6.9 46.5 8.9 64 4.2 47.2-12.8 57.1-60.1 15-71.8-2.7-.8-16.2-2.5-30-3.9-26.3-2.6-28.8-3.3-30.6-8.2-1.4-3.7 2-8.9 5.6-8.5 18 1.5 26.4 1.4 34.4-.7 21-5.3 35.1-21.6 35.1-40.7 0-5.6-3-16.7-5.4-19.9-.9-1.1-1.6-2.4-1.6-2.9 0-.7 9.6-.2 18.3 1l3.7.6V71l-3.7.6c-2.1.3-10.5 1.3-18.8 2.2-14.9 1.7-14.9 1.7-19.5-.5-9.2-4.4-25.3-6.3-35.5-4.3m19 15c16.7 8.1 18.3 46 2.3 55.4-3.9 2.4-13.2 2.5-17.4.3-11.4-6-16.7-24.6-11.6-41.3 4.2-13.9 15.4-19.9 26.7-14.4m-8.1 110.5c30.6 2.6 36.4 5.5 35.9 18.2-.7 18.5-33.8 29.6-55.8 18.8-13.2-6.4-14.3-22.5-2.5-34.3 2.3-2.3 4.3-4.2 4.4-4.2s8.2.7 18 1.5M432 68.7c-35.2 3.5-58.2 29.3-56.8 63.8 1.6 38.1 33.4 63 71.8 56.1 28.8-5.1 48.2-29.7 48.4-61.1.1-36.4-27.8-62.3-63.4-58.8m8.4 15.4c12.6 3.5 21.2 21.2 22.3 45.6 1.3 29-6.9 44.3-23.7 44.3-19.1 0-32.2-23.2-30.7-54.5 1.2-26 14.2-40.4 32.1-35.4M781.8 69c-43.5 5.2-69.3 50.8-50.7 89.6 18.3 38.5 78 41.5 98.2 5l2.8-5-3.5-3.4-3.4-3.5-5.4 4.7c-22.3 19.5-54.1 10-60.4-18.1-5.5-24.6 3.3-47.8 20.6-54.4l4.9-1.8 7 6.5c14.2 13.3 20 16.4 27.7 14.9 11.8-2.2 12.9-17.4 1.9-25.8-9.4-7.2-24.4-10.5-39.7-8.7m423.7.1c-34.8 3.9-58.2 34.2-53.6 69.3 4 29.5 24.3 48.3 55.2 51.1 35.2 3.1 64.9-25.1 64.9-61.6 0-38.1-28.2-63-66.5-58.8m14.6 16.7c10.4 5.4 17.1 19.6 19 40.4 2.7 29.2-6.4 47.8-23.6 47.8-16.9 0-29-17.4-31.1-44.5-2.5-32.8 15.1-54.5 35.7-43.7m285.1-16.3c-8.4 1.8-15.6 6.2-22.6 13.5-3.2 3.4-6 5.9-6.3 5.6-.3-.2-.1-3.7.4-7.6l1-7.2-3.2-2.3-3.1-2.4-14.9 4c-8.3 2.2-18.1 4.7-21.8 5.6l-6.8 1.7.3 5.5.3 5.5 8.2 1.9c8.2 1.8 8.2 1.8 9 5.5.9 4.4.9 126.7 0 130.3-.6 2.3-1.6 2.8-8.7 4.4l-8.1 1.8.3 5.6.3 5.6 34.6.3 34.7.2.7-5.6c.4-3 .5-5.7.3-5.8-.2-.2-5-1.1-10.8-2.2-9.5-1.8-10.5-2.2-11.1-4.4-1-3.4-1.1-43-.1-43 .4 0 3 .7 5.7 1.5 7.4 2.3 23.1 2 33-.5 37.6-9.7 57.2-55.3 39.4-91.6-9.3-18.8-31.3-30-50.7-25.9m6.9 24.6c20.5 10.4 24.8 52.9 7.2 70.5-9 9.1-28.4 10.4-40 2.8l-2.3-1.4v-62.8l5.1-4.6c2.8-2.5 5.4-4.6 5.8-4.6.3-.1 2.9-.7 5.6-1.5 5.9-1.7 13.4-1.1 18.6 1.6M178.5 71c-3.3 1-12.7 3.5-20.8 5.7l-14.8 3.8.3 5.5.3 5.4 7.9 1.8c4.4 1 8.2 2 8.4 2.3 2.6 2.6 3.3 73.8.7 76.3-.2.3-3.9 1.4-8.2 2.6l-7.8 2.2.3 4.9c.2 2.8.7 5.3 1.1 5.8.4.4 16.4.6 35.7.5l34.9-.3.3-5.7c.3-6.6 1.6-5.8-13.2-8.3-4.9-.8-9.1-1.7-9.4-2-.3-.2-.9-13.7-1.5-29.8l-1-29.3 3.8-6c2-3.2 5.1-7.3 6.7-9.1l3-3.1 3.5 2.3c15.1 10.3 35.4-.3 31.1-16.3-4.8-17.9-32-12.7-43.9 8.3-4.8 8.6-5.3 8.2-4.5-4.2l.7-11.1-3-2.1c-3.4-2.5-3-2.5-10.6-.1m490.7 3.8-22.3 5.7.3 5.4.3 5.5 8.5 1.8c4.6 1 8.5 2 8.7 2.2 2.2 2.1 3.3 74 1.2 76.1-.4.3-4.6 1.5-9.3 2.6l-8.6 2.1v4.3c0 8.1-2.7 7.5 34.6 7.5H716v-2.9c0-1.6.3-4.2.6-5.9l.6-3-8.1-1.7c-12.8-2.8-11.6 1.9-11.6-44.7 0-22.2.3-43.9.7-48.3l.8-8-3.3-2.3c-1.8-1.2-3.5-2.2-3.8-2.1-.2 0-10.4 2.6-22.7 5.7m418.3-3.8c-3.3 1-12.7 3.5-20.8 5.7l-14.8 3.8.3 5.5.3 5.4 8.2 1.9c5.5 1.2 8.3 2.4 8.8 3.5 1.9 4.9 2.2 72.8.3 74.7-.4.4-4.2 1.7-8.5 2.9-4.5 1.2-7.8 2.7-7.7 3.4s.2 3.2.3 5.7l.1 4.5 35.8-.2 35.7-.3.3-5.7c.3-6.6 1.6-5.8-13.2-8.3-4.9-.8-9.1-1.6-9.3-1.8-.6-.7-2.2-35.8-2.3-48.8 0-12.8 1.3-16 9.8-25l3.4-3.7 3.5 2.3c15 10.3 36.2-.8 31.2-16.3-5.2-16.4-28.9-13.7-41.7 4.7-2.6 3.8-5.3 7.7-6 8.7-1.1 1.6-1.2 0-.8-9.3l.5-11.2-2.8-2.1c-3.4-2.4-3-2.4-10.6 0m230-.4c-2.7.8-12.4 3.3-21.5 5.7l-16.5 4.2v10.9l8.3 1.7c4.6.9 8.8 2.1 9.3 2.6s1.3 14.5 1.8 31.4c.9 34.4 1.6 37.6 9.1 47.4 7.1 9.3 17.1 14.2 30.5 15.2 12.7 1 24.5-4.4 33.4-15.3 2.5-2.9 4.7-5.2 4.9-4.9.3.2.4 4.2.3 8.8l-.2 8.4 3.2 2.1 3.2 2 17.1-4.5c9.4-2.4 18.8-4.8 20.9-5.4 3.7-1 3.7-1 3.7-6.3v-5.3l-8.1-1.8c-5.8-1.4-8.3-2.4-9.2-3.9s-1.2-14.2-1.3-46.5l-.1-44.4-2.6-1.9c-2.5-1.9-2.7-1.8-25.4 3.9l-22.8 5.9v10.8l9.4 1.8c5.1.9 9.6 2 9.9 2.2 2.1 2.2 2.8 55.5.8 59.4-6.9 13.2-29.1 16.7-39.6 6.2-7-7-7.3-9.8-6.8-51.7l.5-36.3-3.2-2c-1.8-1.1-3.4-1.9-3.6-1.9-.2.1-2.6.8-5.4 1.5"/></svg>