<svg fill="black" xmlns="http://www.w3.org/2000/svg" width="646.667" height="220" viewBox="0 0 485 165"><path d="M45.3 5.2c-1.5 2.4-5.9 9.9-9.9 16.8-3.9 6.9-13.3 23.1-20.8 36.1S1 82.4 1 83.3s2.6 3.3 5.8 5.4c18.7 12 39 24.5 40.8 24.9 2.2.6 4.7-.9 28.4-16.2 6.3-4.1 13.1-8.3 15.1-9.3 6.9-3.8 7.9-1.2-17.8-45.9C60.3 19.5 49.2 1 48.8 1s-2 1.9-3.5 4.2m145.4 18.5c-.4 5.3-.4 21 .1 38.6l.2 6.8 3.8-.3 3.7-.3.5-12.3c.5-12 .6-12.4 3.3-14.8 3.3-2.8 6.7-3.1 9.6-.7 1.9 1.6 2.1 3 2.3 14.8l.3 13h8l.3-12c.4-14.7-.9-20-5.2-22.6-4.5-2.8-11.1-2.5-15.2.6l-3.3 2.5-.3-9.2-.3-9.3-3.6-.3-3.7-.3zm-19.2-1.2c-.5.2-2.2.6-3.7.9-2.5.6-2.8 1.1-2.8 4.6 0 3.8-.2 4-3 4s-3 .2-3 4 .2 4 3 4h3v9.5c0 15.5 2.1 18.7 12.5 18.9 3.9.1 4 0 4.3-3.7.3-3.6.2-3.7-3.1-3.7-4.4 0-4.7-.8-4.7-12.1V40h3.5c3.4 0 3.5-.1 3.5-4s-.1-4-3.5-4H174v-5c0-4.8-.3-5.3-2.5-4.5m-41 11.1c-7.6 4-9.9 8.4-9.4 18.6.6 11.3 5.1 16 15.9 16.6 7.5.4 11.9-1.8 15.3-7.6l1.9-3.2h-4.1c-2.8 0-4.8.7-6.1 2-4.4 4.4-15 1-15-5 0-1.9.6-2 12.5-2H154v-4.2c0-12.4-12.9-20.8-23.5-15.2m12.3 7.1c1.2 1 2.2 2.7 2.4 3.8.3 1.8-.3 2-7.9 2.3-9.4.3-10.5-.7-5.6-5.3 3.3-3 8.1-3.3 11.1-.8m98.7-7.1c-7.5 3.9-10 8.9-9.3 19 .7 11.1 7 16.8 17.8 16.2 8.4-.4 11-2.2 14.8-10.1.8-1.6-7.1-.6-9.5 1.3-5.4 4.2-15.3.9-15.3-5.1 0-1.7 1.2-1.9 12.8-2.1l12.7-.3-.3-4.5c-.8-12.3-13.2-19.9-23.7-14.4m13.1 7.9c3.9 3.9 2.7 5-5.6 5.3-9 .4-10.3-.6-6.2-4.7 3.9-3.9 8.3-4.1 11.8-.6m20.6 8.7.3 18.3h7l.5-11c.6-13.1 1.5-15.1 7.5-16.7 4.3-1.2 4.5-1.4 4.5-5 0-3.5-.2-3.8-2.9-3.8-1.7 0-4.2 1.1-6 2.6l-3.1 2.6v-2.6c0-2.4-.4-2.6-4-2.6h-4zm34.3-16.6c-7.3 3.8-10 9.4-9.3 19.3.5 6.8 2.4 10.2 7.8 13.8 7.7 5.3 21.4 1.4 24.3-7 .9-2.5-5.7-2.3-9 .3-5.4 4.2-15.3 1-15.3-5 0-1.9.6-2 12.6-2h12.7l-.6-6c-.6-6.9-3.1-11-8.1-13.4-4.3-2-11.2-2.1-15.1 0m13.1 7.9c3.8 3.8 2.7 5-5.1 5.3-8.1.4-9.5-.1-8.9-2.5 1.4-5.1 10-6.8 14-2.8m20.1-8.9c-1.1 1.1-.8 23.4.3 27.3 1.4 4.8 4.6 7.9 9.1 8.6 4 .7 10.9-.9 10.9-2.6 0-.5.7-.9 1.5-.9s1.5.9 1.5 2.1c0 1.7.5 2 3.8 1.7l3.7-.3v-36h-8l-.5 12.1c-.4 9.9-.8 12.6-2.3 14.2-2.6 2.9-6.4 3.6-9.3 1.7-2.2-1.4-2.4-2.1-2.6-14.8l-.3-13.2-3.5-.3c-2-.2-3.9 0-4.3.4M386 50.5v18.6l3.8-.3 3.7-.3.5-12.8c.5-12 .7-13 2.9-14.8 2.9-2.4 5.3-2.4 8-.2 1.9 1.6 2.1 3 2.3 14.8l.3 13h8l.3-12.7c.3-12.3.3-12.8 2.9-14.8 3.2-2.5 5.8-2.5 8.3 0 1.8 1.8 2 3.3 2 15v13h8V38.8l-3.4-3.4c-4.5-4.5-11.7-4.9-16.5-.8l-3.1 2.6-3.1-2.6c-4.3-3.6-10.6-3.6-14 0l-2.4 2.6-.5-2.4c-.5-1.8-1.4-2.4-4.3-2.6l-3.7-.3zm3 40.5v5.1l4.3-.3 4.2-.3v-9l-4.2-.3-4.3-.3zm-258.8-3.3c-2.9.6-4.9 3.7-5.8 9-.5 3.6-1 4.2-3.3 4.5-4 .5-3.9 7.1.2 7.6l2.7.3V137h9v-28h3c2.8 0 3-.2 3-4s-.2-4-3.1-4c-2.7 0-3-.3-2.7-2.8.2-2.2.8-2.8 3.6-3 3-.3 3.2-.6 3.2-4.3 0-3.9 0-3.9-3.7-3.8-2.1.1-4.8.4-6.1.6M302 95.6c0 7.8-.2 8.5-1.7 7.9-8.5-3.6-10-3.9-14.4-2.6-15.2 4.6-16.2 30.9-1.3 35.9 4.5 1.5 11.6.8 13.4-1.3 1.6-1.9 4-1.9 4 0 0 1.1 1.1 1.5 4 1.5h4V87h-8zm-4.4 14.2c4.5 3.6 5.7 9.8 2.9 15.2-3 5.7-10.8 7-15 2.4-3.7-4-3.6-13 .1-16.8 3.2-3.1 8.7-3.5 12-.8M367 91.9c-2 .5-2.6 1.5-3 4.6-.4 3.5-.9 4.1-3.5 4.5-2.7.5-3 .9-3 4 0 3.2.3 3.5 3.2 3.8l3.1.3.4 11.4c.4 14.4 1.8 16.5 11 16.5h5.8v-3.5c0-3.2-.3-3.5-2.8-3.5-4.5 0-5.2-1.5-5.2-11.6v-9.3l3.3-.3c2.9-.3 3.2-.6 3.5-4.1.3-3.6.3-3.7-3.2-3.7H373v-5c0-5.4-.4-5.7-6-4.1M2.3 97.2c.9 1.3 4.5 6.6 8.1 11.8 8.4 12.4 23.2 34.1 31.4 45.9l6.5 9.4 2-2.4c3.2-3.9 42.2-60.8 45.2-65.8q.9-1.5-.6-.6c-2 1.1-38.6 24.1-43 27l-3.6 2.4-3.9-2.7C38.1 117.9 1.8 95 1.3 95c-.3 0 .2 1 1 2.2m156.7 3.4c-7.1 2.5-9.3 4.1-11.7 8.1-3.1 5.3-3.4 14.1-.8 19.6 6 12.7 26.9 12.6 32.2-.1 3.9-9.3.3-22-7.3-25.6-4.1-2-9.9-2.9-12.4-2m8 8.9c5.7 3 6.5 14.4 1.3 18.5-8.7 6.8-18.8-3.8-13.7-14.5 2.4-5.2 7.2-6.7 12.4-4m80.4-8.1c-1.8.8-3.5 1.9-3.8 2.5-1.1 1.8-2.6 1.3-2.6-.9 0-1.7-.7-2-4-2h-4v36h8v-11c0-14.7 1.6-18 8.9-18 5.2 0 6.1 2.3 6.1 16.3V137h9v-13c0-16.1-1.3-20.1-7.1-22.4-4.7-1.9-6.4-1.9-10.5-.2m83.3 0c-5.1 1.9-9.7 6.6-9.7 10.1 0 1.8 7.9.3 10-2 3.7-3.9 12-2.9 12 1.4 0 2.6-1.8 3.8-7 4.6-12.3 1.9-16 4.7-16 12.1 0 6.9 3.2 9.9 10.8 9.9 4.9 0 6.5-.5 8.5-2.3 2.9-2.7 3.7-2.8 3.7-.2 0 1.7.7 2 4 2h4v-14.4c0-13.2-.2-14.5-2.2-17.1-4-5.1-10.8-6.7-18.1-4.1m10.8 24.4c-3.4 6.3-13.5 6.9-13.5.8 0-3.2 1.5-4.2 8-5.3 7-1.2 8.1-.3 5.5 4.5m75.7-23.9c-12.3 4.9-14.5 23.9-3.9 32.5 5.4 4.4 16.3 4.5 21.9.3 17.4-13.3 2.2-41-18-32.8m11.7 7.6c4.7 2.4 6.5 10 3.6 15.5-4 7.8-15.4 6.1-16.8-2.5-1.8-10.8 4.9-17.3 13.2-13m37.5-8.1c-1.8.8-3.5 1.9-3.8 2.5-1.1 1.8-2.6 1.3-2.6-.9 0-1.7-.7-2-4-2h-4v36h8v-10.4c0-14.5 1.9-18.5 8.6-18.6 5.4 0 6.3 2.1 6.6 16l.3 12.5 4.3.3 4.2.3v-13.5c0-16.2-1.1-19.6-7.2-22.1-4.6-1.8-6.3-1.8-10.4-.1m-276.2 14.7.3 15.1 3.3 2.9c4.1 3.7 12.7 4.2 15.7.9 2.3-2.5 3.5-2.5 3.5 0 0 1.7.7 2 4 2h4v-36h-8v10c0 13.8-2.4 19-8.9 19-5 0-6.1-3-6.1-16.5V101h-8.1zM389 119v18h8v-36h-8z"/></svg>