<svg fill="black" xmlns="http://www.w3.org/2000/svg" width="1081.333" height="278.667" viewBox="0 0 811 209"><path d="M0 34.8C0 54 .5 74.6 1.1 80.6c3.7 36.9 20.9 70.4 52.4 102 14.5 14.6 30.1 26.7 32.6 25.3 6.5-3.4 24.4-18.2 34.9-28.8 26.1-26.2 42.1-55.5 47.6-87.1 1.6-9 1.8-16.4 1.9-51V.5L85.3.2 0 0zM86.3 4.7 5 5l-.3 37.8-.2 37.7-.3-38.3L4 4l81.8.2 81.7.3zM25.4 22.4c-1.1.8-3.3 1.6-4.9 1.8-2.7.3-3 .7-3.5 4.8s-.8 4.5-3.3 4.8c-2.1.3-3.2 1.2-4.2 3.5-.8 1.8-1.4 2.5-1.5 1.7 0-2.7 3-6 5.6-6 2.1 0 2.4-.4 2.4-3.8 0-4.5 1.4-6.2 5.1-6.2 1.5 0 3.1-.5 3.4-1 .3-.6 1.1-1 1.8-1 .6 0 .2.6-.9 1.4m89.1.6 8 .7-7 .1c-4.3.1-8.1-.4-10-1.4-1.6-.8-2.1-1.1-1-.8 1.1.4 5.6 1 10 1.4m32.5-.5c.7.8 2 1.5 2.9 1.6q1.65 0 .3.6c-.7.3-2.2-.3-3.2-1.2-1.4-1.3-2.3-1.4-3.9-.6-3 1.6-4 1.3-1.1-.4 3.2-1.8 3.5-1.8 5 0m-81.5.5c-.3.5-1.2 1-1.8 1-.7 0-.6-.4.3-1 1.9-1.2 2.3-1.2 1.5 0m-19 .9c1.1.5-1.6.6-6 .4-10.4-.6-11.9-1.1-3-1.2 3.9 0 7.9.4 9 .8m13 .1c1.2.5-.4.6-4 .3-3.3-.3-6.2-.7-6.4-.9-.9-.8 8.5-.2 10.4.6m41.3-.3c-1 .2-2.6.2-3.5 0-1-.3-.2-.5 1.7-.5s2.7.2 1.8.5m34.1-.3c-.2.2-3.1.6-6.4.9-3.6.3-5.2.2-4-.3 1.9-.8 11.3-1.4 10.4-.6m-58.2 1.2c-.3.3-1.2.4-1.9.1-.8-.3-.5-.6.6-.6 1.1-.1 1.7.2 1.3.5m62 0c-.3.3-1.2.4-1.9.1-.8-.3-.5-.6.6-.6 1.1-.1 1.7.2 1.3.5m15.8.4c.3.6-.1.7-.9.4-1.8-.7-2.1-1.4-.7-1.4.6 0 1.3.4 1.6 1M43.8 26.5c.9.3 1.2 5.8 1.2 22.9v22.4l-8.4-.3c-4.6-.1-8.8-.5-9.5-.9-1.3-.8-1.5-16.5-.5-34.2l.7-11.1 7.6.4c4.2.3 8.2.6 8.9.8m22.8 21.2c-.3 12.5-.9 22.9-1.2 23.2s-4.7.7-9.7.9l-9.2.2.3-21.7c.2-12.6.8-22.3 1.4-23 .5-.7 4.3-1.4 8.6-1.6 4.3-.1 8.3-.4 9.1-.5 1.2-.2 1.3 3.3.7 22.5m55.6-20.3c.9 1.3 1.1 37 .2 41.3l-.6 2.9-7.6-.1c-4.3 0-8.3-.4-8.9-.8-1.3-.8-2-43.7-.8-44.9 1-.9 17 .5 17.7 1.6M144 48c0 12.6-.1 23-.2 23.1-.2.1-4.8.4-10.2.8l-9.9.6.6-22.4c.3-12.3.9-22.6 1.2-22.9.3-.4 4.3-.9 8.8-1.3 4.5-.3 8.5-.7 9-.7.4-.1.7 10.1.7 22.8M21.5 51.2v25.3l10.3.3c8.2.2 10.2.6 10.2 1.7 0 1.2-1.9 1.5-10.4 1.5-13.3 0-13.6-.1-13.6-5.6 0-4.2-.5-4.9-3.6-4.5-1.7.2-3.9-2.8-2.8-3.9.5-.4 2-1 3.4-1.2l2.5-.3v-24l-3.3-.3c-4.3-.4-4.1-3.4.3-4.2 2.6-.4 3-1 3.3-4 .3-3.3 1.7-6 3.1-6 .3 0 .6 11.4.6 25.2m77.4-21.4c-.5 1.5-.8 12.5-.7 24.7l.3 22 10.5.5c14.2.7 13.3 2.5-1.2 2.5H96.5l-.3-4c-.4-4.4-1.7-6.6-3.5-6-1.9.7-4-1.2-3.4-2.9.4-.9 1.7-1.6 3-1.6 2.4 0 2.4-.2 3-11.2.6-12 .1-13.8-3.8-13.8-1.2 0-2.5-.3-2.8-.7-1.1-1.1 1.4-3.3 3.8-3.3 2.5 0 3.5-1.7 3.5-6 0-1.6.6-3 1.3-3.3 2.1-.7 2.6.2 1.6 3.1M24.5 70.7c-.3 1.3-1 2.3-1.5 2.3-1.6 0-1.3-41.6.3-44.3 1.3-2.3 2.4 37 1.2 42M71 28.9c1.3 2.5.1 44.1-1.3 44.1-.5 0-.7.7-.3 1.5.5 1.3-1.1 1.5-10.5 1.5-8.4 0-11-.3-10.6-1.3.2-.8 2.6-1.2 6.8-1.2 3.5 0 8-.2 9.9-.3l3.5-.2-.3-23c-.3-22.6.1-26 2.8-21.1m4.8 2.9c.3 3.6.6 4.2 2.6 4.2 1.3 0 2.9.7 3.6 1.5 1.2 1.5.3 2.2-5.2 3.9-1.4.4-1.6 2-1.5 11.8l.2 11.3 3 .5c4.4.8 4.6 3.8.3 4.2-2.9.3-3.3.7-3.6 3.3-.7 7.9 0 7.5-12.7 7.5-6.2 0-11.6-.4-11.9-.9-.6-1 7.5-2.1 15.5-2.1h5.6l.8-21.9c.4-12 .4-23.3 0-25.1-.6-2.7-.4-3.1 1.2-2.8 1.3.2 1.9 1.4 2.1 4.6m26.5 18.8c-.6 16.5-1.1 21.8-2.1 22.2-1.6.5-1.4-42.2.2-44.6 2.3-3.6 2.7 1.4 1.9 22.4m45.9-23.4c.1.2.5 9.7.8 21.3l.6 21V48.2c-.1-19.3.1-21.2 1.6-21.2 1.3 0 1.8 1 2 4.2.3 3.8.6 4.3 3.6 5 5.1 1.3 3.7 4.8-1.9 4.8-1.9 0-1.9.7-1.7 11.7l.3 11.8 3 .5c4.5.8 4.7 4 .1 4-3.4 0-3.5.1-4.3 5.2l-.8 5.3-11.9.3c-9.2.2-11.7 0-11.4-1 .3-.9 3.5-1.4 10.6-1.6 10.2-.3 10.2-.3 10.2-2.8 0-1.4-.4-2.3-.9-1.9-2.4 1.4-3.1-4.2-3.1-23.8 0-11.2.3-20.7.7-21 .6-.7 2.1-.9 2.5-.5m9.6 6.1c1.2.3 1 .5-.5.6-2 .1-2.3-.3-2.1-3.7.1-3.6.1-3.6.5-.5.3 1.9 1.1 3.4 2.1 3.6m-76.6.1c4.1.8 3.3 1.5-.9.9-3-.5-3.3-.9-3.2-3.7.2-2.8.2-2.9.6-.5.3 2.1 1.1 2.8 3.5 3.3m12.1.3c-.7.2-2.1.2-3 0-1-.3-.4-.5 1.2-.5 1.7 0 2.4.2 1.8.5m-2.5 8.1 3.2.3-.2 8.7-.2 8.7-.3-8.3c-.4-7.7-.5-8.2-2.6-8.2-3 0-4.7-1.8-4.6-5 .1-2.3.2-2.3.8.5.5 2.5 1.2 3.1 3.9 3.3m70.9-2.1c-.3 1-.5.4-.5-1.2 0-1.7.2-2.4.5-1.8.2.7.2 2.1 0 3M15.8 49.4l-.2 7.1-.3-6.8c-.4-6.3-.5-6.7-2.8-6.7-1.3 0-2.6-.4-2.9-.8-.2-.4 1.1-.6 3-.4l3.4.4zm143-6.1c-2.6 1-2.7 1.5-3.1 8.6l-.3 7.6-.2-8.2c-.2-7.7-.1-8.2 2.1-8.6q5.7-1.05 1.5.6m-78.8.1c0 .2-.7.6-1.5 1-.8.3-1.5.1-1.5-.4 0-.6.7-1 1.5-1s1.5.2 1.5.4M16.3 62.1c-.6.6-1.9.9-2.9.6-1.6-.4-1.5-.5.4-.6 1.2 0 2.2-.6 2.2-1.3 0-.6.3-.8.7-.5.4.4.2 1.2-.4 1.8m141.2.2c1.6.5 1.5.5-.4.4-1.4-.1-2.6-.9-2.8-1.7-.3-1-.2-1.1.4-.4.4.7 1.7 1.4 2.8 1.7m-73.6 1.3c.9.9-5.3-.7-6.3-1.7-.5-.5.5-.4 2.4.1 1.8.5 3.5 1.2 3.9 1.6m10-1.2c-.2.2-2 .6-3.9 1-2.5.4-3.1.3-2-.4 1.4-.9 6.9-1.5 5.9-.6m-7.2 5.8c-.3.7-.5.2-.5-1.2s.2-1.9.5-1.3c.2.7.2 1.9 0 2.5m76.3-.7c0 .8-.3 1.6-.7 1.8-.5.3-.8-.5-.8-1.8s.3-2.1.8-1.8c.4.2.7 1 .7 1.8M9.3 68c.3 1.1.1 1.8-.4 1.4-.5-.3-.9-1.2-.9-2 0-2 .7-1.7 1.3.6m75.4.2c-.3.8-.6.5-.6-.6-.1-1.1.2-1.7.5-1.3.3.3.4 1.2.1 1.9M82.5 72c-.3.5-1.8.9-3.3.9l-2.7-.1 3-.8c1.7-.4 3.1-.8 3.3-.9.2 0 0 .3-.3.9m10.1 0c1 0 1.4 1.2 1.2 4.7l-.1 4.8-.4-4.1c-.3-3-1-4.3-2.6-5-1.2-.6-1.6-.9-.9-.7.8.2 2 .3 2.8.3m-76.9.6c-.3.3-1.2.4-1.9.1-.8-.3-.5-.6.6-.6 1.1-.1 1.7.2 1.3.5m27.1.9c4.1 1.4.2 2.5-8.8 2.5-9.4 0-11.9-.8-9.6-3.1.5-.5 16.6 0 18.4.6m78.8 1.1c1.4 1.8 3.4 1.8 4.8 0 1.2-1.6 18.2-2.6 20.4-1.2 3.1 1.9.4 2.6-9.9 2.6-9.9 0-11 .2-10.5 1.6.8 2.1-1.1 4.5-3 3.7-.8-.3-1.4-1.5-1.4-2.8 0-2.6-3.4-3.5-13.7-3.5-5.6 0-7.3-.6-5.8-2.2 1.1-1.1 18 .4 19.1 1.8m35.7-1.9c-1.6.3-2.3 1.3-2.6 3.6-.4 3.1-.4 3.1-.5-.6-.2-3.4 0-3.7 2.6-3.6 2.2.1 2.3.2.5.6M26 82.1l9.5.5-9 .2c-10.3.2-11.6-.4-11.4-5.8l.2-3.5.6 4 .6 4zm140.7-2.9c-.2 1.3-.4.5-.4-1.7-.1-2.2.1-3.2.4-2.3.2 1 .2 2.8 0 4M48.5 78c.8 2.4-.1 4-2.1 4-1.7 0-2.8-2.4-2-4.5.8-2.2 3.4-1.8 4.1.5m2.5 4.4c0 .2-.8 1-1.7 1.7-1.6 1.3-1.7 1.2-.4-.4s2.1-2.1 2.1-1.3m57.3.3c-2.3.2-6.4.2-9 0s-.7-.3 4.2-.3c5 0 7.1.1 4.8.3m38.7.7c1.4.2-2.3.4-8.1.4-6.1 0-11.5.4-12.8 1.1-1.5.9-2.6.9-3.9.1-1.5-1-1.4-1 .5-.5 1.2.3 2.7 0 3.3-.7 1.2-1.2 13.4-1.4 21-.4m5.5-.4c-.3.5-1.2 1-1.8 1-.7 0-.6-.4.3-1 1.9-1.2 2.3-1.2 1.5 0M45 84.6c1.6 1 1.8 1.3.5.8-1.1-.4-3.6-1-5.5-1.4-3.4-.8-3.4-.8-.5-.8 1.7-.1 4.1.6 5.5 1.4m22.3-.9c-2.9.2-7.7.2-10.5 0-2.9-.2-.6-.3 5.2-.3s8.1.1 5.3.3m50 0c-.7.2-1.9.2-2.5 0-.7-.3-.2-.5 1.2-.5s1.9.2 1.3.5M6.8 93c0 2.2-.1 2.2-.8-.5-1.1-4.2-1.1-7.9 0-4.5.4 1.4.8 3.6.8 5m158.9-2.8c-.3.7-.5.2-.5-1.2s.2-1.9.5-1.3c.2.7.2 1.9 0 2.5m-1 5c-.3.7-.5.2-.5-1.2s.2-1.9.5-1.3c.2.7.2 1.9 0 2.5m-103.6 5.3c1.9.8 2.7 1.4 1.9 1.4-1.4 0-7.2-2.8-5.9-2.9.4 0 2.2.7 4 1.5m-52.4 1.7c-.3.8-.6.5-.6-.6-.1-1.1.2-1.7.5-1.3.3.3.4 1.2.1 1.9m104.2-1.8c-.2.2-2.2.6-4.4.9-2.8.5-3.4.4-2-.3 1.9-.8 7.3-1.4 6.4-.6M55.5 102c-.3.5-1.4 1-2.3.9-1.4 0-1.3-.2.3-.9 2.7-1.1 2.7-1.1 2 0m23.8-.3c-1.3.2-3.5.2-5 0-1.6-.2-.5-.4 2.2-.4 2.8 0 4 .2 2.8.4m13.5 0c-1 .2-2.6.2-3.5 0-1-.3-.2-.5 1.7-.5s2.7.2 1.8.5m27.6.1c.2.4-1.1.6-3 .4s-3.4-.6-3.4-.8c0-.8 5.9-.4 6.4.4m-52.1.9c-.7.2-1.9.2-2.5 0-.7-.3-.2-.5 1.2-.5s1.9.2 1.3.5m17.6.3c-.6.5-1.8.6-2.6.3-1.9-.8-1.6-1.1 1.3-1.1 1.7 0 2.2.3 1.3.8m15.9-.3c-1 .2-2.6.2-3.5 0-1-.3-.2-.5 1.7-.5s2.7.2 1.8.5m-27.3 1.5c8.3-.6 9.7.8 8.8 8.6s-4.9 22.3-6.5 23.3c-.9.6-.7.9.7.9 1.5 0 2.4-.9 3-3.3 1.7-5.6 3-3.6 3.2 4.8.2 12.2 1 11.5-12.1 11.5-7.4 0-11.6-.4-12.4-1.2-1.2-1.2-1.9-43.8-.7-45 .3-.3 2.6-.2 5.2.2s7.4.5 10.8.2m36.5 21.2c0 16.7-.3 22.6-1.2 23.4-.7.6-6.6 1.2-13.1 1.4l-11.7.3v-9.7c0-5.3.4-9.9.9-10.2 1-.7 2.1 1.7 2.1 4.5 0 1.4.7 1.9 2.7 1.9 2.5 0 2.5-.1 1-1.8-1-1-1.7-2.6-1.7-3.5s-1.1-5.1-2.5-9.4c-3-9.5-3.3-15.8-.7-17.2 1-.5 5.4-.7 9.8-.4 5.1.4 8.8.2 10-.5 4.4-2.6 4.4-2.3 4.4 21.2m13.8-14.1c1.2.3 1.1.5-.5.6-2.1.1-2.3-.3-2.1-4.2l.1-4.2.4 3.7c.3 2.4 1 3.8 2.1 4.1m-71.3-4c-.4 1.3-.7 12.7-.8 25.3l-.2 22.9 13.8.3c7.5.1 13.7.7 13.7 1.1 0 1.2-12.7 2.3-22 1.9l-7.5-.3-.5-5c-.5-4.8-.6-5-4-5.5-2.2-.3-3.5-1-3.5-2s1.3-1.7 3.5-2l3.5-.5v-24L46 119c-2.2-.3-3.5-1-3.5-2s1.3-1.7 3.5-2c3.2-.5 3.5-.8 3.8-4 .4-4.9.9-6 2.7-6 1.1 0 1.4.6 1 2.3m62.5 22.3c0 20.3-.6 25.5-2.4 20.8-.3-.9-.6-11.5-.6-23.6 0-19.5.2-21.9 1.5-20.8 1.3 1 1.5 5 1.5 23.6m4.1-23.4c.1.7.2 2.6.3 4.3.1 2.4.7 3.2 3.2 4 4.1 1.3 4.6 2.9.9 3.3-4.2.5-4.5 1.3-4.5 13.5V142l2.8 1.1c1.5.5 3.3 1.2 3.9 1.4 2.3.8.2 3.5-2.7 3.5-3 0-4 1.5-4 6 0 1.6-.3 3.1-.7 3.3-2 1.2-30.6 1.2-31-.1-.4-.9 2.6-1.2 12.4-1.2 8.8 0 13.5-.4 14.6-1.3 1.5-1.1 1.7-3.8 1.8-24.4.1-12.7-.2-23.6-.5-24.2-.4-.7.1-1.1 1.3-1.1s2.2.6 2.2 1.2M57 127.1c0 20.1-.6 24.9-3.1 24.9-.6 0-.8-7-.4-20.8.7-22.1 1-25.2 2.5-25.2.6 0 1 8 1 21.1m-45-15.6c0 .5-.5.3-1-.5s-1-2-1-2.5c0-.6.5-.3 1 .5s1 1.9 1 2.5m35.2.7c-.6.6-.7 0-.4-1.9.5-2.1.7-2.3 1-.9.2 1 0 2.2-.6 2.8m-3.7 0c-1.1.6-2.6 1.8-3.2 2.6-.7.9-1.3 1.1-1.3.4 0-1.2 3.9-4.2 5.5-4.2.5 0 .1.6-1 1.2m85.6 1.5c1.3 1.6 1.2 1.7-.3.4-1-.7-1.8-1.5-1.8-1.7 0-.8.8-.3 2.1 1.3m-115.7 1.9c.3.8.2 1.2-.4.9s-1-1-1-1.6c0-1.4.7-1.1 1.4.7m144.7 2.1c-1.2 2-1.4 1.4-.5-1.2.4-.9.9-1.4 1.1-1.1.3.2 0 1.3-.6 2.3m-29.1 1.8c-.7.8-2 1.5-2.9 1.4-1.1 0-.9-.3.7-.9 1.2-.5 2.2-1.5 2.2-2.1 0-.7.3-.9.6-.6.4.4.1 1.3-.6 2.2m-82.1 2.1c1 .9-4.5.3-5.9-.6-1.1-.7-.5-.8 2-.4 1.9.4 3.7.8 3.9 1m76.3 8.8c-.3 9.2-.3 9.5 2 9.9 2.1.4 2 .4-.4.6l-2.8.1v-9.3c0-7.6.4-10.7 1.4-10.7.1 0 0 4.2-.2 9.4m33.1-7.9c-.3.9-.8 1.4-1 1.1-.3-.3-.2-.9.2-1.5.9-1.6 1.5-1.3.8.4m-70.9 1.7c1 3.8.7 4.8-1.4 4.8-1.5 0-2-.7-2-2.8 0-4.5 2.3-5.9 3.4-2m-64.6 8.3c-.3.3-.9-.2-1.2-1.2-.6-1.4-.5-1.5.5-.6.7.7 1 1.5.7 1.8m130.3.8c-1 .9-1.1.8-.5-.6.3-1 .9-1.5 1.2-1.2s0 1.1-.7 1.8m-128.3 3.2c-.3.3-.9-.2-1.2-1.2-.6-1.4-.5-1.5.5-.6.7.7 1 1.5.7 1.8m2.6 4.1c.3.8.2 1.2-.4.9s-1-1-1-1.6c0-1.4.7-1.1 1.4.7m120.7 1.7c-1 .9-1.1.8-.5-.6.3-1 .9-1.5 1.2-1.2s0 1.1-.7 1.8m-104.8.5c-1 1-2 1.7-2.2 1.6-.6-.5 2-3.4 3-3.4.5 0 .1.8-.8 1.8m5.4-1.2c-.3.3-1.2.4-1.9.1-.8-.3-.5-.6.6-.6 1.1-.1 1.7.2 1.3.5m83.5 5.6c-.8.8-.9.4-.5-1.3.4-1.3.8-1.8 1.1-1 .2.7-.1 1.8-.6 2.3m-85.1 3.6c-1.3.2-2.7 0-3.2-.5-.6-.6.3-.7 2.3-.4 2.8.4 2.9.6.9.9m82.4-.8c-.3.5-1.5 1-2.5 1-1.4 0-2 .9-2.3 3.7l-.4 3.8.1-4c.1-3.3.5-4 2.6-4.6 1.4-.4 2.6-.7 2.8-.8s0 .3-.3.9m-56.2 1.8c7 .2 10.7.7 10.5 1.4-.4 1-25.7 1.3-26.7.3-1-1.1 2.3-3.5 3.8-2.8.9.4 6.5.9 12.4 1.1m42.6 1.6c-1 .9-26 1.2-26.6.3-1.1-1.8 1.8-2.4 9-2 4 .3 9 0 11.2-.5 3.6-.8 8.1.7 6.4 2.2m27.1-3c0 .2-.8 1-1.7 1.7-1.6 1.3-1.7 1.2-.4-.4s2.1-2.1 2.1-1.3M86 157q0 3-1.5 3c-1.8 0-3-2.4-2.1-4.5 1-2.8 3.6-1.7 3.6 1.5m-4.8 4.8c.4.4-6.6.6-15.5.4s-16.5-.6-16.9-1 6.6-.6 15.5-.4 16.5.6 16.9 1m39.5-1.2c-.3.3-1.2.4-1.9.1-.8-.3-.5-.6.6-.6 1.1-.1 1.7.2 1.3.5m-10.4 1.1c-4 .2-10.6.2-14.5 0-4-.1-.8-.3 7.2-.3s11.2.2 7.3.3M87 163c-.8.5-2.2.9-3 .9-1 0-.8-.3.5-.9 2.7-1.2 4.3-1.2 2.5 0m-41.1 6.3c-.2.2-1.7-1.2-3.3-3.2l-3-3.6 3.4 3.2c1.9 1.8 3.2 3.4 2.9 3.6m83.4-3.9c-1 1.3-2 2.2-2.2 2-.4-.4 2.9-4.4 3.6-4.4.2 0-.4 1.1-1.4 2.4m-10.8 11.7c-4.4 4.4-10.2 9.9-13 12.2-2.7 2.3.6-1.3 7.5-8 14.2-13.8 17.5-16.4 5.5-4.2m-62 2.9c4.9 4.9 8.7 9 8.5 9-.3 0-4.6-4.1-9.5-9-4.9-5-8.7-9-8.5-9 .3 0 4.6 4 9.5 9m13.6 12.7 2.4 2.8-3-2.5c-1.6-1.4-3.2-2.6-3.4-2.8-.2-.1 0-.2.6-.2.5 0 2 1.2 3.4 2.7m29.9.7c0 .2-1.9 1.9-4.2 3.6l-4.3 3.2 4-3.6c4-3.6 4.5-3.9 4.5-3.2M75.5 197c1 1.1 1.6 2 1.3 2s-1.3-.9-2.3-2-1.6-2-1.3-2 1.3.9 2.3 2m8.5 6.6c0 .3-1.3-.4-3-1.6-1.6-1.2-3-2.4-3-2.6 0-.3 1.4.4 3 1.6 1.7 1.2 3 2.4 3 2.6m5-1.6c-1.4 1.1-2.9 2-3.5 2-.5 0 .4-.9 2-2 3.8-2.5 4.8-2.5 1.5 0M29.5 42.4c.9 1.3 2.4 5.4 3.5 9.2 3.2 11 4.3 10.7 7.5-2 .9-3.7 1.9-7.5 2.2-8.2.3-.9-.2-1.4-1.2-1.4-1.2 0-1.6.6-1.2 2 .6 2.5-2.2 12.5-3.3 11.3-1.5-1.5-4-10.2-3.4-11.8.5-1.1-.1-1.5-2.5-1.5-3.1 0-3.1 0-1.6 2.4M54 39.8l-3.5.3V60h5.3c4.7 0 5.2-.2 5.2-2.2s-.1-2-1.9-.4c-3 2.7-5.5 1.7-5.9-2.3-.5-4.9.3-6.4 2.8-5.1 1.7.9 2 .8 2-.8 0-1.5-.5-1.8-2.5-1.4-2.1.4-2.5.1-2.5-1.9 0-4 1.6-5.6 4-4.1 1.7 1 2 1 2-.2 0-1.9-.8-2.2-5-1.8m54.5 9.9c0 5.7.3 10.3.7 10.3.3 0 1.3.3 2.2.6 1.4.5 1.5-.1 1-4.2-.6-5.3-.3-5.3 4.7 1.8 2.7 3.7 3.1 1.5.7-3l-2.3-4.1 2.3-1.6c4.8-3.4 2.3-8.6-4.5-9.5l-4.8-.6zm8.5-6.2c1.2 2.3 1.2 2.8-.7 4.7-2.7 2.6-4.3 1.6-4.3-2.6 0-5.3 2.7-6.4 5-2.1m13.9-3.8c-.1.5 0 4.2.1 8.5s-.3 8.6-1 9.8c-1.4 2.7-.8 3.4 2.2 2.7 3.8-1 3.4-21.6-.4-21.7-.5 0-.8.3-.9.7m-67.2 78.5c-.5 1.9.8 2.5 1.8.8.3-.6 1.3-1 2.1-1 1.7 0 2 13.9.4 17.1-.9 1.7-.7 1.9 1.7 1.9h2.8l-.3-9.5c-.2-6.3 0-9.5.7-9.5.6 0 1.1.4 1.1 1 0 .5.5 1 1 1 .6 0 1-.8 1-1.8 0-2.6-11.7-2.6-12.3 0m33.9.1c-3 2.2-1.7 6.8 2.7 9.6 2.5 1.7 3.7 3.2 3.7 4.8 0 3.3-2.6 4-5.4 1.4-1.4-1.3-2.6-1.8-3-1.3-2.6 4.2 7.3 5.8 10 1.7 2.1-3.2.9-6-4.1-9.3-1.9-1.2-3.5-2.9-3.5-3.7 0-2 2.8-3.1 4.3-1.6 1.7 1.7 2.7 1.3 2.7-.9 0-2.4-4.5-2.8-7.4-.7m649.2-92.5c-9.3.1-16.8.6-16.8 1s1.5 1.4 3.3 2.2l3.2 1.5v70l-3.2 1.5c-5.5 2.5-3.8 3 11 3.2 7.8.1 16.2.2 18.7.3 20 .6 36.9-8.4 44.2-23.4 4.6-9.4 4.8-24.3.5-33.6-8.6-18.6-21.5-23.4-60.9-22.7m31 7.4c12.1 4.5 19.5 16.4 19.5 31.8.2 23.4-12.9 35.5-37.4 34.8l-9.4-.3-.3-34.2-.2-34.2 4.7-.4c7.8-.6 17.4.4 23.1 2.5M207 26.7c0 .5 1.4 1.6 3 2.5l3 1.7v34.4c0 32-.1 34.5-1.8 36-1 1-2.4 1.7-3 1.7-.7 0-1.2.4-1.2 1s4.8 1 12.5 1c13.1 0 14.4-.4 9.5-3.2l-3-1.7V67h45v16.3c0 17-.7 19.7-4.8 19.7-.7 0-1.2.4-1.2 1s4.8 1 12.5 1 12.5-.4 12.5-1-.6-1-1.3-1c-4.5 0-4.8-1.9-4.8-37.5 0-34.8.1-35.7 4.2-37 4.9-1.6.9-2.5-10.6-2.5-13.1 0-14.4.4-9.5 3.2l3 1.7V61h-45V30.9l3-1.7c4.9-2.8 3.6-3.2-9.5-3.2-6.9 0-12.5.3-12.5.7m132 .4c0 2.8-27 68-29.6 71.6-1.3 1.7-3.3 3.5-4.4 3.8-4.8 1.5-1.2 2.5 9 2.5 6.7 0 11-.4 11-1s-.6-1-1.3-1c-1.7 0-4.7-3.2-4.7-5.1 0-.8 1.4-5.1 3.2-9.7l3.2-8.3 15 .3 15.1.3 3.3 8.2c3.7 8.8 3.7 12.7.2 13.8-5.1 1.6-1 2.5 11.5 2.5 13.8 0 15.7-.5 10.6-2.8-1.6-.7-3.6-2.3-4.3-3.5-1.8-2.7-28.1-63.8-29.7-69-1.1-3.3-1.6-3.7-4.7-3.7-1.9 0-3.4.5-3.4 1.1m7.4 31.9c3.1 7.4 5.6 13.8 5.6 14.2 0 .5-5.4.8-12.1.8-9.3 0-12-.3-11.6-1.3 7.5-19.4 11.3-28.5 11.8-27.9.3.4 3.1 6.8 6.3 14.2M396 26.9c0 .6.6 1.1 1.3 1.1.8 0 2.3 1 3.5 2.3 3.3 3.5 3.4 67 .2 70.5-1.2 1.2-2.7 2.2-3.5 2.2s-1.5.4-1.5 1 5 1 13 1 13-.4 13-1-.6-1-1.3-1c-.8 0-2.3-1-3.5-2.3-2.1-2.2-2.2-3.3-2.2-17.4V68.2l4.3.9c7 1.6 8.7 3.3 24 23.9 8.5 11.5 12.1 13.4 24.5 13.1 4.5-.1 5.6-1.5 2-2.6-3.7-1.1-8.4-6.2-19.4-20.8C444.6 75.2 439.5 69 439 69c-2.5 0-.6-1.9 3.6-3.5 17.8-6.8 19.2-29 2.3-36.6-5.1-2.3-6.6-2.4-27.1-2.7-15-.2-21.8 0-21.8.7m39 5.6c6.4 3.4 9 7.8 9 15.3 0 10.8-6.8 16.2-20.7 16.2H415V31.1l3.8-.4c5.3-.6 13.3.3 16.2 1.8m35-5.4c0 .4.8 1 1.8 1.3 4.2 1.4 7.7 7.7 21 38.1 18.4 42.2 17.1 39.5 20.1 39.5 2.4 0 3.1-1.1 8-13.3 22.3-54.6 25.7-61.6 30.7-63.9 4.4-2 2.5-2.6-8.6-2.5-11.5.1-12.6.4-8.5 3.1 3.7 2.5 3.3 4.8-5.1 25.4-4.2 10.3-8.8 21.6-10.2 25.2-4.1 10.6-2.2 12.9-16.7-20.5-11.6-26.6-11.7-27.1-8.2-29.9 1.5-1.2 2.7-2.4 2.7-2.8 0-.3-6.1-.5-13.5-.5s-13.5.3-13.5.8m116 .3c0 1.3-11.5 30.4-23.4 59-4.5 10.8-7.3 15-10.8 16.2-4.6 1.4-.9 2.4 9.2 2.4 6.7 0 11-.4 11-1s-.7-1-1.5-1-2.2-1.1-3-2.4c-1.5-2.2-1.4-2.9 1.1-9.7 1.4-4.1 2.8-8.2 3.1-9.2.5-1.5 2.1-1.7 15.7-1.7h15.1l3.3 7.9c3.8 8.9 3.9 13.1.5 14.6-4.5 2-2.1 2.5 11.2 2.5 8.3 0 13.5-.4 13.5-1s-.6-1-1.3-1c-3.4 0-7.3-7.1-19.8-36-7.2-16.8-13.9-32.8-14.9-35.5-1.6-4.7-1.9-5-5.3-5.3-2.8-.2-3.7.1-3.7 1.2m7.4 31.6c3.2 7.7 5.6 14.3 5.4 14.6-.3.2-5.7.3-12 .2l-11.6-.3 5.6-14.3c3-7.8 5.8-14.2 6.2-14.2.3 0 3.2 6.3 6.4 14M642 26.9c0 .6.6 1.1 1.3 1.1s2.3.9 3.5 2c3.3 3.1 3.5 67.7.2 71-1.1 1.1-2.7 2-3.5 2s-1.5.4-1.5 1 5 1 13 1c7.2 0 13-.3 13-.8-.1-.4-1.5-1.6-3.3-2.7l-3.2-2-.3-15.7-.2-15.6 4.2 1c7.5 1.6 9.2 3.2 19 17.3 10.6 15.3 14.8 19 21.8 19.5 9.7.7 15.8-.8 9.6-2.4-3.5-.9-9.8-7.7-19.3-20.9-4.7-6.5-9.4-12.3-10.4-13-2.8-1.7-2.4-2.2 2.7-4.2 17.5-6.7 19.4-27.7 3.1-36.2-5.2-2.8-5.4-2.8-27.4-3.1-15.6-.3-22.3 0-22.3.7m40.2 6.2c4.9 2.5 7.8 8.1 7.8 15 0 10.7-6.8 15.9-20.8 15.9H661V31.1l3.8-.4c5.9-.7 13.4.4 17.4 2.4m-370.3 111c1.9 1.8 2.1 3 2.1 16 0 10.8.4 14.7 1.6 17 4.6 9 26.2 9 30.8 0 1.2-2.3 1.6-6.2 1.6-17 0-13 .2-14.2 2.1-16l2.1-2h-11.4l2.1 2c1.9 1.8 2.1 3 2 14.2 0 14.7-1.1 18.6-5.9 20.9-5.9 3-11.6 2.4-15.6-1.6l-3.4-3.4v-14.3c0-11.6.3-14.6 1.6-16 1.5-1.7 1.2-1.8-5.1-1.8h-6.7zm51.9-.1c2.1 2 2.2 2.7 2.2 19.5 0 15.3-.2 17.5-1.7 18.3-1.2.7-.4 1.1 3.5 1.3 2.9.2 5.2.1 5.2-.4 0-.4-.7-.7-1.5-.7-1.3 0-1.5-2.4-1.5-15.2 0-12.7.2-15 1.3-13.8.8.8 6.2 7.3 12.2 14.5 6 7.1 11.8 13.8 12.9 14.7 4.4 3.7 4.6 3 4.6-17.4 0-16 .3-19.4 1.6-20.9 1.4-1.6 1.2-1.7-3.6-1.7-4.9-.1-5.1 0-3.6 1.7 1.3 1.4 1.6 4.3 1.6 16v14.2l-13.3-15.8c-13.2-15.7-13.2-15.8-17.7-16.1l-4.5-.3zm54.7 0c2.4 2.7 2.2 36.5-.2 37.9-1.4.8 0 1 5.2 1s6.6-.2 5.3-1c-2.5-1.4-2.7-35.2-.3-37.9 1.3-1.5.9-1.6-5-1.6s-6.3.1-5 1.6m19.5.3c1.2 1.2 4.8 8.3 8.1 15.7 9.3 21.2 10.8 24 12.1 24 .7 0 4.9-8.6 9.2-19.1 4.5-10.8 8.7-19.6 9.8-20.2 3-2 2.1-2.6-3.7-2.5-5.2.2-5.4.3-3.8 2 1.5 1.7 1.3 2.8-4.1 16.4-3.2 8-6 14.4-6.2 14.2-.1-.2-3-6.8-6.4-14.7-5.8-13.4-6-14.4-4.5-16.1 1.6-1.7 1.3-1.8-5.4-1.8H436zm48.8-.6c2.1 1.5 2.2 2 2.2 18.9 0 15.8-.2 17.5-1.9 19.1-1.9 1.7-1.4 1.8 12.7 1.8 16 0 16 0 16.1-5.8l.1-2.8-2.4 2.8c-2.2 2.5-3.1 2.8-10.5 3.1l-8.1.4V163h6.4c5.6 0 6.7.3 8 2.2 1.5 2.1 1.6 2 1.6-3.2-.1-4.2-.3-5.1-1.1-3.8-.8 1.5-2.4 1.8-7.9 1.8h-7v-15h7c6.2 0 7.4.3 9.5 2.5l2.5 2.4V142l-14.7.1c-13.7 0-14.6.1-12.5 1.6m42-.1c2.1 1.5 2.2 2.1 2.2 18.4 0 17.6-.3 20-2.6 20-.8 0-1.4.3-1.4.7 0 .5 3 .6 6.7.5 4.9-.3 6.3-.6 5-1.3-1.4-.8-1.7-2.5-1.7-9.4 0-4.7.3-8.5.6-8.5 2.8 0 7.7 4.1 11.9 10.1 5.3 7.6 8.5 9.9 13.7 9.9l3.3-.1-2.8-2c-1.5-1.2-4.8-4.9-7.2-8.4-2.5-3.4-5.2-6.8-6-7.5-1.9-1.6-1.9-3 0-3 3.5 0 7.8-5.4 7.8-9.9 0-8.3-5.5-11.1-21.8-11.1-9.3 0-9.8.1-7.7 1.6m20.2 3.3c1.9 1.4 2.6 2.8 2.8 6.3.4 6-2.7 8.8-9.9 8.8H537v-8.4c0-8 .1-8.5 2.3-8.9 3.2-.6 6.9.3 9.7 2.2m29.5-4c-3.8 1.6-6 5.1-6 9.6 0 5.3 2.7 8.5 10 12.2 6.9 3.4 10.5 7.1 10.5 10.4 0 7.5-12.7 9.4-18.2 2.8l-2.8-3.3v8.2l6.3 1.2c14.5 2.7 24.2-5.2 19.1-15.7-1.5-3-3.5-4.6-9.8-7.8-8.6-4.6-9.9-6-9.4-10.8.6-6.4 10.2-7.4 16-1.7l2.8 2.8V147c0-3.4-.3-3.8-3.1-4.4-4.3-.8-13-.7-15.4.3m31.5.2c0 .4.7.9 1.5 1.3 2.4.9 2.2 36.1-.2 37.5-1.4.8-.9 1.1 2.7 1.2 2.5 0 5.5.2 6.8.3 2.2.3 2.2.3.2-1.6-3.1-2.9-3.1-34.7 0-37.6 1.9-1.8 1.9-1.8-4.5-1.8-3.6 0-6.5.3-6.5.7m19 3.2.1 4.2 1.8-2.3c1.6-1.8 2.9-2.2 8-2.2h6.1v17.4c0 16.4-.1 17.4-2.1 18.7-1.8 1.3-1.3 1.4 5 1.4 3.9 0 7.1-.3 7.1-.8 0-.4-.6-.7-1.4-.7-2.3 0-2.6-2.4-2.6-19.6V146h6.4c5.5 0 6.6.3 7.9 2.2 1.6 2.3 1.6 2.2 1.6-1.9l.1-4.2h-38zm43.7-1c1.5 1.8 5 6.9 7.8 11.5 4.8 7.8 5.2 8.2 8.6 8.2 3.5 0 3.8-.3 8.4-8.3 2.6-4.5 6.1-9.6 7.8-11.4l2.9-3.1h-5.1c-4.6-.1-4.9.1-3.9 1.7.9 1.5.3 3.2-3.1 9.4-2.3 4.2-4.5 7.9-4.9 8.1-1.5.9-9.3-13.8-8.8-16.6l.5-2.7h-13zM686 174c0 5.5-.3 7.1-1.7 7.9s-.3 1 4.5 1.1c5.8 0 6.2-.1 4.8-1.6-1.1-1.1-1.6-3.5-1.6-8V167h-6z"/></svg>