<svg fill="black" xmlns="http://www.w3.org/2000/svg" width="1061.333" height="289.333" viewBox="0 0 796 217"><path d="M86.5 85.6c-26.1 60.5-37.9 86.7-40.2 89.3-4 4.8-8.7 6.1-21.5 6.1l-9.3.1L8 198.2c-4.1 9.4-7.6 17.5-7.8 18-.2.4 53.8.8 120 .8h120.3l7.2-16.4c4-9 7.6-17.1 7.9-18 .6-1.5-6.5-1.6-83-1.6-47.8 0-83.6-.4-83.6-.9s16.9-40.2 37.6-88.2c20.7-48.1 38-88.4 38.5-89.7L166 0h-42.5zM631.5 2c.4 1.1 3.5 9 7 17.5l6.4 15.4-14.7 33.2-14.7 33.2-.7-8.4c-1.9-24.8-18.4-45.7-43-54.7-7.2-2.7-7.6-2.7-38-3-17-.2-30.8 0-30.8.4 0 .3 3.2 6.6 7 13.9l7 13.3 21.8.4c21.1.3 21.9.4 27.4 3 22.4 10.5 27.5 39.2 10.1 56.6-6.2 6.1-13.6 9.3-23.3 9.9l-8 .6-.2-28.4-.3-28.4-13.7-.3-13.8-.3V161h21.8c30.3 0 38.3-2.3 56-16.3 1.5-1.1 1 .1-3.2 9.6-1.4 3.2-2.6 6-2.6 6.2 0 1.5 27.4.4 30.7-1.2 5.4-2.5 8.8-8.8 25.9-47.6 8.6-19.6 16-35.7 16.4-35.7.6 0 45.1 102.9 45 104.2 0 .5-37.6.8-83.6.8-76.5 0-83.6.1-83 1.6.3.9 3.9 9 7.9 18l7.2 16.4h120.3c66.2 0 120.2-.4 120-.8-.1-.5-3.7-8.5-7.8-17.9l-7.5-17.1-11.6-.4c-13.7-.5-16.8-1.8-21.4-9.2-1.6-2.7-19-42.3-38.6-88L673.3.5 652.1.2c-21-.2-21.2-.2-20.6 1.8M166.1 36.2c-.5 1.3-3.2 7.4-6 13.7-2.8 6.2-5.1 11.5-5.1 11.7s3.6.4 8 .4 8 .4 8 .9c0 .6-9.4 22.4-21 48.6-11.5 26.2-21 48-21 48.5 0 1.4 23.9 1.3 28.1-.1 7.5-2.6 8-3.3 27.9-48.4 8.9-20.4 16.4-37.1 16.5-37.3.1-.1 7.9 17.2 17.4 38.5 9.4 21.4 18.2 40.2 19.6 41.9 4.4 5.6 8.2 6.4 30.5 6.4h20l.2-30.2.3-30.2 11.5 25.9c8.4 18.9 12.4 26.7 14.8 29.1 8.5 8.3 25.9 6.6 32.1-3.2 1.5-2.3 7.4-14.9 13.1-28l10.5-23.9.3 30.3.2 30.2h29V33.7l-9.9.5c-18.8.9-19.3 1.6-42.2 53.4-9.5 21.8-17.6 39.7-17.9 39.9s-7.5-15.5-16-34.8c-27.4-62.8-22.7-58-57.2-58.5-16.8-.3-22.8-.1-22.8.8 0 .6 3 7 6.8 14.1l6.7 12.9H260v32.2c0 17.7-.2 31.9-.4 31.7s-7.4-16.4-16.1-35.9c-26.4-59.5-22.8-56-58.1-56-18.2 0-18.5 0-19.3 2.2m249.1 12.5.3 13.8 22.8.5c21.2.5 23 .6 24.3 2.4 1.9 2.7 1.8 5.9-.3 8.5-1.7 2-2.8 2.1-24.3 2.4l-22.5.2v84l26.5.3c15.5.1 28.5-.2 31.3-.8 32.1-6.8 44.2-45.8 21.8-70.2l-5.2-5.7 1.1-4.3c4.1-15.2-2.2-31.9-15-39.6-8.2-4.9-10.5-5.2-36.8-5.2h-24.3zm56.5 58.3c6.4 3.9 8.5 10.5 5.5 17.4-3 6.7-6.2 8-20.9 8.4l-12.3.4V105h12.3c10.3 0 12.7.3 15.4 2m-176.3 75.9c-4.4 2-8.4 8.4-8.4 13.2.1 4.1 3.7 10.8 7.2 12.9 4.4 2.8 14.8 2.4 17.8-.6l2-2-2.4-2.3c-2.3-2.2-2.6-2.2-4.8-.7-3.3 2.3-5.6 2-8.9-1.3-3.7-3.8-3.9-8.2-.4-11.6 2.6-2.7 8.2-3.4 10.3-1.3 1 1 1.8.7 3.8-1.4l2.6-2.6-2.6-1.7c-4-2.7-11.3-2.9-16.2-.6m135-.5c-3.8 1.7-6 6.4-4.7 10.3.9 2.7 2.3 3.7 8.8 6.5 4.2 1.9 4.8 5.8.8 5.8-1.6 0-3.8-.6-4.9-1.4-1.7-1.3-2.2-1.2-4.1.6-3 2.8-2.9 3.4.7 5.3 7.5 3.9 17.3.8 18.6-5.9.9-4.8-.9-7.3-7.2-10.1-4.1-1.8-5.5-2.9-5.2-4.2.4-2.1 4.5-3 6.1-1.4 1.7 1.7 3 1.3 5-1.5l1.8-2.4-3.5-1.5c-4.3-1.8-8.1-1.8-12.2-.1m44-.4c-5 2-7.2 10.1-3.6 13.3.9.8 3.9 2.5 6.5 3.6 3.5 1.5 4.8 2.6 4.5 3.8-.4 2.2-4.8 2.9-7.9 1.3-3.2-1.8-7.2 2.1-4.7 4.6 3.4 3.4 14.2 3 17.8-.6 4.9-4.9 1.9-12-6.3-15-4.9-1.8-6.1-4.6-2.4-5.5 1.4-.4 3.5-.1 4.7.5 2.1 1.1 6-.9 6-3.1 0-2.8-10-4.8-14.6-2.9m-138.2 14.2.3 14.3h18v-3c0-2.9-.2-3-5.2-3.3l-5.3-.3V182h-8.1zm43.6-.4c-3.2 7.6-5.8 14.1-5.8 14.5s1.6.7 3.6.7c3.1 0 3.7-.4 4.7-3 1.1-2.8 1.4-3 6.7-3s5.6.2 6.7 3c1 2.6 1.6 3 4.7 3 4.6 0 4.6.4-2-15.5l-5.7-13.5h-7.2zm12.1 2.4c.1.5-1.2.8-2.9.8-3.5 0-3.5.1-1.4-4.8l1.6-3.7 1.3 3.5c.8 1.9 1.4 3.8 1.4 4.2"/></svg>