<svg fill="black" xmlns="http://www.w3.org/2000/svg" width="1050.667" height="214.667" viewBox="0 0 788 161"><path d="M3 4-.1 6.9l.3 43.3C.4 80 .9 94.1 1.6 95.5c.6 1.1 1.9 3.8 2.9 6 2.9 6.7 8.7 13.4 15.5 17.9 9.6 6.4 11.5 6.8 31.7 7.3l18.1.5 2.7-2.6c2.1-2.1 2.5-3.3 2-5.4-1.3-5.5-3.6-6.2-19.5-6.1-23 .1-30.8-3.1-37.5-15.2l-3-5.4-.5-43.8-.5-43.8L11 3C7.6.4 6.7.5 3 4m373 9.6c-6.3 6-7.3 8.6-4 10.4 2.3 1.2 4.5.3 7.4-2.9 2.5-2.8 3.2-2.7 7.3 1 3.2 2.7 3.7 2.9 5.6 1.6 3.4-2.2 3.1-3.3-1.9-8.7-7.5-8-7.5-8-14.4-1.4M110.5 38C88.8 42.9 74 61.3 74 83.4c0 4.1.5 7.8 1 8.1.6.3 1 1.4 1 2.4 0 6.8 13.5 23.2 23.1 28.1 13.2 6.8 31.3 6 42.7-1.8 5.3-3.6 5.7-4.2 5.7-7.7 0-5.1-4.3-8.8-7.8-6.5-7.9 5.1-10.9 6-20.4 6-8.9 0-16.3-1.7-16.3-3.7 0-.5 10.8-11.6 24.1-24.8 28.5-28.4 28-27.8 23.4-33.2-4.1-4.9-15-10.7-22.5-12.2-3-.6-6.4-1.2-7.5-1.5-1.1-.2-5.6.4-10 1.4M132 53.6c2.2.9 4 1.9 4 2.2 0 1.4-42.3 42.3-43.3 41.9-.7-.2-1.6-1.7-2.1-3.3-.4-1.6-1.2-3.7-1.7-4.6-1.1-2.1-1.2-14.2-.2-15.2.4-.3.8-1.6 1-2.7.8-5.4 9.9-15.5 16.6-18.4 4.6-2 20.5-2 25.7.1m56.4-14.7c-1.8.4-5.2 1.9-7.7 3.3-2.9 1.6-5 2.2-5.8 1.7-2.4-1.5-4-1-7 2.2l-2.9 3.1v72l2.9 2.9c3.7 3.7 5.5 3.7 9.2-.1l3-2.9-.1-28.3c0-15.6 0-28.8.1-29.3.1-.6.1-1.3 0-1.7 0-.4 1.6-2.5 3.7-4.7 6.4-6.8 15.9-6.8 22.3-.1 4.7 4.9 4.9 6.2 4.9 38.6 0 29.9.2 30.6 6.5 30.6s6.4-.4 6.7-33.7c.3-33.5.2-32.7 7.1-37.9 4-2.9 12.1-2.8 17.1.3 6.3 4 6.6 5.5 6.6 37.8.1 30.4.1 30.7 4.8 33.2 3.1 1.7 6 .5 8.3-3.2 1.7-3 1.9-5.3 1.9-29.7 0-27.7-.4-31.1-4.8-39.6-8.1-15.8-29.9-19.7-44-7.9-3.6 3-4.4 3.1-6.8.4-4.9-5.5-18.1-9-26-7m128.1 0c-4.3.8-11.8 4-15 6.4-1.8 1.4-2.2 1.3-4.8-.5-3.6-2.6-7.2-1.7-9.2 2.2-1.6 3.1-2.1 69.4-.6 75 .8 3 5.3 5.4 8.2 4.5 5.4-1.7 5.9-4.8 5.9-33.3-.1-30.1.3-31.8 9-37.7 4.1-2.7 5.2-3 12.5-3 9.2 0 13.2 1.8 18.1 8.3l2.9 3.7.5 28.8.5 28.9 2.9 2.5c2.2 1.8 3.5 2.3 5.5 1.8 5.3-1.4 5.2-.5 4.9-33.4l-.3-30.6-2.9-4.5c-9.1-14.3-23.7-21.6-38.1-19.1m111 0c-19 4.7-27.3 25.7-16 40.5 2.9 3.8 11.1 8.6 14.8 8.6 1.4 0 2.9.4 3.2 1 .4.6 6 1 13.6 1 12.5 0 13.1.1 15.4 2.5 3.6 3.5 3.6 13.1.1 17.2l-2.4 2.8-20.4.3-20.3.3-2.7 2.7c-3.6 3.4-3.5 5.4.4 8.7l3.2 2.7 20-.4 20.1-.3 6.1-3.3c7.1-3.9 9.8-7.1 12.4-15 2.2-6.4 2.4-8.5 1.1-11-.5-.9-1.4-3.5-2-5.7-1.8-6.4-8.6-12.7-15.9-14.7-2-.6-9.1-1.1-15.7-1.2s-12.9-.5-14-.8c-1.1-.4-2.4-.7-2.8-.7-.4-.1-1.9-1.2-3.1-2.6-4.3-4.6-1.3-16.4 4.7-18.4 1.6-.6 10.8-1.1 20.4-1.1 17.1 0 17.4 0 19.8-2.5 1.4-1.3 2.5-3.4 2.5-4.5s-1.1-3.2-2.5-4.5c-2.4-2.5-2.6-2.5-19.7-2.4-9.5.1-18.6.4-20.3.8m92.9.1c-13.9 2.9-27.8 15.6-32.4 29.5-11.8 35.5 25.2 69.7 58.5 54 4.1-2 11.2-7.9 26-21.6C583.7 90.5 593.1 82 593.4 82s.6 1.7.6 3.7 1 6.4 2.1 9.7c7.4 20.8 27.4 33.6 48.2 30.7 15.8-2.2 24.1-9.9 17.5-16.1-2.8-2.5-4.1-2.5-9.7.2-6.4 3.2-20.5 3.2-27.2.1-15.6-7-22.3-27.1-14.4-42.7 5.7-11.3 15.1-16.6 28.7-16.1 13.2.4 21.9 5.9 27.5 17.4 2.7 5.6 2.8 5.8 3.1 29.6.4 26.2.7 27.5 6.2 27.5 6.2 0 6.5-.8 6.8-23 .2-11.3-.2-23.3-.8-27.2-2.2-14.4-11.1-26.1-25.3-33.3-7.6-3.8-8.2-3.9-18.1-4-5.9 0-11.3.5-12.7 1.2-1.3.6-4.6 2.1-7.4 3.4-5.5 2.6-6.1 3-44.2 38.8-29.7 27.8-34.1 31.1-43.4 31.4-26.3 1.2-41.7-29.5-25.1-50.1 10.4-13 29.9-15.4 44.1-5.2 3.6 2.5 7.3 2.6 9.4.2 9.1-10-18.4-23.6-38.9-19.2m212-.3c-1.7.2-6.6 2.1-10.8 4.2-6.3 3.2-7.6 3.6-7.6 2.2 0-5.2-8.1-7.8-11.8-3.8l-2.2 2.3v110.5l2.5 2.4c3 3.1 5.4 3.1 8.9.4l2.7-2.1-.3-18.4c-.3-16.6 0-20.1 1.6-17.6 1 1.7 11.4 6.1 18.1 7.8 20.7 5 44.7-10.7 51.2-33.5 2.1-7.6 2.7-12.9 1.5-14.4-.5-.6-1.2-3.1-1.6-5.5-1-6.7-6.2-16-12.5-22.2-10.6-10.5-23.1-14.4-39.7-12.3m22.9 15.7c7.5 3.7 16.4 15.4 15.9 21 0 1.1.4 2.6 1 3.3s.7 2.7.4 4.5c-.4 1.8-.8 4.4-1 5.8-3.2 22.8-35.4 32.3-52.2 15.5l-5.4-5.4V66l4.1-4.5c6.9-7.4 12.6-9.7 23.9-9.3 6.7.2 10.6.9 13.3 2.2M377.9 42.1l-2.9 3.1v38.2c0 34.6.2 38.3 1.8 40.3 2.8 3.6 6.7 3.9 9.6.9l2.6-2.5V44.2l-3.1-2.6c-3.9-3.3-4.5-3.3-8 .5"/></svg>