<svg fill="black" xmlns="http://www.w3.org/2000/svg" width="1325.333" height="297.333" viewBox="0 0 994 223"><path d="M0 105v105h44V0H0zm72-33v72h44V0H72zm71.5-70.8c-.3.7-.4 47.9-.3 104.8l.3 103.5 22.3.3 22.2.2-.2-104.7L187.5.5 165.7.2c-16.9-.2-21.9 0-22.2 1M215 22v22h45l-.2-21.8-.3-21.7-22.2-.3L215 0zm72 0v22h111l-.2-21.8-.3-21.7-55.2-.3L287 0zM491.5 1.2c-.3.8-.4 11.9-.3 24.8l.3 23.5h11l.5-18c.5-17.2.6-17.8 1.7-12.5.7 3 2.8 11.1 4.6 18l3.4 12.5 5.2.3c6.1.4 5.3 1.9 10.7-19.8l3.9-15.5.5 17.5.5 17.5 5.8.3 5.7.3V0h-17.8l-4.3 17.9c-2.4 9.9-4.5 17.8-4.8 17.6-.2-.3-2.2-8.2-4.5-17.7L509.4.5l-8.7-.3c-6.5-.2-8.9.1-9.2 1M751 24.9V50h11V37.7c0-13.4 1.1-16.7 5.4-16.7 4.7 0 5.6 2.6 5.6 16.4v12.7l5.3-.3 5.2-.3V17.8l-3.3-2.9c-4-3.5-10-3.9-14.9-.9l-3.2 1.9-.3-7.7-.3-7.7-5.2-.3-5.3-.3zM915.8 8.2c-.3 4.9-.5 5.3-3 5.6-2.3.3-2.8.8-2.8 3.2s.5 2.9 2.8 3.2l2.7.3.5 12.6c.6 15.8 2.6 18.4 13.3 17.1 3.6-.4 3.7-.6 3.7-4.3 0-3.5-.3-3.9-2.5-3.9-3.5 0-4.6-3.5-4.3-13.4l.3-8.1 3.3-.3c2.8-.3 3.2-.7 3.2-3.2s-.4-2.9-3.2-3.2c-3.2-.3-3.3-.4-3.6-5.6l-.3-5.2h-9.8zm24 0c-.3 4.6-.6 5.3-2.5 5.6-3.5.5-3.3 6.2.1 6.2 2.4 0 2.4 0 2.8 13 .3 14.4.8 15.5 7 16.9 1.9.5 4.9.6 6.6.3 2.9-.4 3.2-.7 3.2-4.2 0-3.4-.3-3.8-3-4.4l-3-.6V20h3c2.7 0 3-.3 3-3s-.3-3-3-3c-3 0-3-.1-3-5.5V3h-10.9zm-379.4 5.2c-3.5 1.5-6.4 5.1-6.4 7.8 0 2.8 9.5 2.6 11-.2 1.3-2.4 7.1-2.8 9-.5 2.5 3.1.8 4.8-6.1 6.1C556.8 28.7 552 32.7 552 40c0 8.6 11.8 13.2 20.5 8.2 3.2-2 3.3-2 3.8-.1.4 1.5 1.4 1.9 4.9 1.9h4.4l-.4-15.8c-.2-8.6-.9-16.5-1.4-17.5-2.3-4.3-16.5-6.3-23.4-3.3M575 34c0 5.7-5.7 10.3-10 8-4-2.2-2.3-6.2 3.5-8.2 6.4-2.2 6.5-2.2 6.5.2m26.5-20.6c-4.5 2-6.7 5-7.2 9.9-.8 6.5 2 9.2 12.1 11.6 9.6 2.4 11 3.5 7.7 6.2-3.1 2.5-5.9 2.4-11.5-.6l-4.7-2.5-2.9 2.2c-3.5 2.5-3.6 3-1.2 5.1 3.3 3 9.5 4.9 15.8 4.9 9.9-.1 15.3-3.9 16.1-11.6.8-6.5-2.6-9.7-12.9-12-7.5-1.7-9.7-3.3-7.5-5.5 1.5-1.5 6.1-1.4 10.4.4 3.5 1.5 3.7 1.5 6.5-1.2 3.8-3.6 3.7-3.8-2.7-6.2-6.3-2.4-13.6-2.6-18-.7m37 .9c-7.5 4.2-8.4 14.6-1.6 18.1 1.4.8 5.1 1.9 8.2 2.5 6.7 1.4 9.3 3 8.4 5.3-1.3 3.4-8.5 3.3-13.7-.3-3.4-2.5-3.9-2.4-7.2 1l-2.8 2.9 3.9 2.7c9.3 6.1 25.7 4.5 29.1-3 3.8-8.3-.2-14.5-10.8-16.6-7-1.4-9.6-2.9-8.7-5.3.9-2.3 7.4-2.1 11.3.3l3.2 1.9 3.3-3.4 3.2-3.3-5.4-2.6c-7.1-3.3-14.8-3.4-20.4-.2m40-1.1c-3.8 2.1-6.5 5.2-6.5 7.5 0 3.2 8.8 3.5 10.8.3 1.7-2.8 7.7-2.8 9.2.1 1.6 3 .5 4.9-2.8 4.9-15.1 0-24.8 12.6-16.3 21.1 3.8 3.7 11.5 4.3 17.4 1.3 2.4-1.3 2.8-1.3 3.3.1.4 1 2 1.5 5.3 1.5h4.6l-.3-15.2c-.4-17-1-19-6.7-21.4-4-1.7-15.1-1.8-18-.2m13.8 22c-1.1 6.1-5.8 9-9.9 6.3-4.2-2.7-2.2-6.4 4.6-8.3 5.7-1.6 6-1.5 5.3 2m27.9-21.5c-12.7 6.2-13.5 27.3-1.4 34.1 7.8 4.4 17.9 2.8 23.8-3.5 3.1-3.4 3.1-3.6-1.2-5.6-3.6-1.8-3.6-1.7-6 .8-6.8 7.4-16.4-1.5-13.4-12.4 1.9-7 7.6-9.1 12.4-4.6l2.7 2.5 4-2 4-2.1-2-2.8c-4-5.6-15.9-7.9-22.9-4.4m120.5.3c-7.3 4-8.8 14.2-2.6 17.9 1.7 1 5.6 2.4 8.8 3s6.6 1.8 7.7 2.6c1.9 1.5 1.8 1.6-.6 3.6-2.8 2.4-7.7 1.9-12.1-1.2-3.4-2.4-3.8-2.4-7.1.6-3.5 3-3.5 3 1.1 6 12.3 8.2 30.1 2.9 30.1-8.9 0-5.8-3.6-9-12-10.7-7-1.4-9.6-2.9-8.7-5.3.9-2.3 7.4-2.1 11.3.3l3.2 1.9 3.2-3.3 3.2-3.3-4.3-2.3c-6.3-3.2-16.2-3.6-21.2-.9m41.3-.9c-13.5 5.4-14.6 28.9-1.8 35.5 6.7 3.5 17.8 1.7 23.6-3.9 4-3.9 4-4.2-.5-6.6l-3.8-1.9-3.8 3.5c-4.5 4-7.7 3.9-11.5-.4-4.5-5-3-5.8 10.7-6.1l12.4-.3-.6-5c-1.5-12.2-13.3-19.3-24.7-14.8m12.2 8.6c4 3.6 2.4 5.3-5.2 5.3s-8-.4-4.9-4.4c2.4-3.1 7.2-3.5 10.1-.9m75.1-8.3c-4 1.8-7.3 7-7.3 11.4 0 4.2 3.4 7.7 8.9 9.1 2.2.6 5.9 1.6 8.1 2.1 5 1.3 5.9 2.8 3 5.2-2.9 2.3-8 1.8-12.2-1.3-3.4-2.4-3.6-2.4-7.2.6-2.6 2.1-2.8 2.5-1.5 4.1 2.6 3.1 9.9 5.6 16.4 5.6 19.2 0 23.4-19.4 4.9-23.2-7.6-1.5-11-3.6-9.3-5.6 1.5-1.9 7.2-1.8 11.1.2 2.9 1.5 3.1 1.4 5.7-.8 1.4-1.2 3-2.6 3.5-3 .4-.3-1.1-1.6-3.5-2.9-5.6-2.8-16-3.6-20.6-1.5M793 27.4c0 8 .4 15.6 1 17 2.1 5.5 11 7.7 17.8 4.3 2.8-1.3 3.2-1.3 3.2-.1s1.2 1.4 5.3 1.2l5.2-.3.3-18.3.2-18.2h-11v12.9c0 12.3-.1 13.1-2.2 14.5-6.7 4.7-8.8 1.3-8.8-14.5V13h-11zM215 141v69h45V72h-45zm72 0v69h44V72h-44zm551.9-59.5c-2.8 1.5-4.9 6-4.9 10.1 0 1.9-.5 2.4-2.5 2.4-2.2 0-2.5.4-2.5 3.5s.3 3.5 2.5 3.5h2.5v29h10.9l.3-14.7.3-14.7 3-.1c2.6 0 3-.4 3.3-3.3.3-3.1.2-3.2-3.3-3.2-5.1 0-4.9-4.3.3-4.8 3-.3 3.2-.6 3.2-4.2 0-2.5-.5-4-1.6-4.4-2.7-1.1-8.8-.6-11.5.9m-347.2 23.7.2 24.3 6.1.3 6 .3V81h-12.5zM618 85v4h11v-8h-11zm-23 3.5c0 5.2-.1 5.5-2.5 5.5-2.2 0-2.5.4-2.5 3.5 0 3 .3 3.5 2.4 3.5 2.4 0 2.4 0 2.8 12.5.4 15.4 1.3 16.9 10.6 17h5.7l.3-4.2c.3-3.9.1-4.2-2.5-4.5l-2.8-.3-.3-10.3-.3-10.2h3.1c2.8 0 3-.3 3-3.5s-.2-3.5-3-3.5c-3 0-3-.1-3-5.5V83h-11zm44.8-.3c-.3 5-.5 5.3-3.1 5.6-4 .5-3.7 6.7.3 6.7h2.5l.3 12c.1 6.7.7 13 1.4 14.3 1.4 2.6 6.8 4.5 11.8 4 3.3-.3 3.5-.5 3.8-4.6.3-3.9.1-4.2-2.2-4.2-3.7 0-4.7-2.9-4.4-12.7l.3-8.7 3-.1c2.6 0 3-.4 3.3-3.2.3-2.9.1-3.2-3-3.5-3.2-.3-3.3-.4-3.4-5.3l-.1-5-5.1-.3-5.1-.3zm66.2.3c0 5.2-.1 5.5-2.6 5.5-2.3 0-2.5.3-2.2 3.2.2 2.5.8 3.3 2.3 3.3 1.9 0 2 .8 2.5 12.7.6 14.6 1.5 16.5 8.8 17.5 7.1 1 9.2-.1 9.2-4.7 0-3.6-.2-3.9-3.2-4.2l-3.3-.3-.3-10.3-.3-10.2h3.1c2.8 0 3-.3 3-3.5s-.2-3.5-3-3.5c-3 0-3-.1-3-5.5V83h-11zm-178.2 5.3c-3 1.6-3.8 1.7-3.8.6 0-1-1.4-1.4-5-1.4h-5v37h10v-12.3c0-13.8 1-16.7 5.9-16.7 4.7 0 5.1 1.3 5.1 15.7V130h11v-15.9c0-15.3-.1-16.1-2.3-18.7-3.2-3.6-10.6-4.4-15.9-1.6m35.7-.8c-8.6 2.7-12.1 13.7-6 18.6 1.6 1.3 5.5 2.8 8.5 3.4 7.3 1.4 10 2.6 10 4.5 0 4.1-9.4 4.3-14.4.4l-2.7-2.1-3.5 2.7c-4.1 3.1-3.6 4.3 3 7.8 3.1 1.6 5.9 2.1 11.1 2.1 11.1 0 16.6-4 16.7-12.4.1-5.9-2.8-8.5-12.1-10.8-7.8-1.9-11-4.4-8.1-6.2 2.3-1.5 6.2-1.2 10.2.9l3.7 1.8 3.2-3.3 3.3-3.4-4.8-2.1c-5.5-2.4-13.7-3.3-18.1-1.9m175.1 0c-9.8 3.1-14.7 18-9.5 28.6 4.9 10.2 20.1 12.4 29.4 4.3 4.4-3.9 4.4-5.1.1-7.4l-3.4-1.9-3.6 3.2c-2.1 1.8-4.8 3.2-6.2 3.2-3 0-7.4-4.1-7.4-7 0-1.9.6-2 12.6-2h12.7l-.7-4.6c-1.7-13-12.2-20.2-24-16.4m10.8 9.1c4.6 3.6 3.5 4.9-4.4 4.9-7.7 0-8.9-1.2-4.8-5 2.8-2.6 5.8-2.6 9.2.1m49.3-8.7c-17.8 6.6-14.7 34.4 4.1 37.2 13 2 23.2-6.4 23.2-19.1-.1-14.2-13.7-23.2-27.3-18.1m14.3 10.4c4 5 2.2 15.4-3.1 17.6-6.9 2.9-11.9-1.3-11.9-9.9 0-10.2 9.3-15 15-7.7m-194.8 7.4.3 18.3 5.3.3 5.2.3V93h-11zm44.8-3.3c0 17.2.6 19.6 5.5 21.6 4.6 2 8.3 1.9 12.8-.4 2.9-1.5 3.7-1.6 3.7-.5 0 1 1.5 1.4 5.5 1.4h5.5V93h-11v12.3c0 13.8-1 16.7-5.9 16.7-4.7 0-5.1-1.3-5.1-15.7V93h-11zM479 166v5h13v39h12v-39h13v-10h-38zm118 19.5V210h10l.1-10.8c.1-12.9.7-15.2 4.1-17.2 2.4-1.3 2.9-1.3 4.7.4 1.9 1.7 2.1 3 2.1 14.8V210h11v-15.4c0-17.4-.8-19.6-7.8-21.5-3.8-1.1-10.5 0-11.7 1.9-1.6 2.6-2.5.3-2.5-6.5V161h-10zm128 0V210h10v-49h-10zM528.1 173c-14 3.3-18.2 25.7-6.4 34.7 6.6 5 18 4.4 24.4-1.4 4.8-4.4 4.9-5.5.3-7.7l-3.7-1.7-3.1 3c-2 1.9-4.2 3.1-5.9 3.1-3.3 0-7.7-4-7.7-7 0-1.9.6-2 12.6-2h12.7l-.7-4.2c-2.1-13-10.8-19.5-22.5-16.8m10.2 10.2c2.8 3.3 2.1 3.8-5.3 3.8s-8.8-1.1-5.2-4.2c3.6-3.2 7.4-3.1 10.5.4m30.8-10.2c-15.3 3.7-18.2 28.7-4.1 35.8 7.6 3.8 16.8 2.5 22.5-3.2 3.3-3.3 3.2-4.3-1-6.3-3.3-1.6-3.5-1.6-5.2.5-3.2 3.8-7.7 3.9-11.4.3-3-3-3.1-3.5-2.7-9.3.7-9.3 7.7-13.2 13.2-7.4l2.2 2.5 3.5-2.1c1.9-1.1 3.6-2.2 3.8-2.4s-.3-1.4-1.2-2.7c-2.9-4.5-12.7-7.4-19.6-5.7m87.2 0c-1.8.4-3.9 1.3-4.7 1.9-1.1.9-1.5.8-2-.4-.4-1.1-2-1.5-5.6-1.5h-5v37h11v-12.9c0-13.6.8-16.1 4.9-16.1 4.8 0 5.6 2.1 5.9 15.9l.4 13.1h9.8v-15.8c0-17.8-.5-19.4-6.8-21.2-2-.5-3.9-.9-4.2-.9-.3.1-2 .5-3.7.9m36.7-.1c-17.1 3.4-20.3 29-4.6 36.2 14.2 6.5 28.7-2 28.7-16.9.1-10.5-4.7-16.9-14.1-19.1-5-1.2-5-1.2-10-.2m10.5 10.6c2.4 2.3 2.9 4.6 2.5 11-.6 9.5-12 11.5-15.7 2.8-4.5-11 5.6-21.5 13.2-13.8m53.2-10.5c-16.7 3.2-20 28-4.7 35.7 8.1 4.2 18.5 2.7 24.2-3.3 7.4-7.9 6.3-23.4-2.1-29.3-2.2-1.6-12.8-4.7-13.5-4 0 .1-1.8.5-3.9.9m10.8 10.5c4.6 4.6 3 16.2-2.6 18.5-7.4 3.1-13.3-3.9-11.5-13.6 1.4-7.3 9.1-10 14.1-4.9m29.6-10.8c-6.7 1.3-11.1 8.3-11.1 17.8 0 13.5 8.3 19.9 21.3 16.2 2.4-.7 2.7-.5 2.7 1.8 0 6.8-7.6 9.3-11.8 4-1.7-2.1-2.8-2.5-7.1-2.5-5.6 0-5.8.4-3.6 5.6 3.4 8.1 24.2 9.1 31 1.4 1.9-2.1 2-3.6 2-22.9v-20.6l-4.4-.3c-2.8-.2-4.7.1-5.2.9-.6 1-1.3 1-3.1.2-2.9-1.5-7.6-2.2-10.7-1.6m10.8 9.9c2.6 2.4 2.7 12.8.2 15.3-5.3 5.3-11.1 1.2-11.1-7.8 0-8.7 5.6-12.6 10.9-7.5m18.1-8c0 .9 2.5 9.3 5.5 18.6 6.9 21.1 6.9 20.8-.3 20.8-2.5 0-2.7.3-2.7 4v4h5.8c7.1 0 9.2-1 11.6-5.8 1.9-3.7 14.1-40.4 14.1-42.3 0-.6-2.3-.9-5.7-.7l-5.7.3-2.7 12.8c-1.5 7.1-2.9 13-3.1 13.3-.3.2-1.5-4.7-2.8-10.8-3.3-16.3-3-15.8-9-15.8-4 0-5 .3-5 1.6"/></svg>