<svg fill="black" xmlns="http://www.w3.org/2000/svg" width="646.667" height="116" viewBox="0 0 485 87"><path d="M0 43.5V87h82.5l3.7-2.5c4.5-3 8-8.9 10.3-17 1.4-5.4 5.9-20.3 13.2-44.3 2.8-9.4 2.7-13.6-.7-18C104.8 0 106.1.1 51.3 0H0zM128.5 3.2c.4 1.8 2.6 12.3 5 23.3s4.9 22.9 5.6 26.4c.7 3.8 1.5 5.8 1.9 5 1.6-2.9 13-42.6 13-45.2C154 4.4 147.8 0 136.1 0h-8.3zM285 2.6l-3.1 2.7 2.3 1.1c3.3 1.7 3.3 4.5-.1 14.9-1.8 5.2-3.3 10.2-3.6 11.3-1.5 7.1-8 26.9-10.5 32-8 16.3-19.1 20.4-17.5 6.5 2.7-23.4 14.2-41.6 24.9-39.6 3 .6 3 .5 1.1-1-3.7-3.1-12.3-1.5-19.6 3.7C237.7 49 230.5 87 248.9 87c6.1 0 10.6-3.4 16.2-12.3 1.7-2.6 3.2-4.7 3.4-4.7.3 0 .2 2.9-.2 6.4-.7 8.2 1.2 10.6 8.5 10.6 4 0 5.3-.5 7.6-2.9l2.8-2.9-2.3-.4c-1.8-.2-2.5-1-2.7-3.1-.3-2.4 7.6-30.2 15.4-54.2C303.1 6.3 301.9 0 293.1 0c-3.9 0-5.6.6-8.1 2.6m25.8.4c-3.1 2.7-3.1 2.9-1.1 3 4.6 0 4.7 3.1.4 16.8-2.1 7-7.2 23.5-11.2 36.7s-7.4 24.6-7.7 25.2c-.3 1 1.1 1.3 5 1.3 7.2 0 8.5-1.6 13.2-15.4 6.8-20 13.1-30.5 19.2-32 6.2-1.6 5.8 3.2-2.1 25-6.2 17.1-5 23.4 4.5 23.4 6.7 0 13-5 8-6.3-3.7-1-3.4-3.7 2.9-22.6 6.7-20.7 7-22.6 4-26.5-1.7-2.2-2.9-2.6-6.8-2.6-6.6 0-11.5 3.8-18 13.6-6 9.2-6.2 8.4-1.7-6.2C327.9 9.2 328.5 5.5 325 2c-3.2-3.2-10.1-2.7-14.2 1M115 22c0 .8-2.1 8.2-4.6 16.5-10.2 33.5-10.7 36.1-7.9 41.6 2.9 5.4 6.7 6.9 18.3 6.9 5.6 0 10.2-.3 10.2-.7 0-.3-1.8-8.5-4-18.2s-5.4-23.9-7.2-31.6C117 23.9 115 18 115 22m62.1 7.1c-18.4 3.6-33.9 33-26.7 50.4 4.1 9.8 21 10.3 29.7.8 3-3.2 6.9-9.3 6.9-10.8 0-.6-.8.3-1.9 2-3.7 5.9-6.7 7.9-12.3 8-7.4 0-10.2-4-9.5-13.3.3-3.5.9-6.8 1.3-7.2.5-.5 5.6-1.9 11.4-3.1 15.1-3.3 20-8.7 20-22 0-4-9.9-6.6-18.9-4.8m4.7 3.1c4.8 4.8-2.5 20.5-10.6 22.8-7.3 2-7.5 1-1.6-11.7 4.5-9.9 9.1-14.2 12.2-11.1m40.3-3.1c-15.2 3-28.1 21.6-28.2 40.8-.1 11.5 4.9 17.1 15.4 17.1 8.7 0 14.2-3.4 20.5-12.7 3.4-4.9 2.6-4.7-2.6.7-4.4 4.6-5.2 5-9.4 5-7.1 0-9-2.9-8.6-13.4.3-9.1-1-8 13.7-11.2 12.3-2.6 16.4-6.7 17.7-17.7.6-5 .5-5.6-1.7-7-3.1-1.9-11.2-2.7-16.8-1.6m4.9 3.4c1.7 2.1.7 10.2-1.8 15.2-2.2 4.1-5.8 6.7-11.1 7.8l-3.4.7.7-4.2c1.3-8 9.4-21 13.2-21 .6 0 1.7.7 2.4 1.5M379.3 29c-13.2 3.1-27.1 20.6-30.3 37.9-2.1 11.5 2.2 20.1 10 20.1 5.9 0 9.5-2.9 18.7-15.5l2.2-3-.9 4c-1.5 6.6-1.2 9.4 1.5 12 3.4 3.5 9.3 3.4 13.5-.1l3.1-2.7-2.3-1.1c-3.8-1.9-3.2-5.8 4-29.1 3.8-12.1 6.8-22.1 6.6-22.3-.1-.2-1.1.1-2.2.7-2.9 1.6-10.2 1.4-15.2-.4-2.3-.8-4.5-1.5-4.9-1.4-.3.1-2 .4-3.8.9m8.5 2.7c2.1.5 2.3 1 1.7 4.2-1.3 7.2-5.8 20.8-9.4 28.1-8.1 16.8-18.5 21.4-17.4 7.8 1.5-18.6 10.6-37 19.8-40 2.8-.8 2.7-.8 5.3-.1m30.2-2.9c-1.4.2-3.8 1.6-5.3 3l-2.8 2.7 2.3.6c3.7.8 2.9 6.1-4.4 29.7L401.2 86h5c6.8 0 9.8-3.1 13.1-13.6 1.3-4.3 3.6-11 5.2-14.7 1.5-3.8 2.9-8.1 3-9.5 1.6-12.6 1.6-14.8.3-16.5-1.5-2-6.3-3.4-9.8-2.9m55.3.4c-3.4.9-11.1 8-14 12.9-2.5 4.2-3 3.6-2.5-2.6.7-8.2-1.4-10.9-7.9-10.3-5.8.6-10.2 3.7-15.7 11.3l-3.7 5 4.3-3.8c4.3-3.8 5.7-4.3 8.1-2.8 1.8 1.2 1.2 3.9-6.5 27.2-3.5 10.8-6.4 19.9-6.4 20.2 0 1.4 9.4-.2 11.8-2 1.6-1.2 3.5-4.2 4.6-7.4 10-28.3 15.5-37.9 21.7-37.9 4.5 0 3.9 3.7-4 26-6.2 17.5-5.3 22 4.3 22 7.3 0 14.4-5.3 8.4-6.2-3.5-.5-2.8-4.8 3.6-24.8 6.2-19.4 6.4-20.7 3.6-24.2-2.3-3-5.2-3.8-9.7-2.6"/></svg>