<svg fill="black" xmlns="http://www.w3.org/2000/svg" width="1136" height="226.667" viewBox="0 0 852 170"><path d="M140.5 2c-1.6.4-32.4.8-68.3.9-54.5.1-65.8.3-68.7 1.5L0 5.9v20.9c0 15.9.3 21.2 1.3 22 1.3 1.1 9.1 3.6 28.2 9.2 6.1 1.7 12.1 3.6 13.5 4 1.4.5 4.4 1.4 6.8 2 8.9 2.3 4.1 3-19.8 3C.1 67-.5 67.2.5 75.8c1.1 9.7 3.4 22.6 5.1 28.1 1.3 4.4 1.8 5.1 3.2 4.4.9-.4 29.6-1 63.7-1.3 63.9-.5 65-.6 68.7-4.6 2-2.2 4.4-15.2 5.4-28.1 1-14.1 2.5-12.8-26.1-21.8-27.5-8.7-27.3-8.4-4.4-8.4 19.9-.1 28.1-1.3 30-4.3.5-.7.9-9.7.9-20.1C147-1 147.4.2 140.5 2m101.7 10c-13.9 6.3-15.6 22.3-3.2 30.3 2.5 1.6 7.4 4.8 11 7.1 10.1 6.4 13.1 12.7 9.5 19.6-2 4-6.3 6-12.5 6-8.6 0-14-4.3-16.1-12.7-1.5-5.9-2.9-4.4-2.9 3.2v6.4l4.6 2.7c14.3 8.4 32.3.9 34-14.1 1-9.4-2-13.1-20.2-24.5-8.9-5.6-11.8-12.7-7.4-18.2 6-7.8 21.2-5.3 23.4 3.8.4 1.3 1.1 2.4 1.8 2.4 1.7 0 .1-9.3-1.9-10.8-4.8-3.5-13.8-4.1-20.1-1.2M295 29.1c-22.9 10.3-21.6 40.2 2 47.1 5.9 1.7 18.5 1.4 23.2-.5 3.1-1.3 3.8-2.1 4.3-5.4.3-2.1.8-4.8 1.1-6.1.7-3.5-.9-2.5-2.9 1.8-3.3 7-13 10.7-21.2 8-20.6-6.8-19.8-41.4.9-44.5 8.1-1.3 18.7 4 20.2 10.1.3 1.3 1.1 2.4 1.6 2.4 1.8 0 .1-10.3-1.9-11.8-5.1-3.7-20.1-4.4-27.3-1.1m205.1 4c-16.7 36.7-18.5 40-23.3 41.5-1 .3-1.8.8-1.8 1.2 0 .8 15.9.6 16.7-.2.4-.3-.3-.6-1.4-.6-4.2 0-4.6-2.4-1.6-9.7l2.9-6.8h16.9l2.4 6.7c2.6 7.7 2.3 9.8-1.5 9.8-1.5 0-2.5.2-2.2.5.9.9 22.8 1.1 22.8.2 0-.4-.6-.7-1.4-.7-4.4 0-7.4-5-15.6-25.8-4.6-11.4-8.6-21.1-9.1-21.6s-2.1 1.9-3.8 5.5m4.4 14.2c1.4 3.7 2.5 7 2.5 7.2 0 .3-3.1.5-6.9.5h-7l3.7-8c4-9.1 4.1-9.1 7.7.3M547 27.7c-7 .4-12.7 2.3-6.8 2.3 5.5 0 5.9 1.3 5.6 22.8l-.3 19.7-3.2 1.5c-4.9 2.3-4.2 2.5 7.7 2.4 11.3-.2 14.3-.7 9.2-1.7-3.8-.8-5.2-4.2-5.2-12.7v-7h4.4c4.3 0 4.4.1 7 5.4 5.1 10.5 14.1 18.4 23.3 20.4 5.7 1.3 6.1.4 1-2.2-4.9-2.6-12.1-11.2-16.7-19.8l-3.2-6 4.1-3.7c3.1-2.6 4.3-4.6 4.8-7.3 1.7-11.1-7.8-15.3-31.7-14.1m17.8 3.4c6.3 2.2 8.5 12.1 4 17.4-2.2 2.5-10.5 4.8-13.6 3.7-1.3-.4-1.8-17.6-.6-20.6.7-1.9 5.6-2.1 10.2-.5m57-3.3L602 28v5c0 5.6.6 6.3 2 2.5 1.4-3.6 4.7-4.5 16.7-4.5 8 0 10.4.3 10 1.2-.2.7-7.5 10.6-16.1 22S599 75.3 599 75.7c0 1.1 41.9.8 42.9-.3C643.2 74 644.1 65 643 65c-.5 0-1.3 1.2-1.6 2.6-1 4.1-5.6 5.4-18.9 5.4-6.3 0-11.5-.4-11.5-.9s7.2-10.5 16.1-22.2c8.8-11.6 15.6-21.5 15.2-21.8s-9.7-.5-20.5-.3m128.7 13.9C736.7 71.6 734.6 75 730.4 75c-.8 0-1.4.3-1.4.7 0 .5 3.8.8 8.5.8 7.9 0 11.4-.9 6.3-1.7-3-.4-2.9-5.3.1-12.1l2.2-4.7h16.6l2.3 6.8c2.5 7.4 2.2 10.2-1 10.2-1.1 0-2 .3-2 .7 0 .6 20.3.8 23 .2.3 0-1.1-.6-3-1.3-4.9-1.8-6.4-4.5-15.5-27.4-4.4-11.1-8.2-20.2-8.6-20.2-.3 0-3.6 6.6-7.4 14.7m8.1 5.3c1.3 3.6 2.4 6.8 2.4 7.2 0 .5-2.9.8-6.5.8s-6.5-.4-6.5-1c0-1.9 6.5-14 7.3-13.7.5.1 2 3.2 3.3 6.7M337 29.2c5 2 5.5 2.6 6.3 6.9.4 2.4.6 11.3.5 19.8-.4 14.6-.5 15.4-2.7 17.2-1.3 1.1-3.2 1.9-4.4 1.9-1.1 0-1.8.2-1.5.5.9.9 22.8 1.1 22.8.2 0-.4-.6-.7-1.3-.7-3.6 0-5.2-3.9-5.2-12.8v-8.7h27l.3 7.4c.3 8.6-1 12.9-4.4 13.7-5 1.3-2 1.9 9.1 1.9 6.3 0 11.5-.3 11.5-.8 0-.4-.8-.7-1.8-.7s-2.8-.7-4-1.6c-2.1-1.5-2.2-2-2.2-20.7 0-20.7.2-21.5 5.2-23.4 2.9-1 1.8-1.2-8.7-1.2-11.1 0-11.8.1-9.3 1.5 1.5.8 3.2 2.3 3.8 3.4 1.3 2.4 1.3 17 0 17-.5.1-6.4.1-13 .1s-12.4 0-13-.1c-1.1 0-1.4-10-.4-15 .5-2.1 1.7-3.8 3.8-5.1l3.1-1.9-12 .1c-9.3 0-11.4.3-9.5 1.1m68.6.3c4.9 2.2 6.4 4.8 15.9 26.9 4.8 11.3 9.1 20.6 9.5 20.6.3 0 3.5-6.5 7-14.5 6.9-16 7.5-16.9 9-12.8 5.2 14.2 10.4 27.3 11 27.3.4 0 4.6-9.4 9.4-20.8 8.2-19.6 10.2-23.3 15.1-26.7 1.8-1.3 1.1-1.4-6.5-1.4-8.1 0-8.4.1-5.7 1.5 1.5.8 2.7 2.1 2.7 2.9 0 1.8-10.8 29.7-11.9 30.8-1 1-11.1-26.3-11.1-29.8 0-1.9.8-2.9 3.3-3.9 3-1.4 2.5-1.4-8.6-1.5-7.6-.1-11.6.3-11.2.9.3.5 1.2 1 2 1 1.6 0 5.9 5.3 7.4 9.3.9 2.3.4 4.3-3.7 13.7-2.6 6-5.1 10.9-5.5 10.7-1.2-.3-11.8-25.4-12.4-29.2-.5-2.9-.1-3.5 2.3-4.9 2.8-1.4 2.3-1.5-9.1-1.5-11.1.1-11.8.2-8.9 1.4m248.4-1c0 .3 1.5 1.1 3.4 1.9 5.5 2.3 5.9 4 5.4 22.6-.5 17.6-1.2 20.6-5.3 21.6-1.4.3-2.5.9-2.5 1.3 0 .7 18 .5 18.8-.3.3-.3-.2-.6-1.2-.6-.9 0-2.8-1.1-4.1-2.5-2.4-2.3-2.5-2.8-2.5-17.5 0-9.5.4-15 1-15s5.1 8.3 10 18.5 9.1 18.5 9.3 18.5 4.1-8.6 8.7-19c4.6-10.5 8.7-19 9.2-19 .4 0 .8 7.2.8 16 0 14.7-.2 16.2-2 18-1.1 1.1-2.7 2-3.7 2-.9 0-1.4.2-1.1.5.8.9 22.8 1.1 22.8.3 0-.3-1.4-.9-3-1.3-4.4-1-4.7-2.3-5.5-21.6-.8-19.5-.5-21 4.8-23.3 3.1-1.4 2.9-1.4-4.8-1.5l-8-.1-5.9 14.3c-3.3 7.8-6.8 16.2-7.9 18.7l-1.9 4.5-9.4-18.8L670 28h-8c-4.4 0-8 .2-8 .5m138.5.8c1.1.7 3.4 2.6 5.2 4.3l3.3 3.2-.1 15.3c-.1 18.4-.5 19.9-4.6 21.9-4.8 2.2-4.2 2.5 6.2 2.5 10.1 0 11.3-.4 6.5-2.2-1.7-.6-3.4-2.3-4-3.8-1.2-3-1.4-30.5-.2-30.5.4 0 9 8.3 19.2 18.5S842.7 77 843 77s.5-9.9.5-21.9c0-23.9-.1-23.6 5.8-25.8 2.8-1 1.9-1.2-7.3-1.2h-10.5l3.5 1.7c2.8 1.4 3.6 2.4 4.2 5.7.9 5.4 1 27.5 0 27.5-.4 0-8.6-7.9-18.2-17.5L803.5 28l-6.5.1c-5.5 0-6.2.2-4.5 1.2M336.3 99.1c-4.7 1.4-10.9 7.7-12.3 12.6-2.7 9 .6 14.6 13.8 22.6 10.3 6.3 13.8 9.6 15.3 14.6 3.4 11.3-11.4 19.1-22.9 12.1-3.2-2-7.1-8.6-7.2-12.3 0-4.3-1.9-1.1-2.2 4.1-.5 5.3-.3 5.9 2.6 8.5 8.6 7.7 26.1 5.9 32.3-3.4 8-12.1 4.4-20.9-12.9-31.3-9.9-6-12.8-9.4-12.8-15 0-12.2 19.7-14.7 24.6-3 2.5 6 3.5 3.2 1.9-5.2-.8-3.9-13.1-6.5-20.2-4.3m53.7 16.8c-15 4.6-23.6 20.9-18 33.9 4.5 10.5 13.6 15.7 27.5 15.6 10.5 0 16.1-1.9 16.9-5.6 2.1-10.1 1.3-12.2-1.9-5.6-6 12.2-25.2 11.3-32.5-1.5-10.8-19 2.2-39.9 21.5-34.6 4.2 1.2 11.5 7.8 11.5 10.4 0 .8.5 1.5 1.1 1.5 1.9 0 .3-10.3-1.8-11.8-4-2.9-17.8-4.2-24.3-2.3m122.7.5c-22 8.2-23.9 37.6-2.9 46.8 31.1 13.8 56.5-26.9 27.9-44.6-5.8-3.6-18.4-4.7-25-2.2m18.4 3.8c10.2 5.7 14.8 23.1 8.8 33.8-5.1 9.3-18 11.8-27.1 5.4-11.3-7.9-13.6-29.1-4-37.7 5.5-5 15-5.6 22.3-1.5m91.5 13.5c-11.2 24.4-12.5 26.5-16.3 28.3-4.8 2.2-4.2 2.5 5.2 2.6 7.8 0 11.6-1 6.3-1.8-3-.4-2.9-5.3 0-12.1l2.1-4.7h7.9c9.1 0 9.3.1 11.6 8.4 1.9 6.6 1.6 8.6-1.4 8.6-1.1 0-2 .3-2 .7 0 .5 5 .8 11 .8 11.5 0 12.9-.4 8.1-2.2-4.1-1.5-5.3-3.8-14.3-26.1-4.3-10.8-8.3-20.1-8.7-20.5s-4.7 7.7-9.5 18m12.4 8.5c0 .5-2.9.8-6.5.8-7.5 0-7.4.1-3.7-7.7 4.5-9.4 4.2-9.4 7.4-1.2 1.5 4 2.8 7.7 2.8 8.1m103.1-25.5c-4.4 2.2-7.1 6.7-7.1 11.9 0 5.4 2.2 8.1 11.2 13.7 10.3 6.4 13.4 12.6 8.8 17.5-6 6.4-17.5 2.4-19.5-6.8-1.1-4.8-2.5-3.5-2.5 2.4 0 5.2.2 5.5 3.8 7.8 10.9 6.8 25.7-.1 25.7-12 0-5.9-2.2-9-9.5-13.4-8.5-5.2-12-9-12-13 0-9.4 13.1-10.2 17.6-1.1l1.9 3.8.3-2.9c.5-4.4-.5-7.2-3.3-8.4-3.7-1.7-11.4-1.4-15.4.5m-307.4.6c5.7 2.1 5.8 2.4 6.1 21.5.3 19.8-.2 22.1-5.6 23.7-5.5 1.6-3.6 2.1 8.3 2 6.3 0 11.5-.3 11.5-.8 0-.4-.6-.7-1.3-.7-3.8 0-5.5-7.6-4.8-20.8.1-.9 3.5-1.2 13.6-1.2H472v9c0 9.4-1.5 13-5.5 13-.8 0-1.5.3-1.5.7 0 .5 5.2.8 11.5.8s11.5-.3 11.5-.7-.9-.8-2-.8-2.9-.9-4-2c-1.9-1.9-2-3.3-2-20.8 0-20.8 0-20.7 6.5-23 2.4-.8.5-1-9.5-1-11.6 0-12.3.1-9.3 1.4 3.8 1.6 4.6 4.5 4.1 14.4l-.3 6.5-12.4.3c-6.8.1-12.8-.2-13.5-.7-.7-.6-.9-3.8-.6-9.8l.5-8.8 3.5-1.7 3.5-1.8-12.5.1c-10.8 0-12.1.2-9.3 1.2m130.3.5c4.5 2.2 5.2 5.9 4.8 26-.3 14.8-.4 15.5-2.7 17.3-1.3 1-3.2 1.9-4.2 1.9s-1.9.4-1.9.8 8.4.8 18.7.7h18.7l1.2-4.7c1.2-4.6.2-6.9-1.1-2.7-.9 2.7-4.4 3.9-11.8 3.9-9.5 0-9.2.7-9.5-19.2-.4-19.5.2-22.2 5-24.3 3.1-1.3 2.5-1.4-8.7-1.4-12 0-12 0-8.5 1.7m107.5-.8c-.3.6.4 1 1.8 1 4.6 0 5.2 2 5.5 20.4.4 19.1-.2 22.2-4.8 23.9-4.9 1.9-3.6 2.2 8.5 2.2 6.3 0 11.5-.2 11.5-.5s-1.5-1.2-3.3-2l-3.2-1.5-.3-8.8-.3-8.7 4.3.1c4.3 0 4.3 0 7.2 6.2 5.1 10.6 14.5 18.3 24.9 20.2 4.7.9 4.9-.7.3-2.3-4.7-1.7-13.4-11.4-17.9-20l-3.7-7.1 2.9-1.7c3-1.8 7.1-8 7.1-10.8 0-3.6-3.2-7.8-7.3-9.7-4.7-2.1-32-2.9-33.2-.9m25.8 2.3c4.1 1.8 5.7 3.7 6.4 8.1 1.2 7.5-3.1 12.1-11.7 12.7l-4.5.4-.3-9.9c-.1-5.5 0-10.6.2-11.3.7-1.7 5.8-1.7 9.9 0M129 127c-.9.6-22.8 1-52.6 1-49.5 0-57.4.4-57.4 3.1 0 1.7 13.5 15.2 19.5 19.4C49.2 158.1 67 166 73.4 166c10.5 0 33.9-12.4 45.9-24.4 8.6-8.6 14.7-17.8 9.7-14.6"/></svg>