<svg fill="black" xmlns="http://www.w3.org/2000/svg" width="1094.667" height="248" viewBox="0 0 821 186"><path d="M78 3.5C4.3 15.5-25.2 105 27 158.1c18.5 18.8 38.9 27.2 66 27.1 66.4-.1 110.2-69.7 82-130C157.7 18.4 117.5-3 78 3.5m64.3 41.4c6.7 2.6 16.5 11.1 20.4 17.8 1.4 2.4 2.4 4.5 2.2 4.7s-2 1.1-4.1 2c-5.8 2.7-14.8 12.5-26.3 28.8-5.9 8.3-13.7 18.2-17.4 22-25.1 26.7-56.4 30.9-81.4 11-9.4-7.4-22.6-25.6-20.4-27.9.3-.3 3.6 0 7.3.7 21.2 4 33.4-2.6 53.2-29C90.2 55.8 99 48.4 113 43.5c6.6-2.2 21.7-1.5 29.3 1.4M52.5 49c1.5 4.6 2 5.1 6.6 6.7 5.9 2.1 6.2 3.9.9 5.3-4.9 1.3-6.7 3.1-8 8.1-1.4 5-3 4.6-5-1.1-1.6-4.5-2.2-5-8.2-7.4-4.9-1.9-4.8-3 .5-4.5 4.6-1.4 7.7-3.7 7.7-5.7 0-2.2 1.9-6.4 2.9-6.4.5 0 1.7 2.2 2.6 5m94.6 77.8c9.3 8.3-1 22.4-12.1 16.7-3.7-1.9-5-4.3-5-9.5 0-9.1 10.2-13.3 17.1-7.2M249 11.9c-13.2 2.8-21 11.6-21 23.7 0 11.1 6.2 16.8 24.5 22.5 23.8 7.3 25.5 8.4 25.5 16.4 0 17.2-34.2 16.6-40.2-.7-1-2.8-1.3-2.9-5.2-2.3-8.8 1.4-9.3 2.3-5.2 10.3 7.3 14.3 26.1 20.7 44.8 15.2 19.1-5.6 25.1-29.2 10.2-40.5-3.9-3-6.7-4-26.6-10-10.7-3.2-14.8-6.3-14.8-11 0-8.1 5.7-12.5 16.1-12.5 10.1 0 17.6 4.8 19.8 12.8.8 2.9 2.2 3.1 9.9 1.7 3.9-.7 4-2.2.8-9-5.7-12.4-23.2-19.9-38.6-16.6m202 43.6V97h12V67h16.9l6.4 9.2c3.5 5.1 7.8 11.9 9.6 15l3.2 5.8h6.9c6.9 0 6.9 0 6-2.4-1.5-4.1-7.1-13.7-12.4-21.4-4.8-7.1-5.1-9.1-1.4-9.2 1.7 0 8.1-6.6 10.1-10.4 3.5-6.6 3.2-20.3-.6-27.2-6-10.8-10.8-12.4-36.8-12.4H451zm39.9-28.7c9.9 4.9 10.9 20 1.8 26.6-2.5 1.8-4.6 2.1-16.3 2.4l-13.4.4V41.3c0-8.2.3-15.3.7-15.6 1.5-1.6 23.7-.6 27.2 1.1M301 20.5v5.4l12.8.3 12.7.3.3 35.2.2 35.3h13V26h25V15h-64zm91.7-4.3c-.3.7-3.7 8.6-7.6 17.6-5.9 13.6-21 52.7-23.5 60.9-.7 2.3-.6 2.3 7.4 2.3h8.1l8.7-7.7c8.7-7.6 25.4-19.3 27.6-19.3.7 0 2 2.4 3.1 5.2 1 2.9 3.1 9 4.7 13.5l3 8.3h6.9c7.9 0 7.8.2 4.5-8.3-1.4-3.4-4.5-11.7-7-18.4-5.5-14.9-12.2-31.3-18.3-45.1L405.7 15h-6.2c-4.1 0-6.5.4-6.8 1.2m10 22.3c1.3 3.3 3.5 8.8 4.8 12.3l2.3 6.3-4.2 2.1c-2.2 1.1-8.3 4.9-13.3 8.4-5.1 3.5-9.3 6-9.3 5.4 0-3.3 15.2-41.1 16.4-40.7.4.1 1.9 3 3.3 6.2M527 56v41h13V78.5c0-10.2.3-18.5.7-18.5 3.2 0 27.5 23.9 32.8 32.3l3 4.7h15.7l-2.1-3.3c-7.1-11.2-25.7-32.1-34.5-38.6l-2.9-2.1 18.4-18.7 18.3-18.8-7.7-.3-7.8-.3-16 16.6c-8.9 9.1-16.5 16.5-17 16.5s-.9-7.4-.9-16.5V15h-13zm78 0v41h13.1l-.3-30c-.2-16.5 0-30 .4-30 1.8 0 24.4 31.2 35.2 48.8l6.9 11.2H671V15h-12v27.5c0 15.1-.3 27.5-.8 27.5-.4 0-5.8-7.1-11.9-15.8-6.2-8.6-15.5-21-20.9-27.5L615.8 15H605zm85 0v41h54V86l-20.2-.2-20.3-.3v-26l16.8-.3 16.8-.2-.3-5.3-.3-5.2-16.7-.3L703 48V26h38V15h-51zm66-35.5V26h25v71h13l.2-35.3.3-35.2 12.8-.3 12.7-.3V15h-64zm-528.2 99.2c-1.7.4-1.8 2.4-1.8 23.9V167h2.5c2.4 0 2.4-.1 2.7-10.7l.3-10.8h12.4c10.5 0 12.5-.2 13.4-1.7 1.8-2.7.7-2.9-13-3.1l-12.8-.2v-16l13.8-.3c13.6-.3 13.8-.3 13.5-2.5-.3-2.1-.6-2.2-14.8-2.3-8-.1-15.3 0-16.2.3m54.3.7c-21.6 7.8-20.1 40.5 2.2 47 7.7 2.2 11.3 1.8 19.2-2.2 17.9-9 16-38.1-3-44.6-5.6-1.9-13.5-2-18.4-.2m18.5 5.5c17.3 10.5 10.4 37.4-9.4 37-12.6-.3-20.4-9.4-18.8-22.3 1.5-12.9 17.6-21.2 28.2-14.7m27.1-6.3c-.4.4-.7 8.8-.7 18.6 0 15.6.2 18.3 1.9 21.6 5.7 11.2 24.6 11.4 32.2.4 2.3-3.4 2.4-4.4 2.7-21.9l.4-18.3H359v16c0 23.6-2.4 27.6-16.2 27.1-2.6-.1-4.8-1-7-3l-3.3-2.9-.5-18.9c-.4-15.9-.7-18.8-2-19.1-.9-.1-1.9 0-2.3.4m49.8.3c-.3.6-.6 11.2-.6 23.7-.1 22.3 0 22.8 2.1 23.6 2.9 1.1 2.9.7 3.2-18.7.2-10.5.7-17 1.3-17s6.5 8 13.3 17.8c11.9 17.1 12.5 17.7 15.8 17.7h3.4v-22.9c0-23.9-.4-26-4.4-24.5-1.4.5-1.6 2.9-1.6 18.5 0 14.2-.3 17.9-1.3 17.9-.7 0-4-3.9-7.2-8.8-18.1-26.9-21.7-31-24-27.3m52.8-.1c-.9.6-1.3 6.9-1.3 23.7l-.1 23 12.3.3c12 .2 12.4.2 17.5-2.8 13.5-7.8 14.2-30.6 1.2-40.3-4.8-3.5-25.8-6.3-29.6-3.9m23.5 6.3c8.6 4.2 12.5 15.5 8.8 25.4-3.2 8.2-10.2 11.9-21.9 11.3l-6.2-.3-.3-18c-.1-9.8 0-18.5.2-19.2.9-2.3 14.2-1.7 19.4.8m40.3-6.2c-1.2.7-19.1 44.2-19.1 46.4 0 .5 1.2.7 2.6.5 2.1-.2 3-1.3 4.6-5.3 2.5-6.5 2.5-6.5 14.5-6.5 10.3 0 13.3 1 13.3 4.4 0 3.2 3.2 7.6 5.6 7.6 3.2 0 3.1-.8-2-12.5-.8-1.7-4-9.7-7.1-17.8-6.8-17.5-8.3-19.4-12.4-16.8m7.8 18.4c2.2 6 4.1 11.3 4.1 11.8s-4.3.9-9.6.9c-11.1 0-10.6.8-6.1-11 6.4-17 5.7-16.9 11.6-1.7m17.4-18.6c-.7.2-1.3 1.3-1.3 2.3 0 1.7.9 2 7.8 2.2l7.7.3.3 21.2.2 21.3h5l.2-21.3.3-21.2 7.8-.3c6.7-.2 7.7-.5 7.7-2.1 0-1.1-.7-2.2-1.6-2.5-1.9-.7-32.3-.7-34.1.1m44.9.5c-.9.9-1.2 7.6-1.2 24.1v22.8l2.8-.3c1.5-.2 2.6-.6 2.5-1.1-.2-.4-.3-11.1-.3-23.7 0-23.6-.3-25.3-3.8-21.8m30.8.1c-7.9 2.5-16 14.4-16 23.4.1 7 5 16.5 10.6 20.2 21 13.9 45.9-5.5 37.8-29.4-4.1-12-18.9-18.5-32.4-14.2m16.7 4.8c13.4 5 15.7 25 4 34.3-3.6 2.9-4.5 3.1-11.6 3.1-12.7 0-18.5-6-18.6-19.2 0-6.5.3-7.5 3.1-11 6.3-7.8 14.6-10.4 23.1-7.2m61.8-4.4c-.3 1-.5 9.7-.4 19.3s-.1 17.5-.5 17.5-6.5-8.3-13.5-18.5c-11.6-16.7-13.1-18.5-16-18.8l-3.1-.3v23.4c0 22.4.1 23.5 1.9 24 3 .8 3.1.5 3.1-17.9 0-17.3.5-19.8 3.4-16.9 1.4 1.5 16.9 23.5 19.1 27.3 3.7 6.2 4.8 7.2 8.1 7.2h3.4v-22.8c0-22.8-.3-25.2-3.6-25.2-.6 0-1.5.8-1.9 1.7"/></svg>