<svg fill="black" xmlns="http://www.w3.org/2000/svg" width="885.333" height="278.667" viewBox="0 0 664 209"><path d="M100.9 1.4c-.2.2-3.8.6-7.9.9-8.5.6-18 2.5-19.5 3.8-.5.5-1.7.9-2.7.9-1.9 0-17.6 7.4-23.8 11.2-9.2 5.7-24.8 21-29.1 28.8-1.1 1.9-3.5 6.2-5.3 9.5-3.1 5.4-6.5 14.8-9.5 26-6.8 25.2.6 58.2 18.4 83 2.6 3.7 16.3 17.4 20 20 28.5 20.4 56.8 25.2 93.5 15.7 3.7-.9 18.1-7.8 24-11.4 18.6-11.4 35.7-34.2 42.4-56.3 3.1-10.3 4-17.2 3.9-29.5-.2-46.7-27.7-83.7-72.9-98.4-6-2-30.4-5.2-31.5-4.2m-2.7 2.8c.9.7 2.3 2.5 3.3 4l1.7 2.8h-3C97.6 11 92 6 92 3.6c0-1.1 4.6-.6 6.2.6m9 .5c.9 1 2.1 2.8 2.7 4 1.1 2.1 1 2.3-1.6 2.3-2.4 0-7.3-5-7.3-7.5 0-1.3 4.9-.3 6.2 1.2m7.5-.2c1.1.8 2.6 2.9 3.2 4.5 1 3 .9 3.1-1.6 2.8-3.7-.4-8.5-8.8-5-8.8.7 0 2.2.7 3.4 1.5M91.5 6.7c5.4 5.9.2 7.7-5.4 1.9-2.9-3-3.1-3.5-1.5-3.9 3.6-.9 4.3-.7 6.9 2m32.8-.8c1.6 1.6 2.6 8.1 1.3 8.1-2.2 0-4.5-2.4-6.1-6.4l-1.6-3.8 2.8.6c1.5.4 3.2 1.1 3.6 1.5M83.5 8.6c3.2 3.5 3.1 4.4-.3 4.4-2.9 0-8.9-5-7.5-6.3 1.5-1.5 5.5-.5 7.8 1.9m47.9-1.3c2.7 2 3.9 8.7 1.5 8.7-2.1 0-4.3-3.1-5.3-7.3-.7-3 .8-3.6 3.8-1.4m-56.5 3.3c5.5 4.6 2.2 7-4.1 2.9-5-3.3-4.9-4.5.4-5.4.3 0 2 1.1 3.7 2.5m65.4.2c2.2 1.9 2.4 8.2.2 8.2-1.8 0-4.1-3.5-4.8-7.7-.7-3.5.9-3.7 4.6-.5m-72.2 3.3c3.4 2.4 3 3.9-1 3.9-3.1 0-8.5-3.6-7.6-5.1 1-1.6 5.6-1 8.6 1.2m60.4 2.3c8.5 2.4 20.4 7.7 23.9 10.8 1.1 1 2.4 1.8 2.9 1.8 1.1 0 3.2 1.9 12.8 11.2 3.8 3.7 6.9 7 6.9 7.4s1 1.8 2.1 3c2.5 2.7 3.8 4.8 7.4 12.4 5.1 10.8 5.4 11.7 8.2 22.5 3.9 15.6-.3 46.8-7.8 58.5-.5.8-1.5 2.6-2.1 4-1.1 2.2-2.7 4.6-8.4 12.7-3.8 5.4-17.6 17.7-22.4 20.1-1.4.7-4.4 2.3-6.6 3.6-4.3 2.4-17.4 7.5-20.9 8-13.3 2.3-17.7 2.7-25.3 2.2-8.8-.5-10.5-.8-17.7-2.5-11.1-2.6-25.9-9.7-33.8-16.1-7-5.7-20.7-20.8-20.7-22.8 0-.5-.9-1.7-2-2.7s-2-2.5-2-3.3c0-.7-.8-2.6-1.8-4-1-1.5-2.7-5.4-3.7-8.7-1.1-3.3-2.2-6.5-2.6-7-2.4-3.6-3.2-27.9-1.4-39.5 1.8-11 9.2-29.9 13-33 .8-.7 1.5-1.7 1.5-2.2 0-1.5 11-14 15.8-17.8 2.4-1.9 5.1-4.2 6-5 1-.8 2.8-2.1 4.2-2.8s4.3-2.4 6.5-3.7c4.2-2.6 4.8-2.9 10.5-5 8.4-3 17.9-4.9 30-5.7 5-.4 20.4 1.6 27.5 3.6m18.9-3.1c1.8 1.3 3.2 9.7 1.6 9.7-2 0-4.3-3.1-5-6.8-.8-4.5.1-5.3 3.4-2.9m-87.8 3.8c3.9 2.4 4.2 3.5 1.3 4.4-2 .7-9.9-2.2-9.9-3.6 0-.5 3.6-2.6 4.9-2.8.2-.1 1.9.8 3.7 2m95.6.6c1.9 1.7 2.4 5.9.8 8.3-1.4 2.3-3.8-.6-4.6-5.8-.7-4.7.5-5.5 3.8-2.5M53 21.5c6 3.1 1 5.8-5.5 3.1-3.2-1.4-3.5-1.8-2.5-3.1 1.6-1.9 4.3-1.9 8 0M163.5 24c.8 2.5-.3 8-1.6 8-2 0-3.8-4.6-3.2-8.3.5-3.1.8-3.5 2.4-2.7 1 .6 2.1 1.9 2.4 3m-117 2.2c5.3 2.4.7 5.6-5.5 3.7-4.4-1.3-4.9-2.3-2.2-3.8 2.3-1.4 4.6-1.3 7.7.1M170 29.1c.6 1.1.5 3-.3 5.4-1.3 3.6-1.3 3.6-3.1 1.6-2.4-2.7-1.5-12.1 1-10 .8.7 1.9 2 2.4 3M42.7 32.4c1.7 1.7-2.3 3.8-6.5 3.3-5.2-.6-5.9-1.1-4.1-3.3 1.3-1.6 9-1.6 10.6 0m132.9 1.1c1.5 2.4.3 9.5-1.7 9.5s-3.1-3.3-2.5-7.5c.8-5.1 1.8-5.6 4.2-2M36.7 38.4c1.3 1.3-2.2 3.6-5.6 3.6-5.1 0-6.9-1.3-5.1-3.5 1.4-1.7 9.1-1.7 10.7-.1m144.1.8c1.5 1.5 1.5 4.7 0 8.1-2.6 5.4-5.6 1-3.7-5.3 1.3-4.3 1.8-4.7 3.7-2.8M29.3 43.9c2.5.5 2.6.8 1.5 2.3-1.4 1.8-3.1 2.2-8.7 2l-3.4-.2 2.3-2.5c2.4-2.6 3.4-2.7 8.3-1.6M187 49.2c0 1.1-.7 3.3-1.6 5-1.6 3-1.7 3.1-3 1.3-1.8-2.4-1.8-3.7.3-8 1.6-3.3 1.8-3.5 3-1.9.7 1 1.3 2.6 1.3 3.6M25.3 50.8c3.2 1.3-.3 4.3-5.6 4.9-5.2.6-6-.4-2.7-3.7 2-2 5-2.4 8.3-1.2M191 53.9c1.4 2.7 1.3 3.3-1.4 7-2.4 3.3-2.4 3.3-3.6 1.1-1-1.8-.9-3 .6-6.1 1.9-4.4 2.9-4.8 4.4-2M22 58.7c-.1 2.2-2.3 3.7-6.4 4.3-5.1.8-5.3.5-3-2.8 1.5-2.1 9.4-3.4 9.4-1.5m174 5.5c0 1.3-5.2 6.8-6.1 6.2-1.5-.9-1-4.5 1.3-8.1l2.1-3.5 1.3 2.3c.7 1.3 1.3 2.7 1.4 3.1M19 65.8c0 2.1-2.9 4.2-6.7 5.1-4.9 1-5.8-.4-2.3-3.9 2-2 9-2.9 9-1.2m180 5.8c0 1.8-5 7.5-6.1 6.8-1.6-.9-1-4.7 1.4-8.1 2-3 2.3-3.1 3.5-1.6.6.9 1.2 2.2 1.2 2.9M14.9 75.2c-.7 1.6-2.5 3-4.9 3.7-4.9 1.4-4.9 1.4-4.3-.8.7-2.8 3.4-4.9 6.8-5.3 3.8-.4 3.8-.5 2.4 2.4M201 78.8c0 2.4-4.3 8.2-6.2 8.2-1.8 0-.6-5.5 2-8.5 3.1-3.6 4.2-3.6 4.2.3M13.3 81.9c-.6 2.3-2.8 4.3-6.5 5.9-2.6 1.1-2.8 1-2.8-1.2 0-2.7 1.7-4.4 5.7-5.6 4.1-1.2 4.2-1.2 3.6.9M203 87.5c0 1.5-1.2 3.3-3.2 4.9-5.5 4.3-6.8.3-1.6-5.1 3.4-3.5 4.8-3.5 4.8.2M12 89.1c0 2.2-2.2 4.9-5 6.4-3.9 2-4.2 1.9-3.8-1.2.4-3.4 8.8-8.4 8.8-5.2m192 6.1c0 3.2-4.4 7.8-7.2 7.8-2.2 0-.5-5.1 2.5-7.4 3.9-3.2 4.7-3.2 4.7-.4M11 98.5c0 2.6-7.3 8.5-8.7 7.1-2.1-2 3.8-8.7 8.5-9.6.1 0 .2 1.1.2 2.5m193 5.5c0 2.3-.7 3.5-3.2 5-4.2 2.6-4.8 2.5-4.8-.5 0-2 5-6.8 7.8-7.4.1-.1.2 1.3.2 2.9m-193 3c0 1-1.7 3.3-3.7 5l-3.8 3.1-.3-2.8c-.3-2.1.4-3.4 2.9-5.5 3.4-2.9 4.9-2.8 4.9.2m191.3 9.1c-1 1-3.1 2.1-4.6 2.5-4.6 1.1-3.3-3.4 1.8-6.3l4-2.2.3 2.1c.2 1.1-.5 2.9-1.5 3.9m-193.9 4c-3.5 3.7-4.4 3.6-4.4 0 0-2.1.9-3.7 3.3-5.5l3.2-2.6.3 2.6c.3 1.8-.5 3.5-2.4 5.5m194.6.3c0 2.4-3.4 5.6-6.7 6.2-5.7 1.1-3.5-4 2.7-6.5 3.4-1.3 4-1.3 4 .3m-190.3 3.2c.3 1.7-5.3 9.1-6.1 8.2-1.8-1.9-1.4-4.9 1-7.7 2.8-3.4 4.8-3.6 5.1-.5m187.9 6.7c-.9 3.6-9.6 6.7-9.6 3.4 0-2.2 1.6-3.7 5.5-5.1 4.7-1.6 4.9-1.5 4.1 1.7M15 132.2c0 2.1-4.9 8-6.1 7.2-1.7-1-.9-5.3 1.7-8.4 2.8-3.2 4.3-2.8 4.4 1.2m183.3 5.8c-.7 2.7-2.2 3.7-6.5 4.2-5.5.6-4.8-3.5.8-5.2 4.9-1.4 6.3-1.2 5.7 1m-180.8 1c.5 1.7-1 4.9-4.2 9-.7.8-2.3-2.4-2.3-4.4 0-1.9 3.6-6.6 5.1-6.6.4 0 1.1.9 1.4 2m3.3 8c.5 3.4-2.8 9.2-4.5 7.8-1.8-1.4-1.6-4.4.4-7.9 2-3.3 3.6-3.3 4.1.1m174.6-1.8c-2 3.6-3.9 4.8-7.6 4.8-3.8 0-4.4-.5-3-2.7 1.7-2.7 12.1-4.7 10.6-2.1M25 153.6c.8 2.1-1.6 9.4-3.1 9.4-2.5 0-3.2-5-1.3-8.5 2-3.8 3.3-4 4.4-.9m165.8.6c-1.6 2.4-10.8 4-10.8 1.9 0-2.3 3.3-4.1 7.7-4.1 4.5 0 4.5 0 3.1 2.2m-161.4 5.4c1 2.5.6 5.7-.8 8.3l-1.3 2.4-1.8-2.7c-1.7-2.6-1.7-2.9-.2-6.2 1.8-3.7 3.1-4.3 4.1-1.8m157.6.1c0 2-3.7 4.3-7 4.3-4.6 0-5.5-.8-3.3-3.2 1.6-1.7 10.3-2.7 10.3-1.1m-151.5 10c-.2 1-.7 3.1-1 4.8l-.7 3-1.9-2.4c-2.2-2.7-2.4-4.9-.7-8.7l1.2-2.6 1.7 2.1c.9 1.1 1.6 2.9 1.4 3.8m146.5-3c1.6 1.4-4.6 4.4-8 3.8-4.8-.9-5.6-2-2.9-3.9 2.1-1.4 9.2-1.4 10.9.1m-141.6 5.5c1.4 2.3 1.1 9.8-.4 9.8-2.3 0-4.2-4.1-3.5-7.9.8-4.6 1.8-5.1 3.9-1.9m133 .3c2.7.6 2.8.7 1.1 2.5-2.4 2.7-10.5 1.8-10.5-1.1 0-1.2 3.3-2.9 5-2.5zM48 182.7c0 4.4-1.4 5.5-3.8 3.1-1.3-1.3-1.6-6.6-.6-9.3 1.3-3.2 4.4 1.2 4.4 6.2m119.5-4.3 3 1.2-2.8 1.9c-2.7 1.7-2.9 1.7-6.7 0-7.1-3.2-.8-6.2 6.5-3.1m-112.7 9c.3 5-.2 5.5-3 2.9-1.2-1.1-1.8-3-1.8-6.1 0-4.4 0-4.4 2.3-3 1.6 1.2 2.3 2.7 2.5 6.2m108.2-2.3c0 .4-1.3 1.2-3 1.9-2.6 1.1-3.4.9-6.6-1l-3.6-2.3 2.3-1.2c2.3-1.3 10.9.8 10.9 2.6m-101.6 1.8c1.3 2 1.8 9.1.7 9.1-2.5 0-5.1-4-5.1-8 0-3.7.2-4 1.9-3 1.1.5 2.2 1.4 2.5 1.9m91.5 1c3.3 1.8 3.4 1.9 1.3 3-3 1.6-5 1.4-8.4-1-5.2-3.7.8-5.4 7.1-2m-85.1 1.8c2.1 1.9 4 9.3 2.4 9.3-2.2 0-5-3.8-5.5-7.3-.6-4.1.1-4.6 3.1-2m76.3 1.5c4.7 2.6 4.9 3.4 1 4.3-4.6 1-11.2-3.6-8-5.6 2-1.3 2.7-1.1 7 1.3m-68.7 1.1c1 .8 2.4 3 3.1 5 1.2 3.5 1.2 3.7-1 3.7-2.9 0-4.1-1.6-5-6.3-.8-3.9 0-4.5 2.9-2.4m61.2 2.4c2.6 1.9 3.2 2.8 2.2 3.4-2.5 1.6-5.4.9-8.1-1.9-4.6-4.8.1-6 5.9-1.5m-50.3 3.7c2.1 4.4 1.8 5.1-1.7 4.2-2.1-.5-4.6-4.7-4.6-7.8 0-2.6 4.6 0 6.3 3.6m42.5-.9 3.7 3.4-4.1.1c-6.2 0-10.7-6.5-4.6-6.9.7-.1 2.9 1.5 5 3.4m-37.3-1.9c.9.4 2.5 2.4 3.6 4.5L97 204h-2.2c-3.1 0-4.5-1.1-5.7-4.3-1.8-4.7-1.3-5.5 2.4-4.1m10.9 3.7c3.8 5 3.5 6.3-1.1 5.1-1.8-.5-5.3-5.6-5.3-7.8 0-1.9 4.3-.1 6.4 2.7m8.7-.2c3.7 3.9 3.6 4.9-.1 4.9-2.8 0-7-4.4-7-7.3 0-1.9 4.5-.4 7.1 2.4m9.1-.4c3.7 3.5 3.5 4.5-.7 4.1-2.8-.2-4.1-1-5.6-3.6l-2.1-3.2h2.8c1.7 0 3.9 1.1 5.6 2.7m-4.4-178.9c-2.4.3-4.2 3.2-2 3.2.4 0 .8.9.9 2 .1 1.4-.4 2-1.7 2s-1.7.5-1.4 1.5c.4 1.1.1 1.4-1.2 1.3-1.1-.2-2 .1-2.2.7-.4 1.2 3 2.3 7.6 2.4 1.8.1 3.1.5 2.8 1s-2.4.7-4.6.4c-2.6-.4-4-.2-4 .6 0 .6.9 1.1 1.9 1.1 3.3 0 5.1 1.1 5.1 3.1 0 1 .5 1.9 1 1.9.6 0 1-.6 1-1.4 0-1.1 1-1.3 4-.9 4.7.7 5.3-.4 1-1.8-1.6-.6-3-1.5-3-2 0-.9 3.4.2 7.1 2.2 1.2.6 2.7.8 3.6.5 2.2-.9-.3-3.6-3.3-3.6-1.3 0-2.4-.5-2.4-1 0-.6.7-1 1.5-1 1.8 0 1.7.3.6-3.7-.7-2.6-.7-3.1.5-2.6 1.9.7 1.8-.4-.5-3.2-1.3-1.7-2.1-2.1-2.9-1.3-.7.7-1.9.6-3.9-.3-1.5-.8-4-1.3-5.5-1.1m6.7 4.2c.3.5.2 1-.4 1-.5 0-1.3-.5-1.6-1-.3-.6-.2-1 .4-1 .5 0 1.3.4 1.6 1m-2.7 4.2c-.2 1.3-1.1 2.4-2 2.6-1.4.3-1.5 0-.5-2.2 1.5-3.2 3-3.4 2.5-.4m4.6 1c-.8 2.9-1 3.1-2.3 2.3-.8-.4-.8-1.2-.1-2.6 1.5-2.7 3.3-2.4 2.4.3m-47.5-6.5c-.1.5-.2 1.7-.3 2.7-.1 1.1-1.4 2.7-3 3.6s-3.1 2.1-3.3 2.7c-.6 1.8 2.9 2.4 4.7.8.9-.8 2.2-1.5 2.8-1.5 2.3 0 1.2 4.2-1.8 7-2.4 2.3-2.7 3-1.7 4.4 1.9 2.6 5.5-.5 6.3-5.5.7-4.5 1.2-4.6 5.6-1.9 4.2 2.6 8.4 2.6 9.8.1.9-1.7.6-2-2.3-2.6-11.3-2.3-12.7-3.3-7.7-5.2 3.1-1.2 4.2-4.3 1.5-4.3-.9 0-3 .7-4.6 1.6-2.9 1.5-3.1 1.4-3.6-.5-.5-2-2.1-2.9-2.4-1.4m72.6 13.2c-.9 1.6 3.5 3.5 4.8 2.2.9-.9.8-1.4-.3-2.1-1.9-1.2-3.7-1.3-4.5-.1m-3 3.1c-.9 1.5.4 3 2.5 3 2.9 0 3.2-1.6.5-2.8-1.5-.7-2.6-.8-3-.2M46 40.4c0 .8.9 1.7 1.9 2.1 3.4 1 3 3.1-1.5 8.6-4.6 5.8-5.4 7.9-2.7 7.9.9 0 2.5.7 3.5 1.7 1.6 1.4 1.8 1.4 1.8.1 0-.9-.9-2.2-2.1-2.9-1.8-1.3-1.9-1.6-.5-3.4 1.3-1.6 1.7-1.7 2.5-.6.6.9 1.1 1 1.5.2.4-.6 1.2-1.1 1.8-1.1s.3.9-.7 2-1.5 2.3-1.1 2.8c.4.4 1.6-.3 2.6-1.6 1-1.2 2.4-2.2 3.1-2.2s.3 1.1-1.1 2.5c-1.9 2-2 2.5-.7 2.5 2.7 0 4.9-3 4.2-5.7-.3-1.4-.1-3.1.6-3.9 1.6-1.9.4-3-1.6-1.4-1 .8-1.5.9-1.5.1 0-1.8-1.7-1.3-4.1 1.1-1.9 2-2 2.1-1.1.3 2-3.9 5-5.9 6.7-4.5 2.1 1.8 2.9.6 1.3-1.9-1.4-2.3-2.9-2.6-4.5-1-.8.8-1.7.5-3.2-1-2.4-2.4-5.1-2.8-5.1-.7m111.4 2.8c-.4 1.3-.2 2.4.5 2.6.6.2 1.1.8 1.1 1.4 0 .5-1.2 0-2.6-1.1-1.5-1.2-3.1-2.1-3.5-2.1-1.4 0-1.1 2.8.4 3.3 2.1.9-1.5 2.8-4.8 2.5-2.2-.2-3.1.2-3.3 1.4-.3 1.4.3 1.8 2.6 1.8 3.1 0 7.9 4.1 6.7 5.9-.3.6-.3 1.6.1 2.2.4.8 1.9-.2 4.1-2.7l3.3-3.9 1.6 2.2c1.8 2.5 4.4 3.1 4.4 1.1 0-.7-1.5-2.8-3.2-4.7-1.8-1.9-2.5-2.9-1.5-2.1 1.6 1.2 2 1.2 2.7-.1.5-.8 1.2-1.3 1.5-1.2.9.5.7-.1-1.1-3.2-1.5-2.7-5.4-5.5-7.5-5.5-.4 0-1.1 1-1.5 2.2m4.2 2.6c-.4.3-1.4-.2-2.4-1.2-1.6-1.8-1.6-1.8.6-.6 1.3.6 2.1 1.4 1.8 1.8m-2.6 4.7c2 2.4.6 2.8-1.5.5-1-1.1-1.3-2-.8-2 .6 0 1.6.7 2.3 1.5m-4 1.5c0 .5-.4 1-1 1-.5 0-1-.5-1-1 0-.6.5-1 1-1 .6 0 1 .4 1 1m3 3c0 .5-.4 1-1 1-.5 0-1-.5-1-1 0-.6.5-1 1-1 .6 0 1 .4 1 1M42.6 43.8c-1.4 1.7-1.3 1.9 1.3 3.5 2.7 1.6 3 1.6 4.2 0 1.1-1.3 1.1-1.7.1-2.1-.7-.2-1.9-1-2.6-1.7-1.2-1.2-1.6-1.1-3 .3m99.7-.3c-.8 2.2-.1 2.6 3.7 1.9l3.2-.7-2.3-1.3c-3.1-1.7-3.8-1.7-4.6.1m-46.6.6c-6.7.7-22.1 6.1-23.3 8.1-.4.6.1.8 1.3.4 1-.3 2.8 0 3.9.8 3 2.3-.7 3.2-4 1.1-3-2-4.4-1.3-11.8 5.3-31.7 28.7-23.5 82.4 15.5 100.6 9.9 4.6 30.6 7 38.7 4.4.8-.2 3-.8 4.7-1.2 7.7-1.8 22.1-10.7 27.6-17.1 7.8-9 15.7-25.9 15.7-33.5v-3l-2 2c-2.3 2.3-4 2.6-4 .6 0-.7 1.4-1.9 3-2.6 3.3-1.4 3.3-1.6 3-10.5-.9-26.3-25.2-52.1-51.6-55.1-2.7-.3-6-.6-7.4-.8-1.4-.1-5.6.1-9.3.5m6 2.9c1.7 2.7-.3 3.7-2.8 1.4-1-.9-1.9-2.1-1.9-2.6 0-1.6 3.5-.8 4.7 1.2m5.1.9c.4 2.9-1.5 2.5-3.6-.8-1.5-2.2-1.5-2.3.9-1.9 1.6.2 2.5 1 2.7 2.7m4-1.7c1.5 1.5 1.6 4.1 0 3.6-2-.7-4.3-4.8-2.6-4.8.8 0 1.9.5 2.6 1.2m-14 1c.7.7 1.2 1.6 1.2 2 0 1.5-2.7.8-4.5-1.2-1.8-1.9-1.7-2 .1-2 1.1 0 2.5.5 3.2 1.2m19.7.9c1.2 3.8-1.5 3.7-3.5-.2-.9-1.6-.7-1.9.9-1.9 1.1 0 2.3.9 2.6 2.1m-24.7.1c.7.7 1.2 1.6 1.2 2 0 1.4-2.7.9-4-.7-.7-.8-1.7-1.5-2.2-1.5-.6 0-.5.7.2 1.5 1.8 2.2.5 3-2.5 1.7-4.4-2-2.7-3.6 4.1-4.1 1.1 0 2.5.4 3.2 1.1m29.2.3c.6.8 1 2.2.8 3.1-.3 1.7-.4 1.7-2 0-1.9-1.8-2.4-4.6-.9-4.6.5 0 1.4.7 2.1 1.5m5 3.2c0 3.3-2.4 2.5-2.8-1-.3-2.1 0-2.6 1.2-2.1.9.3 1.6 1.7 1.6 3.1m-43.5-.4c1.3 1.1 1.5 1.6.6 2.2-1.4.8-6.1-1.3-6.1-2.7 0-1.3 3.4-.9 5.5.5m17.3 17.4c-.2 6.5.1 9.4.9 9.7.7.3 1-.1.6-1-.3-.7-.1-1.4.5-1.4s1.9-.3 2.9-.6c1.6-.5 1.6-.4-.1 1-1.1.9-1.6 1.7-1 1.7.5.1 1.5.2 2.3.3.8 0 1.6.6 1.8 1.2.5 1.6-7.2 1.3-8.9-.4-1.5-1.5-3-1.5-6.1-.1-2.3 1-2.4 1.2-.8 2.8 1.2 1.3 2.1 1.5 3.8.8 2.1-.9 2.1-1.1.5-2.3-1.6-1.3-1.6-1.3.1-1.4 1 0 2 .6 2.3 1.4.3.9 2.3 1.4 5.5 1.5 8.4.1 18.7 7.2 21.1 14.3.4 1.1.8 1 2.1-.1 1.5-1.2 1.7-1.1 1.7.3 0 .9-.6 1.9-1.3 2.2-.9.3-1.3 2.3-1.3 5.8 0 4.2.3 5.3 1.4 4.9.9-.4 1-.8.3-1.3-.7-.4-.2-1.4 1.3-2.7 2.5-2.2 3.6-2 3.6.4 0 .7-.7 1.3-1.5 1.3s-1.5.7-1.5 1.6-.8 1.8-1.9 2.1c-1 .2-2.5 1.9-3.3 3.7-2.5 5.1-6.3 9-11.2 11.5-3.8 1.9-4.5 2.5-3.5 3.7.9 1 .9 1.4 0 1.4-.6 0-1.4-.7-1.7-1.5-.4-1-2-1.4-5.2-1.4-5.9.2-10.8-1.9-16-6.6-3.6-3.2-4.2-3.4-5-1.9-.7 1.3-1.1 1.4-1.7.4-.5-.8-.2-1.7.7-2.4 1.2-.9 1.3-1.6.2-4.1-3.4-7.8-.6-19.2 6-25.3 4.1-3.8 4.2-4.1 2.5-5.6-1-.8-2.1-1.1-2.4-.7-.3.5.2 1.2 1.1 1.5 1.9.7-.4 3.6-3 3.6-1.9 0-2.1-1.6-.3-2.3.7-.3-2.8-4.6-8.6-10.4l-9.9-10 4.9-3.5c6.6-4.7 12.8-7.4 20.9-9.1l6.9-1.4.3 4.6c.2 2.5.2 8.7 0 13.8m5.2-17.8c0 .5-.9 1.1-2 1.4-2.2.6-2.8-.8-.7-1.6 1.9-.8 2.7-.8 2.7.2m16.7 3c5.1 1.8 11.7 5.4 15.8 8.6 1.9 1.5 1.6 1.9-7.4 10.9l-9.4 9.4-3.1-1.9c-4-2.4-4.5-2.4-3.8.3.3 1.4.2 1.9-.6 1.4-.7-.4-1.2-1.6-1.2-2.7s-.7-1.9-1.7-1.9c-1.4 0-1.5.2-.4.9.7.5 1.1 1.5.9 2.2-.4.9-1 .5-1.8-1.4-.7-1.5-1.7-2.7-2.2-2.7-.4 0-.7-.6-.5-1.3.1-.7-.8-1.1-2.6-1s-2.7-.2-2.4-1c.2-.7 1.5-1.2 2.8-1.2 2.4 0 2.8-1.9 2-7.6-.1-.3-1.2-.4-2.6-.1-1.5.2-2.5 0-2.5-.7 0-.6.8-1.2 1.8-1.2 1.5-.1 1.5-.2.1-.6-1.3-.3-1.6-1.5-1.5-4.6.1-3.7.4-4.2 2.6-4.5 2.4-.2 2.4-.2.6 1.3-1.9 1.4-1.9 1.5-.2 1.5 1.5 0 1.6.3.7 1.4-.9 1-.8 1.5.2 1.9s1.2-.6 1.1-3.7c-.1-2.2.3-4.4.8-4.7 1.2-.8 7.5.5 14.5 3m8.1-2.7c1.5 1.5 1.6 4.8.2 4.8-.9 0-3-4-3-5.6 0-.8 1.6-.4 2.8.8m5.2 5.4c0 1.7-.4 2.2-1.5 1.8-.9-.4-1.5-1.9-1.5-3.6 0-2.6.2-2.9 1.5-1.8.8.7 1.5 2.3 1.5 3.6m-61.6-1c2.2.9 2 2.4-.3 2.4-2.8 0-5.2-1.1-4.5-2.1.6-1 2.6-1.2 4.8-.3m65.4 1c.5.9.7 2.5.4 3.6-.6 2.6-3.2.4-3.2-2.8 0-2.8 1.5-3.2 2.8-.8m-68.9 2.3c1 .6 1 1 .1 1.6-1.5 1-6.2-.3-5.5-1.5.8-1.2 3.5-1.3 5.4-.1m73.1 3.2q0 3-1.2 2.7c-1.5-.5-2.2-3.3-1.4-5.4.9-2.4 2.6-.6 2.6 2.7m-76 .6c1 .9-2.2 2-4.6 1.5-2.6-.5-3.2-1.7-1.1-2.5 1.2-.5 4.7.1 5.7 1m79.6 3.8c-.4 1.4-1.1 2.3-1.6 2-1.1-.7-1.3-4.8-.3-5.9 1.3-1.3 2.6 1.3 1.9 3.9m-84.1 0c0 .5-1.2 1.1-2.7 1.3-2.7.3-3.6-.7-2.1-2.2 1-1 4.8-.3 4.8.9m3.5 1c-.7.9-1.5 1.3-1.8 1-.3-.2.1-1.1.8-2s1.5-1.3 1.8-1c.3.2-.1 1.1-.8 2m76.1-.9c1.2 1.4 1.1 1.6-.5 1.3-1.1-.2-2.1-1-2.4-1.7-.5-1.7 1.3-1.5 2.9.4m7.7 4c-1.6 3.4-3.2 1.4-2.3-2.7.7-3 .9-3.1 2.1-1.5 1 1.4 1 2.4.2 4.2M105.5 67c-.3.5-1.5 1-2.6 1s-1.7-.5-1.4-1c.3-.6 1.5-1 2.6-1s1.7.4 1.4 1m-36.5.7c0 .5-.4 1.5-1 2.3-1.1 1.8-2.5.7-1.7-1.5.6-1.5 2.7-2.1 2.7-.8m71.3.7c1.2.9 1.4 1.6.7 2.1-1.2.7-4-1.1-4-2.6 0-1.3 1.2-1.1 3.3.5m-80.5 1.8c-.5 1.5-5.8 2.4-5.8 1 0-1.5 1.2-2.2 3.8-2.2 1.4 0 2.2.5 2 1.2m22.8 17.7c.5-.1 1.5-.1 2.1 0 1.7.1-1.6 4.1-3.4 4.1-1.9 0-1.6-1.8.5-2.3 1.6-.4 1.6-.5 0-.6-1 0-2.4 1.2-3.3 2.9-1.9 3.7-1.9 4 .6 4 1.2 0 1.7.4 1.3 1.1-.3.6-1.5.9-2.5.6-1.2-.3-1.9 0-1.9.8s.8 1.1 2.3.8c2.1-.4 2.1-.4.3 1.1-1 .8-2.3 1.3-2.7 1-.5-.3-.9.7-.9 2.1 0 2.1.4 2.5 1.9 2 2.1-.6 2.8 3.9.8 5.2-.6.4-.8 0-.4-1s-.1-1.8-1.4-2.2c-1-.4-2-1.4-2-2.3-.1-1.5-.2-1.5-.6 0-.5 2.1-2.3 2.4-2.3.5 0-.8-.4-.7-1 .3-.8 1.2-1.1 1.3-1.9.1-.7-1.1-.9-1.1-1.3 0-.6 1.8-2.8.2-2.8-2.2 0-1-.4-1.9-1-1.9s-.6.9 0 2.5c.9 2.3.7 2.5-2 2.5-2.1 0-3-.5-3.1-1.8-.1-1.4-.2-1.4-.6-.1-.6 2.5-8.3 2.2-8.3-.3 0-1.1.5-1.6 1-1.3.6.3 1 .1 1-.4 0-.6-.5-1.1-1.1-1.1-.7 0-.9-1.5-.5-4.3 1.1-8.9 4.1-16.1 9.9-24.6l2.9-4.3 9.7 9.6c5.4 5.4 10.2 9.6 10.7 9.5M70.7 71.1c-.4 1.5-.2 1.8.7 1s1.8-.6 3 .8C76 74.6 75.7 78 74 78c-1.4 0-2.1-1.8-1-2.5.5-.3 1-1.2 1-1.8 0-.7-.5-.4-1.1.5-1.3 2.3-2.1 2.3-3.7-.3-1-1.6-1-2.4-.1-3.5 1.6-2 2.2-1.7 1.6.7m34.9-1.2c-.7 1.1-4.6 2.1-4.6 1.2 0-1.3 1.3-2.1 3.2-2.1 1.1 0 1.7.4 1.4.9m41.1 1.9c5.7 7.8 9.6 18.3 10.8 29.4.6 5.7.6 5.8-1.9 5.8-1.8 0-2.6-.6-2.7-1.8-.1-1.6-.2-1.6-.6 0-.2 1-.9 1.8-1.4 1.8s-1-.8-1-1.8c-.1-1.6-.2-1.6-.6 0-.5 2.1-2.3 2.4-2.3.5 0-.9-.3-.8-.9.2-1.1 1.8-3.1.5-3.1-2 0-1-.4-1.9-1-1.9s-.6.9 0 2.5c.9 2.3.7 2.5-2 2.5-2.1 0-3-.5-3.1-1.8-.1-1.6-.2-1.6-.6 0-.5 2.1-2.3 2.4-2.3.4 0-.8-.6-2.1-1.3-2.8s-1.8-3.3-2.6-5.6c-1.1-4.1-1.3-4.3-2.6-2.5-.8 1-1.5 1.5-1.5 1 0-1.5-.4-2.3-2.2-4.1-2-2.2-2.2-3.2-.8-4.1.6-.3 1 .2 1 1.1 0 1 .2 1.5.4 1.3s.4-.7.3-1.1C124.5 88 143.1 69 144 69c.4 0 1.6 1.3 2.7 2.8m-8.2-.8c1 1.7-2.3 4.2-4.5 3.5-2.6-.8-2.6-2.9.1-2.2 1.6.4 1.8.3.8-.9-.9-1.1-.8-1.4.9-1.4 1.2 0 2.4.5 2.7 1m14.5 1.2c0 1.3-.4 2.9-.9 3.7-1.3 2-2.4-.4-1.7-3.5.8-3 2.6-3.2 2.6-.2m-96.2 2c-.5 1.5-5.8 2.4-5.8 1 0-1.5 1.2-2.2 3.8-2.2 1.4 0 2.2.5 2 1.2m76.7 1.1c1.3 1 1.5 1.6.6 2.1-1.2.8-4.1-1-4.1-2.5 0-1.3 1.3-1.1 3.5.4m21.6 3.3c-.9 2-1.5 2.4-2.3 1.6-.9-.9-.8-1.8.2-3.7 1.9-3.5 3.8-1.6 2.1 2.1M78 77.4c0 .7-.7 1.9-1.5 2.6-1.6 1.3-2 .3-.9-2.4.8-2 2.4-2.1 2.4-.2m53 .1c.7.9 1 1.8.7 2.2-.8.7-3.7-1.5-3.7-2.8 0-1.4 1.6-1.1 3 .6m-76.2.7c-.6 1.6-5.5 3.4-6.5 2.4s2.6-3.6 5-3.6c1 0 1.7.5 1.5 1.2M82 83.7c-1.2 1.5-1.2 1.6 0 .5 2.3-2 3.5-1.4 1.5.8-1.7 1.9-1.9 1.9-3.1.3-.8-1.2-.9-2.4-.3-3.8.9-1.8.9-1.9-.4-.3-1.7 2.1-2.7 2.3-2.7.5 0-2.9 2.3-3.8 4.4-1.8 1.7 1.7 1.8 2.2.6 3.8m46.4-4.1c2.4.9 1.9 2.7-.5 2.1-1.7-.5-1.8-.3-.7 1 1.2 1.5 1 1.6-1.7 1-2.7-.7-2.8-.6-1.2.7 1 .8 1.4 1.7.9 2-1.4.9-3.5-2.1-2.6-3.6 2.3-3.7 3.2-4.2 5.8-3.2m29.6 1.3c0 2.3-2.5 4.6-3.4 3.2-.7-1.1 1.4-5.1 2.6-5.1.5 0 .8.8.8 1.9m-62.5.1c.3.5-.1 1-.9 1s-1.8-.5-2.1-1c-.3-.6.1-1 .9-1s1.8.4 2.1 1m21.5 1.5c0 .8-.4 1.5-1 1.5-.5 0-1-.7-1-1.5s.5-1.5 1-1.5c.6 0 1 .7 1 1.5m-64.9.9c-1.2 1.5-6.1 2.8-6.1 1.7 0-1.5 2.5-3.1 4.8-3.1 2 0 2.2.3 1.3 1.4m69.9 3.3c0 .7-.4 1.3-1 1.3-.5 0-1-.7-1-1.6 0-.8-.4-1.2-1-.9-.5.3-1-.3-1-1.4 0-2 .1-2 2-.4 1.1 1 2 2.3 2 3m37 1.9c-.7.7-1.6 1.4-2.1 1.4-1.5 0-1-3.2.9-5.3 1.7-1.9 1.7-1.9 2 .2.2 1.2-.2 2.9-.8 3.7m-108.9-.2c-1.8 2.2-5.3 2.8-4.9.8.2-.9 1.4-1.9 2.8-2.2 3.1-.8 3.6-.5 2.1 1.4m110.5 4.2c-1.3 1.8-2.1 2.3-2.8 1.6-.8-.8-.6-1.9.6-3.8 1.3-1.8 2.1-2.3 2.8-1.6.8.8.6 1.9-.6 3.8m-111.2-.2c-.8 2.1-5.4 3.9-5.4 2.1 0-1.5 2.6-3.4 4.7-3.5.7 0 1 .6.7 1.4M81.5 94c-.3.5-1.3 1-2.1 1s-1.2-.5-.9-1c.3-.6 1.3-1 2.1-1s1.2.4.9 1m81.5.8c0 2.1-1.8 4.2-3.7 4.2-1.8 0-1.6-2 .5-4.1 2.2-2.3 3.2-2.3 3.2-.1M49 96.5c0 .7-4.3 4.5-5.2 4.5-1.5 0-.8-2.9 1-3.9 1.8-1.1 4.2-1.4 4.2-.6m80.1 4.8c-1.6 1.6-2.6 0-1-1.9.9-1.1 1.5-1.2 1.7-.4.2.6-.1 1.7-.7 2.3m33.9-1c0 1.4-2 3.7-3.2 3.7s-1-2.4.4-3.8c1.6-1.6 2.8-1.5 2.8.1m-117.1 4c-1.7 1.4-2.5 1.5-2.8.6-.2-.7.7-2.1 2-3.2 1.7-1.4 2.5-1.5 2.8-.6.2.7-.7 2.1-2 3.2m33.1-1.4c0 .5-.7 1.1-1.5 1.5-1.5.5-2-.5-.8-1.7.9-1 2.3-.9 2.3.2m51 .6c-.7.8-1.7 1.5-2.2 1.5-.6 0-.5-.7.2-1.5s1.7-1.5 2.2-1.5c.6 0 .5.7-.2 1.5m34 1.4c0 1.4-3 4.1-4.5 4.1s-2 1.3-3.1 7.5c-1.2 7.1-4.8 14.5-11.6 24-.8 1.2-18.8-16.3-18.8-18.3 0-.7.7-2.5 1.6-4 1.5-2.6 1.5-2.6-.1-.5-1.8 2.3-4.5 3.1-4.5 1.3 0-.6.7-1 1.5-1 .9 0 1.2-.6.9-1.5-.4-1 0-1.5 1.4-1.5 1.2 0 2.3-.4 2.6-.9.4-.5-.3-.7-1.4-.4-2.9.8-2.5-.6.5-1.7 1.4-.5 2.5-1.7 2.5-2.5 0-1.4 1.8-1.6 13.4-1.4 12.4.1 13.6-.1 15.5-2 2.2-2.2 4.1-2.7 4.1-1.2m-117.6 4.2c-2 2.3-3.4 2.5-3.4.5 0-1.9 4.4-5 4.8-3.6.2.6-.4 2-1.4 3.1m29.4 1.6c.4 2.6 1.2 2.9 3 1.1 1.3-1.3 1.5-.8.6 1.6-.3.9-1 1.3-1.5 1-1.5-.9-1 .9 1.2 4.5l2.1 3.4-9.4 9.4-9.3 9.4-2.3-2.8c-1.2-1.5-3.7-5.6-5.4-9.1-1.7-3.4-3.4-6.2-3.7-6.2-1.1 0-3.1 2.3-3.1 3.4 0 .6.5.5 1.2-.2 2.8-2.8 3.9-.1 1.4 3.3-1.3 1.8-1.5 1.7-3-1.9s-1.5-4 0-5.7c.9-1 2.1-1.6 2.7-1.2.7.4.8-.1.3-1.3-.4-1-1-4.1-1.3-6.7l-.6-4.8 13.4.3c13 .3 13.4.4 13.7 2.5m-29.5 4.5c-1.8 2.1-1.8 2.1.5.9 2.9-1.5 3.2 1.7.3 4.3-1.8 1.6-1.9 1.5-2.5-2.5-.5-3.3-.3-4.6 1.1-6.1 1.6-1.8 1.8-1.8 2.1-.3.2.9-.5 2.6-1.5 3.7m33.8 2.1c-.8.8-1.1.7-1.1-.4 0-2 1.3-3.4 1.8-1.9.3.7-.1 1.7-.7 2.3m82.9-2.6c0 1.6-1.6 3-3.7 3.7-3 .9-3-.8-.1-2.8 2.4-1.7 3.8-2 3.8-.9m-79 6.4c0 1.1-.4 1.8-1 1.4-.5-.3-.7-1.2-.3-2 .7-2.1 1.3-1.9 1.3.6m78-1.2c0 1-1.9 2.6-4.2 3.4-2.7 1-2.2-2.2.5-3.3 2.9-1.2 3.7-1.2 3.7-.1m-37.5 3.7c-.3 2.8-1.2 4.1-2.1 3.1-.4-.4-.1-1.3.6-2.2 1-1.2.9-1.6-.4-2.1-.9-.3-1.4-1-1.1-1.5 1.1-1.7 3.3.3 3 2.7m-38.6 1.6c-1.4 2.6-4.9 1.4-4.9-1.6 0-.6.5-.5 1.2.2 1.3 1.3 2.9 1.6 2.7.4-.4-2.5.1-3.7 1-2.3.6.9.6 2.2 0 3.3m36.3-1c-.9.9-1.5.9-2.4 0s-.7-1.2 1.2-1.2 2.1.3 1.2 1.2M89 126.1c0 1.1-.4 1.7-1 1.4-.5-.3-1-1.3-1-2.1s.5-1.4 1-1.4c.6 0 1 .9 1 2.1m71-1.3c0 1.4-2.3 3.2-4.2 3.2-2.5 0-2.2-1.9.5-3 2.8-1.1 3.7-1.2 3.7-.2m-78 1.7c1.8 2.2.5 3-1.9 1.3-1.2-.8-1.8-1.8-1.4-2.1 1-1.1 1.9-.8 3.3.8m10 1.7c0 .5-.4.8-1 .8-.5 0-1-1-1-2.3 0-1.8.2-1.9 1-.7.5.8 1 1.8 1 2.2m28-2.4c0 1.2-4 3.3-5 2.7-1.7-1-1.1-2.5.7-1.8 1.1.4 1.4.3.9-.5s0-1.2 1.3-1.2c1.2 0 2.1.3 2.1.8m6.7 1.3c-.4 1.5-.2 1.8.7 1 2-1.7 5.3 2.3 3.6 4.4-1.8 2.1-3.2.8-1.9-1.8l1.2-2.2-2.1 2-2 2 6.5 6.3c6.4 6.2 6.5 6.4 4.6 8.4-1 1.1-2.7 2.4-3.8 2.9s-3.3 1.7-5 2.7c-7.1 4.3-25.7 8.4-27.1 6-.3-.4.6-.8 2-.8s2.6-.5 2.6-1c0-.6-1.1-.8-2.5-.4-1.5.4-2.5.2-2.5-.5 0-1 1.4-1.4 4.5-1.4.8 0 1.2-7 .6-10.8-.1-.3-1.2-.4-2.6-.1-1.5.2-2.5 0-2.5-.7 0-.6.8-1.2 1.8-1.2 1.4-.1 1.4-.2.1-.6-2.5-.6-2.2-8.3.3-8.3 1.1 0 1.6.4 1.3 1-.3.5-.1 1 .6 1 .9 0 .9.3 0 1.4-.9 1-.8 1.5.2 1.9 1.1.4 1.3-.2 1.1-2.4-.3-2.5 0-3 3.6-4 3.6-1.1 3.8-1.3 2.2-2.5-1.4-1.1-1.5-1.3-.1-1.4.8 0 2 .5 2.6 1.1.8.8 1.8.6 3.5-.5 2.3-1.5 2.6-1.5 4.3.4 1 1.1 2.3 2 2.9 2s.5-.4-.3-.9-1.1-1.6-.6-3c.8-2.7 2.9-2.8 2.2 0m-36.6 2.4c5.4 3 6.9 3.1 6.2.5-.6-2.1 1.5-2 4.5.3q1.2.9 1.2-.3c0-1 .3-1 1.4-.1s1.5.9 1.8 0c.4-1.3 2.8-.4 2.8 1 0 1.1-7.1.9-8.7-.2-.8-.5-1.3-.4-1.3.2 0 .5.5 1.3 1 1.6.6.4 1 6 1 13.6v13l-5.6-.6c-3.1-.4-6.4-1-7.3-1.5s-3.1-1.4-5-2.1-6.1-3.1-9.4-5.2l-5.9-4 9.3-9.3c5.2-5.2 9.4-9.4 9.5-9.4s2.2 1.1 4.5 2.5m4.9.1c0 .8-.4 1.2-1 .9-.5-.3-1-1.3-1-2.1s.5-1.2 1-.9c.6.3 1 1.3 1 2.1m-15.6-1c2.4.9 1.9 2.7-.5 2.1-1.6-.4-1.8-.3-.8.9 1.3 1.6-.6 2-3 .5-2.6-1.7 1.2-4.7 4.3-3.5M54 131.4c0 2.8-2.5 5.5-3.3 3.4-.5-1.6 1.3-5.8 2.5-5.8.4 0 .8 1.1.8 2.4m103.8-1.2c-.5 1.5-5.8 2.4-5.8.9 0-1.1 1.7-1.9 4.3-2 1.1-.1 1.7.4 1.5 1.1m-82.5 3.2c1.2.9 1.4 1.6.7 2.1-1.2.7-4-1.1-4-2.6 0-1.3 1.2-1.1 3.3.5m58.7-.7c0 .5-.4 1.5-1 2.3-1.1 1.8-2.5.7-1.7-1.5.6-1.5 2.7-2.1 2.7-.8m-78.1 5.4c-1.7 3.3-3.6.8-2-2.8 1.1-2.4 1.4-2.6 2.2-1 .7 1.1.6 2.4-.2 3.8M74 137c0 1.3-.7 1.3-3.1-.1-1.1-.5-1.7-1.4-1.4-2 .7-1.1 4.5.7 4.5 2.1m61.5-.3c-.6 2.5-.5 2.6.7 1 1.3-1.8 1.4-1.7 3.3.3 1.6 1.8 1.7 2.2.4 3.5-1.9 2-7.4-3.1-6.3-5.8 1-2.8 2.7-1.9 1.9 1m19.5-1.2c-1.4 1.6-4.6 2-5.4.6-.9-1.3.5-2.1 3.7-2.1 2.5 0 2.8.2 1.7 1.5M71 138c.8.5 1.2 1.2.8 1.5-.9.9-4.8-.4-4.8-1.6s2.1-1.1 4 .1m-11.8 3c-.3 3-1 3.6-2.3 2.3-1.4-1.4-.1-5.6 1.4-5 .7.2 1.1 1.5.9 2.7m93.6-1.8c-.5 1.5-6.8 2.4-6.8 1 0-1.5 1.3-2.2 4.3-2.2 1.8 0 2.7.4 2.5 1.2m-84.2 1.3c1.8 1.5 1.8 1.5-.5 1.3-1.4-.2-2.6-.9-2.9-1.6-.5-1.7 1-1.5 3.4.3m-6.1 5.6c-.6 1.9-.9 2-2.2.6-1.2-1.2-1.3-1.9-.3-3.7 1.1-2.1 1.3-2.1 2.2-.6.5.9.6 2.6.3 3.7m3.2-3.9c1.6 2.1.4 10.1-1.3 8.7-1.9-1.5-1.8-4.8.1-5.6 1.4-.5 1.4-.8-.1-2.4-.9-1.1-1.2-1.9-.7-1.9.6 0 1.5.6 2 1.2m76.3.8c-1 1.8-.7 2.1 2.1 2.7 2.8.5 3 .7 1.5 1.8-3.5 2.6-7.3-1.8-4.9-5.8 1-1.8 2.3-.6 1.3 1.3m8-.1c0 1.3-3.4 2.3-5.4 1.5-.9-.3-1.3-1-1-1.5.7-1.2 6.4-1.2 6.4 0m-44.5 3.1c-.3.5-1.5 1-2.6 1-1 0-1.9-.5-1.9-1 0-.6 1.2-1 2.6-1s2.3.4 1.9 1m-35.7 6c.3 3 .2 3.2-1.2 2.1-1.9-1.6-2.2-6.5-.3-5.9.6.3 1.3 2 1.5 3.8m35.8-3.1c-.7 1.1-4.6 2.1-4.6 1.2 0-1.3 1.3-2.1 3.2-2.1 1.1 0 1.7.4 1.4.9m36.2 2.3c-1.7 1-3 1-4.8-.2-2.4-1.6.7-3.1 3.7-1.7 1.7.8 2 1.3 1.1 1.9m-68.3.8c1.3 2.1 1.3 5 0 5s-2.5-2.1-2.5-4.6c0-1.6 1.6-1.9 2.5-.4m31.1.5c-2.2 1.7-3.6 1.9-3.6.7 0-1.4 1.2-2.2 3.4-2.2 2.1.1 2.1.1.2 1.5m33.2 1.7c-1.7 1-3 1-4.8-.2-2.4-1.6.7-3.1 3.7-1.7 1.7.8 2 1.3 1.1 1.9M79 157.6c0 1.7-.4 2.2-1.5 1.8-.9-.4-1.5-1.9-1.5-3.6 0-2.6.2-2.9 1.5-1.8.8.7 1.5 2.3 1.5 3.6m53.2-2.5c1.9 1 1.9 1.2-1.3 3.1-3.3 2-7.9 1.3-7.9-1.2 0-1.3 3.7-1.3 4.5 0 .3.5 1.2 1 1.8 1 .7 0 .4-.6-.5-1.4-3-2.2-.3-3.5 3.4-1.5m-48.8 3.1c.9 3.6.7 3.9-1.4 2.8-2.3-1.2-2.7-5-.6-5 .7 0 1.6 1 2 2.2m5 2.1c.6 2.6.2 3.1-1.9 2.4-.8-.4-1.5-1.8-1.5-3.1 0-3.1 2.5-2.6 3.4.7m35-.8c1.8 1.3 1.8 1.5.2 2.1-1.1.4-2.5-.1-3.9-1.5-2.1-2-2.1-2.1-.2-2.1 1.1 0 2.9.7 3.9 1.5M93 161.1c.7 1.1.9 2.3.6 2.6-1 1-3.3-.5-3.9-2.6-.7-2.8 1.9-2.8 3.3 0m25.5-.1c1.8 1.9 1.7 2-.1 2-2 0-4.4-1.7-4.4-3.2s2.7-.8 4.5 1.2m-20.5.9c1.2 2.4 1.3 3.1.1 3.1s-4.1-2.9-4.1-4.1c0-1.7 2.9-.9 4 1m5 .3c1.9 2.1 2 2.3.4 2.7-1 .2-2.4-.5-3.1-1.5-2.8-3.8-.6-4.7 2.7-1.2m5 0c1.9 2.1 2 2.3.4 2.7-1 .2-2.4-.5-3.1-1.5-2.8-3.8-.6-4.7 2.7-1.2m5.5-.2c1.8 1.9 1.7 2-.1 2-2 0-4.4-1.7-4.4-3.2s2.7-.8 4.5 1.2M86.4 57.3c-2.9 1.2-6.2 2.9-7.4 3.7l-2.3 1.6 2.7 4.3c1.5 2.4 3 5.8 3.3 7.7.3 1.8.9 3.1 1.4 2.8 1.5-.9 1-3.9-1.6-8.9-2.4-4.8-2.1-7.5.8-7.5.8 0 .8.3 0 1.1-1.7 1.7.4 5.6 3.4 6.4 1.9.4 2.3 1 1.8 2.6-.6 1.8-.5 1.9 1.4 1 2.7-1.5 3 .6.4 2.5-1 .7-1.4 1.6-1 2 1.1 1.2 4.1-1 4.5-3.2.2-1 1.4-2.7 2.5-3.6 1.9-1.5 1.9-1.8.5-1.8-2.2 0-3.8-3-3.8-6.9 0-2.9-.1-3-3.1-1.9-1.6.6-3.2.8-3.5.5s1.1-1.1 3-1.8c2-.7 3.6-1.7 3.6-2.1 0-1.2-.9-1-6.6 1.5m1.6 5.2c-1.4.7-2.7 1.1-3 .9-.6-.7 2.2-2.4 4-2.3.9 0 .5.6-1 1.4m1.6 2c-1.1.8-2.5 1.5-3 1.5-.6 0-.2-.7.8-1.5 1.1-.8 2.5-1.5 3-1.5.6 0 .2.7-.8 1.5m13.1 23.2c-.2.5-1.2 3.2-2.1 6L98.8 99l-6.6.1h-6.7l2.9 2.2c1.6 1.2 4 3.1 5.4 4.3l2.5 2.1-2.1 6.2c-1.3 3.7-1.6 5.9-.9 5.4.7-.4 3-2 5.1-3.5 4.9-3.5 4.8-3.5 10.7.8 5.5 4 5.7 3.7 2.9-3.8-1.1-2.9-2-5.4-2-5.4 0-.1 2.5-1.9 5.6-4l5.7-3.9-7-.3-7.1-.3-1.6-5.9c-1.7-6-2.1-6.7-2.9-5.3m17.9-29.9c-.4.7-2.2 1.2-4.1 1.2-3.8 0-4.1.6-4.9 8.6-.7 6.5.6 8.3 6.3 8.6l4.5.3 3-5.8 3.1-5.9-3.1-2.6c-1.7-1.5-3.3-3.4-3.6-4.2-.3-1-.6-1.1-1.2-.2m2.7 5.4c1.5.6 2.7 1.5 2.7 2 0 .6-1.1.8-2.7.4s-4-1-5.5-1.3c-2.8-.5-3.4-1.3-2.1-2.6.7-.7 2.9-.3 7.6 1.5m-3.7 3.9c5.1 1.3 6.1 3.4 1.2 2.4-5.5-1.1-6.8-1.6-6.8-2.6 0-1.1.2-1.1 5.6.2m2.8 4.9c1.1 1.1-.2 3-2 3-2.1 0-7.4-2.9-7.4-4s8-.2 9.4 1M105 62c0 .5.5 1 1.1 1 .5 0 .7-.5.4-1-.3-.6-.8-1-1.1-1-.2 0-.4.4-.4 1M58.1 81.6c-2.2 3.6-2.8 8.4-1.2 8.4.5 0 1.2-.8 1.4-1.8.3-1.2.5-1 .6.7.1 2.1.4 2.3 3.5 1.8 2.2-.4 3.6-.1 3.9.6.3 1 4.7-6.2 4.7-7.8s-1.9-.1-3.4 2.7c-.9 1.8-1.4 2.4-1 1.3 2.2-6.4-.8-10.8-4.5-6.4L60 83.5l.6-2.8c.8-3.7 0-3.4-2.5.9m6.6 5.1c-1 2.2-1.2 2.3-1.8.6-1.1-2.7-1.1-2.9 1-3 1.8-.2 1.9.1.8 2.4m8-2c-.4.3.1 1.1 1 1.8 1.6 1.2 1.1 3.5-.8 3.5-.6 0-.7-.5-.4-1 .3-.6 0-1-.7-1-.8 0-2 1.6-2.7 3.6-1.3 3.6-1.4 3.6-5.7 3-3.9-.5-4.4-.3-4.4 1.4 0 2.4 1.6 3.5 2.4 1.5.7-1.9 3-1.9 5 0 .8.8 1.9 1.5 2.5 1.5 1 0 1.2-.7 1.5-5 .1-.8 1.1-1.6 2.4-1.8 3-.5 5-4.5 3.2-6.7-1.3-1.6-2.3-1.9-3.3-.8m-18.3 8.7c-.4 1-.2 2.2.4 2.8.8.8 1.3.7 1.8-.6.4-1 .2-2.2-.4-2.8-.8-.8-1.3-.7-1.8.6m-1.9 9.6c.3.5.8 1 1.1 1 .2 0 .4-.5.4-1 0-.6-.5-1-1.1-1-.5 0-.7.4-.4 1m7.2 1c.3 1.1.7 2 .9 2s.4-.9.4-2-.4-2-.9-2-.7.9-.4 2m5.8-1c.3.5.8 1 1.1 1 .2 0 .4-.5.4-1 0-.6-.5-1-1.1-1-.5 0-.7.4-.4 1M142 77.8c0 .4.5 1.3 1.2 2 2 2 0 2.7-2.2.7-2.6-2.3-5.4-.4-4.5 3.2.5 2.3-.4 2.8-4.7 2.5-2.2-.2-2.4 1.6-.2 2.5 2.7 1 6.4-1.4 6.4-4.2 0-2.6 1.8-3.3 3.6-1.5 1.2 1.2 4.4.3 4.4-1.2 0-1.6-2-4.8-3-4.8-.6 0-1 .4-1 .8m4.8 7.9c-.9 1-1.3 2.4-1.1 3 .3.7-.1 1.3-.7 1.3-.7 0-1.4-.9-1.7-2-.9-3.2-4.3-1.5-4.3 2.2 0 1.3-.8 1.8-2.6 1.8-2.4 0-2.5.3-1.9 2.7 1 4.3 2.4 5.1 4.4 2.6 1.8-2.1 1.8-2.1 3.4-.2 2.4 2.8 5 1.4 4.2-2.2-.7-3.1-.3-3.4 2.4-2 3.3 1.8 4.4-.2 2.5-4.7-1.8-4.7-2.4-5-4.6-2.5m3.6 2.9c.8 2.2.8 2.4-.8 2.4-1.5 0-2.8-2.4-1.9-3.4 1.1-1 2.1-.7 2.7 1m-8 2.5c-.3.5-1 .7-1.5.3-.5-.3-.7-1-.3-1.5.3-.5 1-.7 1.5-.3.5.3.7 1 .3 1.5m2.9 3.3c.3.8.3 1.7 0 2-.7.7-3.3-1.3-3.3-2.5 0-1.5 2.7-1 3.3.5m-6.8.6c-.3.5-1 1-1.6 1-.5 0-.9-.5-.9-1 0-.6.7-1 1.6-1 .8 0 1.2.4.9 1M126 91c0 .5.5 1 1.1 1 .5 0 .7-.5.4-1-.3-.6-.8-1-1.1-1-.2 0-.4.4-.4 1m8.8 11.7c.7.3 1.6.2 1.9-.1.4-.3-.2-.6-1.3-.5-1.1 0-1.4.3-.6.6m3.9 1.3c.3 1.1.7 2 .9 2s.4-.9.4-2-.4-2-.9-2-.7.9-.4 2m5.8-1c.3.5.8 1 1.1 1 .2 0 .4-.5.4-1 0-.6-.5-1-1.1-1-.5 0-.7.4-.4 1m10.2 1c.3 1.1.7 2 .9 2s.4-.9.4-2-.4-2-.9-2-.7.9-.4 2m-16.7 7.5c0 .8.5 2.4 1.2 3.5 1.7 2.6.3 3.6-2.7 2-1.4-.7-2.8-1.1-3.1-.7-1.2 1.1.7 2.6 4.1 3.3 4.5.8 4.5 2.4.1 2.4-1.8 0-3.9.7-4.6 1.5-1.7 2-.7 2.9 1.7 1.7 1-.5 3.7-1.3 6.1-1.7 4.4-.7 5.1-1.5 2.8-3.4-.8-.7-2-3.2-2.7-5.6-1.3-4.4-2.9-6-2.9-3m12 4.7c-.1 1.3-1.4 4.8-3 7.8-3.1 5.8-3.7 8-2 8 2.4 0 8-16.3 6.1-17.5-.7-.4-1.1.3-1.1 1.7m-4.5-.1c-.4.6-.5 1.3-.2 1.6.7.7 2.7-.6 2.7-1.8s-1.7-1.2-2.5.2m-5 10.8c-.3.5-.1 1.2.5 1.6.5.3 1-.1 1-.9 0-1.8-.6-2.1-1.5-.7M67 112.6c-.8 1.9-1.6 2.5-3 2.1-1.1-.3-2.3-.1-2.6.4s.2.9 1 .9c2.2 0 2 1.3-.3 2.7-1.7 1.1-2.1.9-2.6-.7-.4-1.1-1.3-2-2.1-2-1.2 0-1.2.4.3 2.6 1.3 2.1 1.4 3 .5 4.5-.7 1-.8 1.9-.3 1.9.6 0 1.3-.5 1.6-1 .5-.8 1.1-.7 2.1.1 2.1 1.7 1.7 3.1-.6 2.4-1.5-.5-2-.2-2 1.3 0 1.4.8 2.1 2.9 2.4 2.3.3 2.8.1 2.3-1.1-.3-1.1.4-.8 2 .7 1.5 1.4 2.8 1.9 3.2 1.4.3-.6-.6-2-2.1-3.2-2.3-1.8-2.4-2.1-.7-1.6 1.5.5 2.4 0 3.2-1.6l1.2-2.3-.6 2.2c-.8 3.3 1.2 2.8 2.7-.6.9-1.9 1.8-2.7 2.8-2.3 1.3.4 1.3.2.4-.8-.6-.7-.9-1.8-.7-2.5.3-.7-.5-1.4-2.1-1.7-1.9-.4-2.5-.2-2.1.8.3.8 0 1.1-.9.8-2.2-.9-5.5 1.4-4.8 3.3.5 1.2.3 1.4-.7.8s-1.2-.4-.6 1.1c.7 1.8.6 1.8-1 .2-1.7-1.7-1.7-1.9.7-4.4 1.3-1.4 3.5-3 4.9-3.6 1.7-.6 2.1-1.1 1.2-1.7-.7-.4-1-1.5-.6-2.4.3-1 .1-1.7-.5-1.7s-1.6 1.2-2.1 2.6m3.4 7.3c.3.5-.1 1.1-.9 1.4-.9.4-1.2.1-.8-.9.6-1.6 1-1.7 1.7-.5m-16.4.5c0 .9.7 1.6 1.6 1.6 1.7 0 1.4-2.2-.4-2.8-.7-.2-1.2.3-1.2 1.2m68 12.8c0 .9.5 2 1 2.3 1.3.8 1.3-.5 0-2.5-.8-1.3-1-1.3-1 .2m-10.3 1.6c-2.5 2.7-2.1 3.2 1.3 1.6 2.2-1.2 3.4-1.2 5-.4 1.7.9 2 .8 2-.8 0-2.6-6.1-2.9-8.3-.4m3.3 3.2c0 .5.5 1 1.1 1 .5 0 .7-.5.4-1-.3-.6-.8-1-1.1-1-.2 0-.4.4-.4 1m3.9 1c-5.7 3-6.4 4.4-4.9 9.1 1.7 4.9 1.9 5.1 6.7 4.3 2.5-.4 4.6-1.6 6.1-3.5l2.4-2.9-2.7-4.5c-2.9-5.1-2.8-5.1-7.6-2.5m4.1.8c0 1.1-6.9 4.6-7.6 3.9-.3-.3 1.1-1.5 3.3-2.6 4.5-2.4 4.3-2.3 4.3-1.3m2 3c0 .4-2 1.8-4.5 3-5.2 2.5-6.1 1.4-1.2-1.6 3.4-2.2 5.7-2.7 5.7-1.4m2 3c0 1.1-9.1 5.5-9.8 4.7-.7-.7-.4-.9 4.3-3.3 4.4-2.3 5.5-2.6 5.5-1.4m-16.7-5.3c-.9 2.5.4 2.9 1.7.6.7-1.5.7-2.1 0-2.1-.6 0-1.3.7-1.7 1.5m-24.8-7.1c-3.1 1.3-8.5 6.9-8.5 8.7 0 .5.8 1.2 1.8 1.5 6.2 2 6.5 2.3 4.8 5-.9 1.3-1.4 3-1 3.6 1 1.5 4.4-5.2 3.8-7.4-.3-1 .4-2.3 1.7-3.2s2-1.9 1.6-2.2c-.4-.4-1.8.3-3.2 1.6s-2.5 1.9-2.5 1.2c0-.6 1.2-2 2.7-3.1 1.4-1.2 2.3-2.4 1.9-2.8-.3-.4-2 .6-3.6 2.2s-3.2 2.6-3.6 2.3c-1-1.1 2-4.8 4.8-5.7 1.6-.6 2.8-1.5 2.8-2 0-1.3.2-1.3-3.5.3m7.5 5.8c-.7 1.8-2.1 5.4-3.1 8-2.4 6-2.4 8 .1 4.8l1.9-2.5.8 2.3.9 2.4 1.2-2.6c1-2.2.9-2.7-.8-3.6-2.3-1.2-1.6-4 1-4 2.7 0 3.3-1.7.9-2.3-2-.5-2-.7-.4-3.1 1.5-2.2 1.5-2.6.2-2.6-.8 0-2 1.5-2.7 3.2m44.6.5c-.6 1.4-.5 1.5.5.6.7-.7 1-1.5.7-1.8s-.9.2-1.2 1.2M38 48.9c0 2.6 4.9 5.8 6.1 4 1.3-2.1 1.1-3.2-.5-2.6-1.1.4-1.3.1-.9-1 .5-1.2.2-1.5-1-1-.9.3-1.7.2-1.7-.3 0-.6-.4-1-1-1-.5 0-1 .8-1 1.9m-5 20.5c0 .8.4 1.7.8 2 1.3.8 3.5-1.1 2.8-2.3-1-1.6-3.6-1.4-3.6.3m137 0c0 .8.4 1.7.9 2 1.1.7 3.3-1.8 2.4-2.7-1.2-1.2-3.3-.7-3.3.7M24.6 81.8c-1.3 1.3-.4 2.2 3.4 3.2 2.4.6 4 1.7 4 2.5 0 3 1.9 1.4 2.6-2 .7-3.9-.2-5.8-1.6-3.5-.7 1.1-1.6 1.2-4.4.3-1.9-.6-3.7-.8-4-.5m146.6.4c.3.7 1.4 1.4 2.6 1.6 2.5.4 2.9 1.7.7 2.6-.8.3-1.5 1.5-1.5 2.8 0 2.1.2 2 3.3-1 1.8-1.8 3.8-3.2 4.5-3.2s1.2-.6 1.2-1.4-1.1-1.3-2.7-1.2c-1.6 0-4.1-.3-5.6-.7-2.2-.6-2.8-.5-2.5.5M22 95.4c0 4.6 2.7 5.7 5.6 2.1 2-2.6 3.7-2.5 2.7.1-.3.8 0 1.4.6 1.4s1.1-1.4 1.1-3c0-4.4-2.7-5.1-5.7-1.4L24 97.5v-2.8c0-1.5-.4-2.7-1-2.7-.5 0-1 1.5-1 3.4m152 .6c0 2.2.5 4 1 4 .6 0 1-.6 1-1.4 0-.9 1.6-1.6 4.4-2 5.8-.9 5.4-3.3-.4-2.8-2.5.3-4 0-4-.7 0-.6-.4-1.1-1-1.1-.5 0-1 1.8-1 4m0 7c0 .5 2.5 1 5.5 1s5.5-.5 5.5-1c0-.6-2.5-1-5.5-1s-5.5.4-5.5 1m-152 2.2c0 .9 1.5 1.2 5 1 6.5-.5 6.5-2.2 0-2.2-3.3 0-5 .4-5 1.2m156.8 3.3c-1.4 3-2.8 3.3-2.8.5 0-1.1-.4-2-1-2-1.4 0-1.3 4.3.2 5.8 1.9 1.9 3.7 1.4 5-1.3 1.5-3.2 2.8-3.2 2.8.1 0 1.4.4 2.3 1 1.9 1.4-.9 1.3-4.8-.2-6.3-1.9-1.9-3.7-1.4-5 1.3m-152.2 2.4c-2.2.3-4.1 1.2-4.4 2-.4 1.1.4 1.2 3.4.7l3.9-.7-2.5 2c-1.4 1.2-2.8 2.1-3.2 2.1-.5 0-.8.9-.8 2 0 2.1 1.7 2.4 7.5 1.1 4.1-.8 3.5-2.7-.6-2.3-3.3.2-3.3.2-1.4-1.3 1.1-.9 2.6-2 3.3-2.4 1.2-.7.7-4.2-.7-4-.3.1-2.4.5-4.5.8m147.6 5.4c-2.2 2.6-2.5 6.5-.5 7 6.1 1.8 8.3 1.8 8.3.3 0-.9-.7-1.6-1.5-1.6-2.3 0-1.8-1.8.7-2.2 1.2-.2 2.4-.9 2.6-1.7.4-1.1-.2-1.3-2.7-.8-1.7.4-3.1.3-3.1-.2 0-1.5-2.8-2-3.8-.8m2.8 3.2c0 .8-.7 1.5-1.5 1.5-.9 0-1.2-.6-.9-1.5.4-.8 1-1.5 1.5-1.5s.9.7.9 1.5m-149.8 5.7c-1.4 1.4-1.6 6.7-.3 8.7.8 1.2 1.4 1.3 3.5.3 2.8-1.3 3.1-1.9 1.6-4.2-.8-1.2-1-1.2-1.6.3-.9 2.5-2.6 2.1-2.2-.6.2-1.7 1-2.2 3.3-2.2s3.1.5 3.3 2.2c.4 2.7 2.2 3.1 2.2.5 0-4.8-6.6-8.2-9.8-5m142.9 3c-.6 1.7-1 3.2-.9 3.4.6.5 8.1 3.4 8.8 3.4s3-5.3 3-6.6-2 0-2.5 1.6c-.9 2.9-2.8 2.5-2.1-.5.7-2.7-1.1-3.6-2-1-1 2.5-2.7 1.7-2-1 .9-3.6-1-3.1-2.3.7m-2.5 5.7c-.5.8.2 2.4 2 4.2l2.9 3-4.3-.7c-4.2-.7-6.2.9-2.4 2 9.8 2.7 12 .9 6.4-5.4-2.7-3.1-4.1-4-4.6-3.1m-133.1 3.3c-5 2.5-4.8 2.4-4 3.7.4.8 1.2.8 2.5.1s2.1-.6 3 .5.7 1.6-1 2.5c-1.5.8-1.9 1.5-1.2 2.2 1 1 9.2-2.7 9.2-4.2 0-1.4-1.4-1.9-3-1-1.3.7-2 .6-2.4-.6-.3-.8.1-1.7.9-2 1.5-.6 2.1-3.4.8-3.4-.5.1-2.6 1-4.8 2.2m127 6.9c-.4.5-.5 1.2-.4 1.3 4 3.2 8.5 5.4 9.3 4.6 1-1-.3-2.3-5.6-5.4-1.8-1.1-2.9-1.3-3.3-.5m-119.9 4.3c-3.2 2.9-3.6 3.8-2.7 5.5 2.1 3.9 5.4 3.9 9.9.1 3.8-3.2 1.5-4.5-2.5-1.4-5.1 3.9-7.3 1.5-2.3-2.7 2.4-2 3.1-3.2 2.3-4-.7-.7-2.1 0-4.7 2.5m117.4.1c0 .8.9 2 2 2.7 3.1 2 2.4 2.7-1.5 1.5-5.9-1.8-6.9.6-2.1 4.9 4.3 3.8 7 3.6 3.4-.3l-2.3-2.5 3.6.7c5.2 1 5.8-.9 1.8-5.1-3.6-3.7-4.9-4.2-4.9-1.9m-110 10c-3.8 2-4.2 2.4-2.5 3 3.7 1.2 5 2.3 4.7 3.8-.6 3.7 1.9 2.4 3.8-2 3.3-7.6 1.7-8.9-6-4.8m5 1.3c0 1.3-1.2 2.2-2.2 1.6s-.1-2.4 1.3-2.4c.5 0 .9.4.9.8m96.6-3c-.3.5.6 2 1.9 3.2 2.7 2.5 3.3 5 1.3 5-.7 0-2.5-1.2-4-2.7-1.9-1.8-3.1-2.4-3.8-1.7s.1 2.1 2.4 4.3c3.7 3.6 6.7 3.6 8.6.1 1.6-2.9-4.7-11-6.4-8.2M72 174c0 1.1 6.1 3.9 7.3 3.3 1.4-.8.7-2-1.8-3.1-3.2-1.5-5.5-1.5-5.5-.2m13.4.5c-1.8 1.3-1.8 1.4-.1 1.5 1.5 0 1.7.6 1.2 3.4-.7 3.5 1 6 1.8 2.9 2.4-8.7 1.5-11.1-2.9-7.8m30.3.3c-1.8 2-1.3 3.4.8 2.6.9-.4 1.5.4 1.7 2.2.3 2.8 2.8 4.7 2.8 2.2s-2.1-8.8-2.9-8.8c-.4 0-1.5.8-2.4 1.8m12.6-.6c-3.3 1.1-4.1 2.2-2.4 3.2 1.3.9 8.3-2.3 7.6-3.4-.7-1.2-.9-1.1-5.2.2m-33.7 2.3c-.8 2.3.4 4.5 2.5 4.5 1 0 1.9.4 1.9 1 0 .5-1.2 1-2.7 1-2 0-2.4.3-1.6 1.1 3.2 3.2 8.1-1.6 6.9-6.7-.7-2.8-6-3.5-7-.9m4.4 1c0 .8-.4 1.5-1 1.5-.5 0-1-.7-1-1.5s.5-1.5 1-1.5c.6 0 1 .7 1 1.5m7.1-1.1c-.8 1-.9 1.6-.1 2.1.5.3 1.1.3 1.1-.2.1-.4.4.7.8 2.6.8 4.3 3.1 5.4 3.1 1.4 0-6.5-2.2-9.1-4.9-5.9M311 3.2c-2.4 2.6-5.1 9.6-7.5 19.6s-4.6 12.7-14.5 18.3c-27.5 15.5-30.2 18.4-31.4 33.6-.4 4.9-1.1 9.5-1.7 10.3-.6 1-.7-.8-.3-5.2.6-6.3.5-6.8-2-9.1-1.4-1.4-3.3-4.7-4.1-7.5-1.8-5.9-2.7-6.7-5.5-5-4.4 2.8-4.7 5.5-4.8 38.3-.1 39.4.6 43.8 6.7 47.9l4.4 2.9 1.7-2c1.2-1.5 1.9-5 2.3-12 .4-5.4 1.4-12.3 2.2-15.3 4.3-15.7 5.7-23.5 6.4-35.1.9-14.6 1.9-16.9 7.9-18.7C274.6 63 288 53.6 288 52c0-.8 7.2-6 8.3-6 1.3 0 .7 4-.8 6.4q-1.65 2.4-1.8 10.8c-.2 7.4-.6 9-3 12.7-1.6 2.3-2.7 5-2.5 5.9.4 2.1 4.9 2.8 7.8 1.2 3.1-1.7 3.5-.7 1.6 4-.9 2.2-2 5.7-2.5 7.8-.5 2-2.5 9.9-4.6 17.5-4.2 16.1-4.9 24.3-2.2 26.1 4.2 2.7 6.5-2.1 9-18.7 1.8-11.5 1.7-11.4 5.4-9.1 4.1 2.5 5.3 4.4 5.3 7.8 0 4.5-1.3 6.1-3.8 4.7-3-1.6-3.3-.1-1.1 4.9 3.7 8.1 8 10.2 12.9 6.2 2.3-1.8 2.3-2 1-10.3-1.6-9.7-1.9-29.2-.6-39.6.8-6.6.7-7.2-1.3-8.9-2.9-2.5-2.7-3.8 1.3-8.2 3.2-3.5 4-5.1 3.7-8-.2-2.2-3.7-1.3-10 2.8-7.5 4.9-7.6 3.6-.6-7.1 4.2-6.4 4.3-6.7 3.2-11.3-1.4-6.2.6-10.7 6-13.3C323.3 28.1 332 20 332 17.8c0-2-8.5-9.6-11.7-10.4C319 7 318 6.2 318 5.5c0-1.5-2.7-4.5-4-4.5-.5 0-1.8 1-3 2.2m9 11.8c0 1-.7 2.3-1.5 3-1.3 1.1-1.5.7-1.5-3s.2-4.1 1.5-3c.8.7 1.5 2 1.5 3m-12 71.1c0 2-1.5 2.6-2.5.9-.9-1.5.3-4.3 1.5-3.5.5.3 1 1.5 1 2.6m-2.6 10.5c1 .4 1.6 1.8 1.6 3.6 0 2.3-.4 2.9-1.6 2.4-.9-.3-1.8-.6-2-.6s-.4-1.4-.4-3c0-3.2.1-3.3 2.4-2.4M642.2 2.2c-.7.7-1.2 2.5-1.2 4.2 0 5-3.6 10.7-13 20.5-11.2 11.6-11.6 13.8-2 11.1 4.8-1.4 5.4-.1 3 6.1-2.9 7.7-8.4 14.9-11.4 14.9-1.7 0-2.7.8-3.3 2.4-.4 1.3-4.4 5.2-8.8 8.5-8.6 6.6-11.2 7.3-16.4 4.4-3.8-2.2-4.6-1.4-3.1 3.1s4.5 8.3 8.1 10.2c3.8 1.9 4.7 1.2 5.5-3.7s5.5-9.1 12.9-11.5c2.7-.9 5.9-2.3 7-3 2.5-1.8 5.6-1.8 7.9-.1 1.7 1.3 1.5 1.7-3.3 5.8-2.8 2.4-5.1 4.7-5.1 5.2 0 .8 8.4-3.3 14.3-7 2-1.3 5.9-2.9 8.5-3.6 8.1-2.1 22.2-15.2 22.2-20.6 0-5-11.3-7.1-19.5-3.7-6.2 2.6-7.3 1.2-3.4-5 2.6-4.3 1.3-7-3.7-8-4.4-.8-4.6-.4 6.4-12.3 10.5-11.3 11.4-13.8 6-17.1-3.8-2.3-5.9-2.5-7.6-.8m10.5 48.5c.6 1.8-8.1 10.3-10.5 10.3-1.1 0-3.3-.5-4.7-1.2-2.2-1-2.9-.8-5 1.2-3.5 3.3-6.4 2.1-3.9-1.8 2.9-4.4 4.1-5.3 11.2-7.8 6.9-2.5 12.3-2.8 12.9-.7M436.3 6.1c-1.1.4-5.9 5.7-10.5 11.7-8.3 11-8.3 11-16.5 14.5-9.2 3.9-9 3.9-12.2-3.5-1.1-2.6-2.9-5.2-4-5.8-2-1-2.1-.8-2.1 7.2 0 10.1-.8 11.6-8.9 15.2-3.3 1.5-7.9 3.8-10.2 5.1l-4.2 2.3 3.2 1.6c3 1.6 3.4 1.6 7.9-.5 6.8-3 9.4-3.7 11.7-2.9 2.7 1 5.8-.6 7.7-3.8 3-5.1 10.8-10.3 10.8-7.2 0 .6-1 2-2.2 3-8.2 7.2-7.8 6.6-7.8 12.8 0 12.9-8.4 24.4-13.9 18.9-1.5-1.5-4.1 1.5-4.1 4.8 0 3-1.6 4.7-8.3 8.9-9.2 5.7-4.7 8.1 5 2.6 2.9-1.7 6.2-3 7.3-3 1.2 0 4.2-2.2 6.9-5s5.4-5 6-5c2.1 0 1.3 8.2-1 10.7-1.8 1.8-2 2.5-1 3.7 2.5 3-6.2 11.1-20.7 19.5-5.6 3.2-6.1 3.7-4.5 4.8 3.2 2.4 6.2 1.4 14.5-5.3 13.4-10.8 14.3-10.8 14.3-.6 0 6.6-.1 6.7-3.2 8.1-4.4 2-3.9 6.1.8 6.1 1.9 0 2.9 2 2.9 5.9 0 1.5.7 5 1.5 7.7 3.3 10.7 7 10.9 6.6.2-.1-3.4.1-9 .5-12.5l.6-6.3 8.9-5.6c8.9-5.6 14.3-10.7 13.6-12.8-.2-.6-2.2-2.1-4.5-3.4-6.1-3.4-5.7-5.7 2.3-12.9 6.6-5.9 7.7-8.1 5-10.3-1.3-1.1-3.2-.4-11.6 4-10.5 5.4-13.4 5.9-8.2 1.2 1.7-1.5 5.6-5.9 8.6-9.7 3-3.9 7.6-9.3 10.1-12 5.4-5.9 5.2-5.1 2.3-10.6-3.3-6.2-6.5-6.4-16.8-1-4.3 2.3-8 4.1-8.3 4.1-1 0 .8-4.2 2.3-5.3.9-.7 3.4-3.4 5.6-6.1 4.8-6 11.2-10.2 22.3-14.7 6.3-2.5 8.4-3.9 8.8-5.6 1.3-4.9-3.8-6.9-8.3-3.3-4 3.1-4.8 2.4-1.8-1.6 4.1-5.3 2.2-10.3-3.2-8.3M425 51.4c0 1-8.8 9.5-10.8 10.6-6.1 3-3-3.9 3.5-8 4.3-2.6 7.3-3.7 7.3-2.6m-10.6 18.8c-1.3 2.3-3.7 4.8-4.6 4.8-1.4 0-.9-2.8.8-4.4 1.9-1.9 4.8-2.2 3.8-.4m5 31c2 2.8.5 5.4-5 8.5-5.2 3-5.4 3-5.4-2 0-7.8 6.6-12 10.4-6.5M241.8 21.6c-2.4 2.3.7 10.2 4.8 12.4 2.9 1.6 8.1.4 9.5-2.2 1.3-2.5-.2-6.8-3.2-8.6-2.4-1.5-10.1-2.7-11.1-1.6m280.4 6.6c-.5.7-1.5 4.4-2.1 8.3-.6 3.8-3 13.5-5.2 21.5-3.6 13.1-4.4 14.8-7.6 17.8-4.3 3.8-14.7 9.2-17.8 9.2-1.2 0-3 .6-4 1.4-1.8 1.3-1.8 1.5 1 4 3.3 3 3.2 3 11 1.1 8.6-2.1 8.8-2 8 1.7-3.2 14.9-14.9 30.3-28.5 37.4-6.1 3.2.2 3 6.8-.2 11.3-5.5 25.1-22.6 30.4-37.9 1.5-4.3 2.8-8 2.8-8.1s4-3.4 9-7.3c13.5-10.8 16.7-17.5 10.1-21.4-3.9-2.3-3.8-2.3-5.2 2.5-1.5 5.2-3.6 7.8-6.2 7.8-1.7 0-1.9-.5-1.3-3.3C526 50.6 528 38 528 34.4c0-5.7-3.3-9.2-5.8-6.2m69.5 16.4c-1.6 1.7-.5 5.4 3.3 10.7 2.6 3.6 4 6.6 4 8.6 0 3.8 3.3 4.3 6.8 1.1 3.5-3.3 2.8-6.3-2.3-10.4-2.5-2.1-6-5.3-7.8-7.2s-3.6-3.2-4-2.8m48.2 35.2c-3 1.6-12.9 6.8-22.1 11.6s-17 9.2-17.4 9.7c-2.5 4 13.6 3.1 19.9-1.2 4.9-3.3 6.2-3 2.1.5-3.5 2.9-6.8 8.3-5.6 9 .5.3 3.3-1.3 6.3-3.5s8.3-5.8 11.9-8c7.9-4.7 19.3-15.9 18.5-18.2-.6-1.5-3.5-2.7-6.6-2.7-.9 0-4 1.3-7 2.8m-.9 6c0 1.9-11.6 10.9-12.7 9.8-.8-.8 9.8-10.6 11.5-10.6.6 0 1.2.4 1.2.8m-119.1 15.9c-.7 4.8 3.8 16.6 8.6 22.9 4.5 5.9 10.3 5.5 19.3-1.3 4.8-3.6 4.2-5.3-1.6-5.3-5.6 0-16.5-6.7-21.5-13.4-2.6-3.4-4.6-4.5-4.8-2.9m114.6 10.5c-1.6.5-5.8.7-9.2.6-4.9-.2-6.5.1-7.5 1.4-.7.9-4 2.4-7.3 3.4-5.3 1.5-16.3 5.8-17.3 6.8-1.1 1.2 2.3 4.7 5.6 5.6 6.1 1.7 9.9 1.2 15.5-2 3-1.7 6.1-3 7-3 1.8 0 3 4.7 2.5 10.1-.3 3.2-.6 3.4-4.2 3.7-2.1.2-6-.4-8.7-1.2-5.8-1.9-9.2-2.1-8.7-.4 1.4 4.2 21.2 11.9 25.5 9.9 4.4-2 6.8-11.8 4.2-17.5-1.5-3.3-.1-5 6.8-8.3 4.5-2.1 7.5-5.5 6.1-6.8-1.8-1.8-7.7-3.1-10.3-2.3m-276.7 51c-3.1 1.1-3.8 3.1-1 2.6 2.9-.5 3.2 29.1.2 29.9-4 1-1.9 2.3 3.8 2.2 5.5 0 5.6-.1 3.5-1.6-3-2-3.5-16.6-.7-17.7 3.1-1.2 8.2-.6 8.8 1 1.4 3.5.7 16.4-.9 16.4-.8 0-1.5.4-1.5 1 0 .5 2.3 1 5 1 2.8 0 5-.5 5-1 0-.6-.7-1-1.5-1-1.2 0-1.5-1.5-1.5-7.9 0-12.8-2.7-15.9-10.6-12.6-2 .8-3.8 1.5-4 1.5s-.4-3.4-.4-7.5-.3-7.5-.7-7.4c-.5 0-2 .5-3.5 1.1m-65.8 3.3c0 2.2.4 2.6 2.3 2.3 1.4-.2 2.2-1 2.2-2.3s-.8-2.1-2.2-2.3c-1.9-.3-2.3.1-2.3 2.3m222.4-1c-.4.9-.2 2.1.4 2.7 1.5 1.5 4.4.1 4-1.9-.4-2.3-3.6-2.9-4.4-.8m100 0c-.4.9-.2 2.1.4 2.7 1.5 1.5 4.4.1 4-1.9-.4-2.3-3.6-2.9-4.4-.8m-375.4 4c0 2.4.5 3.5 1.5 3.5.9 0 1.5-.9 1.5-2.5 0-2.3.4-2.5 4-2.5h4v14c0 13.3-.1 14-2 14-1.1 0-2 .4-2 1s2.8 1 6.5 1 6.5-.4 6.5-1-.9-1-2-1c-1.9 0-2-.7-2-14v-14h3.9c3.3 0 4 .4 4.5 2.5.9 3.7 2.6 3 2.6-1V166h-27zm211.1-2.2c1.3 1 1.7 3.7 2.1 13.6.4 11.9.5 12.5 3.1 14.7 5.2 4.4 15 4.1 19.3-.7 1.6-1.8 2-4 2.2-14.4.3-11.6.5-12.4 2.5-13.1 1.9-.6 1.8-.8-1.1-1.1-1.8-.2-4.5-.2-6 0-2.6.4-2.6.4-.4 1.2 2.1.7 2.2 1.2 2.2 12 0 13.3-1 15.3-7.7 16.2-3.5.5-4.5.2-6.7-2-3.8-3.8-4-24.7-.3-26.5 1.8-.9 1.1-1.1-4.3-1.1s-6.2.2-4.9 1.2m178.4 4.7c-.3 1.1-1.5 2.5-2.6 3-2.3 1.3-2.5 3-.4 3 1.2 0 1.5 1.6 1.5 8.4 0 11.3.2 11.6 6.1 11.6 2.7 0 4.9-.5 4.9-1 0-.6-1-1-2.3-1-3.8 0-4.7-1.9-4.7-10.2V178h3.5c2.4 0 3.5-.5 3.5-1.5s-1.1-1.5-3.5-1.5c-3.1 0-3.5-.3-3.5-2.5 0-3-1.6-3.3-2.5-.5M274 175.1c-3 1.2-4 2.6-4 6 0 2.4 2.6 5.9 4.4 5.9 1.9 0 6.6 4.3 6.6 6 0 4.4-8.6 4.9-9.2.7-.5-3.3-2.3-2.6-2.6.9-.3 2.9 0 3.2 3.2 3.7 11.8 1.9 17-8 6.8-13.2-4.7-2.4-6.4-4.4-5.6-6.4 1.3-3.4 6.8-3.1 7.9.4.9 2.9 2.5 2.3 2.5-1 0-3.9-4.4-5.2-10-3m39.1.5c-2.5 1-3.6 1.1-4.2.3-.4-.7-1.8-.9-3.8-.4-3.2.7-4.3 2.5-1.6 2.5 1.2 0 1.5 1.7 1.5 9s-.3 9-1.5 9c-.8 0-1.5.4-1.5 1s2.5 1 5.8.9c5.5 0 5.6-.1 3.5-1.6-3-2-3.5-16.6-.7-17.7 3.1-1.2 8.2-.6 8.8 1 1.4 3.5.7 16.4-.9 16.4-.8 0-1.5.4-1.5 1 0 .5 2.3 1 5 1 2.8 0 5-.5 5-1 0-.6-.7-1-1.5-1-1.2 0-1.5-1.6-1.5-8.5 0-7.8-.2-8.8-2.5-11-2.8-2.9-3.7-3-8.4-.9m24.4-.9c-6.6 1.7-8.5 12.4-2.5 14 2.2.6 2.6 1.8 1 2.8-.5.3-1 1.5-1 2.7 0 1.1-1.1 2.9-2.5 4-3.3 2.5-3.2 6.1.1 8.7 6.4 5 18.4.2 18.4-7.3 0-2.9-2.2-4.4-8.3-5.4-5.2-.9-5.6-3.3-.7-4.3 4.7-1 7.3-4.4 6.7-8.6-.5-3-.3-3.3 1.9-3.3 4.3 0 2.6-1.7-2.3-2.3-2.7-.4-5.7-.8-6.8-1.1-1.1-.2-2.9-.2-4 .1m5.7 3c3.5 3.1 1.6 10.3-2.7 10.3-3.2 0-5.9-4-5-7.2 1.6-5 4.4-6.1 7.7-3.1m3.7 21.7c3.2 3.2-3 8.6-8.1 7.1-5-1.6-6.3-4.9-3.1-8 1.9-2 8.8-1.4 11.2.9m39.2-24.5c-2.8.7-4.1 3.1-1.7 3.1 1.2 0 1.6 1.6 1.8 8.6.3 8.1.5 8.8 3 10.7 2.6 2 2.9 2 7 .4 2.6-1.1 4.4-1.3 4.6-.7.2.5 2 1 4 1 3.4-.1 3.6-.2 1.8-1.5-1.6-1.2-1.8-2.7-1.7-11.4.2-10.8-.2-11.6-4.8-10-3.5 1.2-4.1 2.9-1.1 2.9 1.8 0 2 .7 2 7.9 0 8.6 0 8.5-4.6 9.5-5.3 1.2-6.4-1-6.4-12 0-5.2-.3-9.4-.7-9.3-.5.1-1.9.4-3.2.8m31.4.1c-5.1 1.6-7.3 6-3 6 1.8 0 2.5-.5 2.5-1.9 0-2.4 3.2-3.6 6-2.1 1.3.7 2 2.1 2 3.8 0 2.4-.6 2.9-4.3 3.9-8.4 2.3-12.1 7.8-7.9 11.6 2.1 2 7.4 2.2 10.5.6 1.6-.9 2.2-.9 2.5 0 .2.6 2 1.1 4 1 3.7 0 3.7 0 1.5-1.6-2.1-1.4-2.3-2.4-2.3-10.3 0-6.1-.4-9.1-1.3-9.9-2-1.6-6.8-2.1-10.2-1.1m5.9 19.7c-2.6 1.9-6.2 1.6-7.4-.6-1.5-2.9-.2-5.1 4.4-7.2l4.1-1.8.3 4.2c.3 3-.1 4.5-1.4 5.4m70.6-19.1c-2.2 1-3.6 1.1-3.8.4-.6-1.8-7.2-.9-7.2 1.1 0 .5.7.9 1.5.9 1.2 0 1.5 1.7 1.5 9s-.3 9-1.5 9c-.8 0-1.5.4-1.5 1 0 .5 2.3 1 5 1 2.8 0 5-.5 5-1 0-.6-.7-1-1.5-1-1.3 0-1.5-1.4-1.3-8.8l.3-8.7 4-.3c5.4-.5 6.5 1.4 6.5 10.5 0 5.8-.3 7.3-1.5 7.3-.8 0-1.5.4-1.5 1 0 .5 2.3 1 5 1 2.8 0 5-.5 5-1 0-.6-.6-1-1.4-1-1.1 0-1.5-2.1-1.8-9.1-.3-8.1-.6-9.3-2.7-11-2.8-2.3-3.5-2.3-8.1-.3m61.5-.2c-9.5 4.2-8.4 21 1.4 22.9 2.9.6 8.4-.5 11.1-2.2 2.5-1.7.3-2.3-3.3-1-4.6 1.6-8.3.5-10.2-3.1-3.2-6.2-2.4-7 6.6-7h8.1l-.7-3.3c-1.3-6.2-7.1-9-13-6.3m6.2 2.1c1.1.8 2.3 2.4 2.6 3.5.5 1.8.1 2-5.4 2-6.5 0-7.2-.8-3.4-4.5 2.8-2.9 3.3-3 6.2-1m21.1-.8c-2.7 2.7-2.8 2.7-2.8.5 0-2.3-1.5-2.7-5.7-1.6-2.8.8-3 2.4-.3 2.4 1.9 0 2 .7 2 9 0 7.2-.3 9-1.4 9-.8 0-1.8.4-2.1 1-.4.6 1.7 1 5.4 1 3.4 0 6.1-.4 6.1-1s-.9-1-2-1c-1.8 0-2-.7-2-7.3 0-8.6 1.8-11.5 6.5-10.3 2.3.6 2.6.4 2.3-1.6-.4-3.3-2.9-3.3-6-.1m13.7-1.7c-6.6 2.6-6 8.3 1.3 12.4 5.8 3.3 6.9 6.6 3.1 8.7-2.9 1.5-6.9-.3-6.9-3.2 0-1.2-.5-1.9-1.2-1.7-.7.3-1.2 1.7-1.2 3.3 0 6.2 13.4 5.2 15-1.1.9-3.5-.3-5.3-5.7-8.5-4.7-2.7-6-5.7-3.4-7.9 1.9-1.6 6.5.1 6.5 2.5 0 .8.5 1.5 1 1.5.6 0 1-1.3 1-2.9 0-3.7-4.4-5.2-9.5-3.1m-306.2.7c-1.8.7-1.6 2.3.2 2.3 1.2 0 1.5 1.7 1.5 8.9 0 8.3-.1 8.9-2.2 9.6s-2 .8 1 1.2c1.7.2 4.7.2 6.5 0 2.9-.4 3-.5 1-1.2-2.2-.7-2.3-1.2-2.3-11.1 0-11-.5-11.9-5.7-9.7m222 0c-1.8.7-1.6 2.3.2 2.3 1.2 0 1.5 1.7 1.5 9s-.3 9-1.5 9c-.8 0-1.5.4-1.5 1 0 .5 2.5 1 5.6 1 3.4 0 5.3-.4 4.9-1-.3-.5-1.3-1-2.1-1-1.1 0-1.4-2-1.4-10.5 0-11.1-.5-12-5.7-9.8m10.2.3c.3.5 1.2 1 1.8 1 .7 0 3 4.7 5.1 10.6 4.8 13.2 5.6 13.2 11-.3 2.3-5.7 4.7-10.3 5.4-10.3.6 0 1.2-.5 1.2-1 0-.6-1.8-1-4-1s-4 .4-4 1c0 .5.7 1 1.6 1s1.4.6 1.1 1.2c-.3.7-1.7 4.4-3.3 8.2l-2.7 6.9-2.9-7.4c-3.2-8.5-3.3-8.9-1.3-8.9.8 0 1.5-.5 1.5-1 0-.6-2.5-1-5.6-1-3.4 0-5.3.4-4.9 1m89.8-.3c-1.8.7-1.6 2.3.2 2.3 1.2 0 1.5 1.7 1.5 9s-.3 9-1.5 9c-.8 0-1.5.4-1.5 1 0 .5 2.5 1 5.6 1 3.4 0 5.3-.4 4.9-1-.3-.5-1.3-1-2.1-1-1.1 0-1.4-2-1.4-10.5 0-11.1-.5-12-5.7-9.8m26.7.2c0 .5.8 1.1 1.8 1.3 1.1.4 3 4 5.6 10.8 3.7 10.1 3.8 10.4 2.2 13.7-1.5 3.1-2 3.4-4.5 2.8-3.6-.8-5 1-2.7 3.3 1.5 1.5 1.9 1.5 4.3.2 3-1.7 4.3-4.2 10.8-19.8 2.8-6.7 5.3-11.2 6.1-11.2s1.4-.5 1.4-1c0-.6-2.1-1-4.7-1-4.4.1-4.6.2-2.9 1.5 1.8 1.3 1.7 1.6-.9 8.4-3.2 8.1-3.1 8.2-6.6-.7-2.6-6.4-2.6-6.7-.8-7.4 3.2-1.2 2.1-1.8-3.6-1.8-3 0-5.5.4-5.5.9"/></svg>